G04 #@! TF.GenerationSoftware,KiCad,Pcbnew,7.0.9*
G04 #@! TF.CreationDate,2024-01-11T22:43:50+01:00*
G04 #@! TF.ProjectId,CameraV1,43616d65-7261-4563-912e-6b696361645f,rev?*
G04 #@! TF.SameCoordinates,Original*
G04 #@! TF.FileFunction,Copper,L1,Top*
G04 #@! TF.FilePolarity,Positive*
%FSLAX46Y46*%
G04 Gerber Fmt 4.6, Leading zero omitted, Abs format (unit mm)*
G04 Created by KiCad (PCBNEW 7.0.9) date 2024-01-11 22:43:50*
%MOMM*%
%LPD*%
G01*
G04 APERTURE LIST*
G04 Aperture macros list*
%AMRoundRect*
0 Rectangle with rounded corners*
0 $1 Rounding radius*
0 $2 $3 $4 $5 $6 $7 $8 $9 X,Y pos of 4 corners*
0 Add a 4 corners polygon primitive as box body*
4,1,4,$2,$3,$4,$5,$6,$7,$8,$9,$2,$3,0*
0 Add four circle primitives for the rounded corners*
1,1,$1+$1,$2,$3*
1,1,$1+$1,$4,$5*
1,1,$1+$1,$6,$7*
1,1,$1+$1,$8,$9*
0 Add four rect primitives between the rounded corners*
20,1,$1+$1,$2,$3,$4,$5,0*
20,1,$1+$1,$4,$5,$6,$7,0*
20,1,$1+$1,$6,$7,$8,$9,0*
20,1,$1+$1,$8,$9,$2,$3,0*%
G04 Aperture macros list end*
G04 #@! TA.AperFunction,SMDPad,CuDef*
%ADD10RoundRect,0.225000X-0.250000X0.225000X-0.250000X-0.225000X0.250000X-0.225000X0.250000X0.225000X0*%
G04 #@! TD*
G04 #@! TA.AperFunction,SMDPad,CuDef*
%ADD11RoundRect,0.225000X0.225000X0.250000X-0.225000X0.250000X-0.225000X-0.250000X0.225000X-0.250000X0*%
G04 #@! TD*
G04 #@! TA.AperFunction,SMDPad,CuDef*
%ADD12RoundRect,0.225000X-0.225000X-0.250000X0.225000X-0.250000X0.225000X0.250000X-0.225000X0.250000X0*%
G04 #@! TD*
G04 #@! TA.AperFunction,SMDPad,CuDef*
%ADD13RoundRect,0.243750X-0.243750X-0.456250X0.243750X-0.456250X0.243750X0.456250X-0.243750X0.456250X0*%
G04 #@! TD*
G04 #@! TA.AperFunction,SMDPad,CuDef*
%ADD14RoundRect,0.200000X-0.275000X0.200000X-0.275000X-0.200000X0.275000X-0.200000X0.275000X0.200000X0*%
G04 #@! TD*
G04 #@! TA.AperFunction,SMDPad,CuDef*
%ADD15RoundRect,0.200000X0.275000X-0.200000X0.275000X0.200000X-0.275000X0.200000X-0.275000X-0.200000X0*%
G04 #@! TD*
G04 #@! TA.AperFunction,SMDPad,CuDef*
%ADD16RoundRect,0.250000X-0.250000X-0.475000X0.250000X-0.475000X0.250000X0.475000X-0.250000X0.475000X0*%
G04 #@! TD*
G04 #@! TA.AperFunction,ComponentPad*
%ADD17R,1.700000X1.700000*%
G04 #@! TD*
G04 #@! TA.AperFunction,ComponentPad*
%ADD18O,1.700000X1.700000*%
G04 #@! TD*
G04 #@! TA.AperFunction,SMDPad,CuDef*
%ADD19RoundRect,0.200000X-0.200000X-0.275000X0.200000X-0.275000X0.200000X0.275000X-0.200000X0.275000X0*%
G04 #@! TD*
G04 #@! TA.AperFunction,SMDPad,CuDef*
%ADD20RoundRect,0.042000X0.258000X-0.943000X0.258000X0.943000X-0.258000X0.943000X-0.258000X-0.943000X0*%
G04 #@! TD*
G04 #@! TA.AperFunction,SMDPad,CuDef*
%ADD21R,3.302000X2.413000*%
G04 #@! TD*
G04 #@! TA.AperFunction,SMDPad,CuDef*
%ADD22R,0.300000X1.300000*%
G04 #@! TD*
G04 #@! TA.AperFunction,SMDPad,CuDef*
%ADD23R,1.800000X2.200000*%
G04 #@! TD*
G04 #@! TA.AperFunction,SMDPad,CuDef*
%ADD24R,1.300000X1.550000*%
G04 #@! TD*
G04 #@! TA.AperFunction,SMDPad,CuDef*
%ADD25R,1.500000X2.000000*%
G04 #@! TD*
G04 #@! TA.AperFunction,SMDPad,CuDef*
%ADD26R,3.800000X2.000000*%
G04 #@! TD*
G04 #@! TA.AperFunction,SMDPad,CuDef*
%ADD27RoundRect,0.020000X0.180000X-0.760000X0.180000X0.760000X-0.180000X0.760000X-0.180000X-0.760000X0*%
G04 #@! TD*
G04 #@! TA.AperFunction,SMDPad,CuDef*
%ADD28RoundRect,0.150000X0.587500X0.150000X-0.587500X0.150000X-0.587500X-0.150000X0.587500X-0.150000X0*%
G04 #@! TD*
G04 #@! TA.AperFunction,SMDPad,CuDef*
%ADD29R,0.550000X1.200000*%
G04 #@! TD*
G04 #@! TA.AperFunction,SMDPad,CuDef*
%ADD30RoundRect,0.218750X0.381250X-0.218750X0.381250X0.218750X-0.381250X0.218750X-0.381250X-0.218750X0*%
G04 #@! TD*
G04 #@! TA.AperFunction,ComponentPad*
%ADD31C,2.900000*%
G04 #@! TD*
G04 #@! TA.AperFunction,ConnectorPad*
%ADD32C,5.000000*%
G04 #@! TD*
G04 #@! TA.AperFunction,SMDPad,CuDef*
%ADD33RoundRect,0.250000X0.250000X0.475000X-0.250000X0.475000X-0.250000X-0.475000X0.250000X-0.475000X0*%
G04 #@! TD*
G04 #@! TA.AperFunction,SMDPad,CuDef*
%ADD34RoundRect,0.150000X-0.150000X-0.425000X0.150000X-0.425000X0.150000X0.425000X-0.150000X0.425000X0*%
G04 #@! TD*
G04 #@! TA.AperFunction,SMDPad,CuDef*
%ADD35RoundRect,0.075000X-0.075000X-0.500000X0.075000X-0.500000X0.075000X0.500000X-0.075000X0.500000X0*%
G04 #@! TD*
G04 #@! TA.AperFunction,ComponentPad*
%ADD36O,1.000000X2.100000*%
G04 #@! TD*
G04 #@! TA.AperFunction,ComponentPad*
%ADD37O,1.000000X1.800000*%
G04 #@! TD*
G04 #@! TA.AperFunction,SMDPad,CuDef*
%ADD38RoundRect,0.225000X0.250000X-0.225000X0.250000X0.225000X-0.250000X0.225000X-0.250000X-0.225000X0*%
G04 #@! TD*
G04 #@! TA.AperFunction,SMDPad,CuDef*
%ADD39R,0.450000X1.750000*%
G04 #@! TD*
G04 #@! TA.AperFunction,ComponentPad*
%ADD40RoundRect,0.249999X-1.025001X-1.025001X1.025001X-1.025001X1.025001X1.025001X-1.025001X1.025001X0*%
G04 #@! TD*
G04 #@! TA.AperFunction,SMDPad,CuDef*
%ADD41RoundRect,0.200000X0.200000X0.275000X-0.200000X0.275000X-0.200000X-0.275000X0.200000X-0.275000X0*%
G04 #@! TD*
G04 #@! TA.AperFunction,SMDPad,CuDef*
%ADD42RoundRect,0.250000X0.475000X-0.250000X0.475000X0.250000X-0.475000X0.250000X-0.475000X-0.250000X0*%
G04 #@! TD*
G04 #@! TA.AperFunction,SMDPad,CuDef*
%ADD43RoundRect,0.243750X0.456250X-0.243750X0.456250X0.243750X-0.456250X0.243750X-0.456250X-0.243750X0*%
G04 #@! TD*
G04 #@! TA.AperFunction,SMDPad,CuDef*
%ADD44R,1.500000X0.900000*%
G04 #@! TD*
G04 #@! TA.AperFunction,SMDPad,CuDef*
%ADD45R,0.900000X0.900000*%
G04 #@! TD*
G04 #@! TA.AperFunction,ViaPad*
%ADD46C,0.450000*%
G04 #@! TD*
G04 #@! TA.AperFunction,Conductor*
%ADD47C,0.300000*%
G04 #@! TD*
G04 #@! TA.AperFunction,Conductor*
%ADD48C,0.500000*%
G04 #@! TD*
G04 #@! TA.AperFunction,Conductor*
%ADD49C,0.250000*%
G04 #@! TD*
G04 #@! TA.AperFunction,Conductor*
%ADD50C,0.200000*%
G04 #@! TD*
G04 APERTURE END LIST*
D10*
X102200000Y-119925000D03*
X102200000Y-121475000D03*
D11*
X103810000Y-83100000D03*
X102260000Y-83100000D03*
D12*
X115750000Y-114600000D03*
X117300000Y-114600000D03*
D13*
X124212500Y-110000000D03*
X126087500Y-110000000D03*
D14*
X103800000Y-119875000D03*
X103800000Y-121525000D03*
X113600000Y-83775000D03*
X113600000Y-85425000D03*
D15*
X101700000Y-71250000D03*
X101700000Y-69600000D03*
D12*
X96200000Y-69000000D03*
X97750000Y-69000000D03*
D16*
X97650000Y-118100000D03*
X99550000Y-118100000D03*
D17*
X136900000Y-97775000D03*
D18*
X136900000Y-95235000D03*
D19*
X120975000Y-86200000D03*
X122625000Y-86200000D03*
D20*
X99830000Y-81000000D03*
X101100000Y-81000000D03*
X102370000Y-81000000D03*
X103640000Y-81000000D03*
X103640000Y-76050000D03*
X102370000Y-76050000D03*
X101100000Y-76050000D03*
X99830000Y-76050000D03*
D21*
X101735000Y-78525000D03*
D22*
X123450000Y-97000000D03*
X122950000Y-97000000D03*
X122450000Y-97000000D03*
X121950000Y-97000000D03*
X121450000Y-97000000D03*
X120950000Y-97000000D03*
X120450000Y-97000000D03*
X119950000Y-97000000D03*
X119450000Y-97000000D03*
X118950000Y-97000000D03*
X118450000Y-97000000D03*
X117950000Y-97000000D03*
X117450000Y-97000000D03*
X116950000Y-97000000D03*
X116450000Y-97000000D03*
X115950000Y-97000000D03*
X115450000Y-97000000D03*
X114950000Y-97000000D03*
X114450000Y-97000000D03*
X113950000Y-97000000D03*
X113450000Y-97000000D03*
X112950000Y-97000000D03*
X112450000Y-97000000D03*
X111950000Y-97000000D03*
X111450000Y-97000000D03*
X110950000Y-97000000D03*
D23*
X125350000Y-93750000D03*
X109050000Y-93750000D03*
D24*
X105750000Y-126575000D03*
X105750000Y-118625000D03*
X110250000Y-126575000D03*
X110250000Y-118625000D03*
D25*
X98100000Y-104300000D03*
X100400000Y-104300000D03*
D26*
X100400000Y-98000000D03*
D25*
X102700000Y-104300000D03*
D27*
X96025000Y-84380000D03*
X96675000Y-84380000D03*
X97325000Y-84380000D03*
X97975000Y-84380000D03*
X97975000Y-78620000D03*
X97325000Y-78620000D03*
X96675000Y-78620000D03*
X96025000Y-78620000D03*
D17*
X136900000Y-117700000D03*
D18*
X136900000Y-115160000D03*
X136900000Y-112620000D03*
X136900000Y-110080000D03*
D28*
X117337500Y-89150000D03*
X117337500Y-87250000D03*
X115462500Y-88200000D03*
D15*
X115400000Y-100625000D03*
X115400000Y-98975000D03*
D19*
X120975000Y-84000000D03*
X122625000Y-84000000D03*
D29*
X96050000Y-74800000D03*
X97000000Y-74800000D03*
X97950000Y-74800000D03*
X97950000Y-72200000D03*
X97000000Y-72200000D03*
X96050000Y-72200000D03*
D30*
X114600000Y-120262500D03*
X114600000Y-118137500D03*
D16*
X97650000Y-106800000D03*
X99550000Y-106800000D03*
D31*
X99000000Y-61000000D03*
D32*
X99000000Y-61000000D03*
D25*
X98100000Y-115600000D03*
X100400000Y-115600000D03*
D26*
X100400000Y-109300000D03*
D25*
X102700000Y-115600000D03*
D11*
X103810000Y-84700000D03*
X102260000Y-84700000D03*
D13*
X124262500Y-84000000D03*
X126137500Y-84000000D03*
D33*
X103150000Y-106800000D03*
X101250000Y-106800000D03*
D14*
X113600000Y-87375000D03*
X113600000Y-89025000D03*
D34*
X114000000Y-122100000D03*
X114800000Y-122100000D03*
D35*
X115950000Y-122100000D03*
X116950000Y-122100000D03*
X117450000Y-122100000D03*
X118450000Y-122100000D03*
D34*
X119600000Y-122100000D03*
X120400000Y-122100000D03*
X120400000Y-122100000D03*
X119600000Y-122100000D03*
D35*
X118950000Y-122100000D03*
X117950000Y-122100000D03*
X116450000Y-122100000D03*
X115450000Y-122100000D03*
D34*
X114800000Y-122100000D03*
X114000000Y-122100000D03*
D36*
X112880000Y-122675000D03*
D37*
X112880000Y-126855000D03*
D36*
X121520000Y-122675000D03*
D37*
X121520000Y-126855000D03*
D38*
X117000000Y-100575000D03*
X117000000Y-99025000D03*
D15*
X116400000Y-120025000D03*
X116400000Y-118375000D03*
D13*
X124212500Y-107800000D03*
X126087500Y-107800000D03*
D14*
X113800000Y-98975000D03*
X113800000Y-100625000D03*
D19*
X119600000Y-118400000D03*
X121250000Y-118400000D03*
D38*
X106700000Y-60075000D03*
X106700000Y-58525000D03*
D13*
X124262500Y-88600000D03*
X126137500Y-88600000D03*
D17*
X136900000Y-83000000D03*
D18*
X136900000Y-80460000D03*
X136900000Y-77920000D03*
X136900000Y-75380000D03*
X136900000Y-72840000D03*
X136900000Y-70300000D03*
D19*
X120975000Y-88600000D03*
X122625000Y-88600000D03*
D39*
X121400000Y-105400000D03*
X120750000Y-105400000D03*
X120100000Y-105400000D03*
X119450000Y-105400000D03*
X118800000Y-105400000D03*
X118150000Y-105400000D03*
X117500000Y-105400000D03*
X116850000Y-105400000D03*
X116200000Y-105400000D03*
X115550000Y-105400000D03*
X114900000Y-105400000D03*
X114250000Y-105400000D03*
X113600000Y-105400000D03*
X112950000Y-105400000D03*
X112950000Y-112600000D03*
X113600000Y-112600000D03*
X114250000Y-112600000D03*
X114900000Y-112600000D03*
X115550000Y-112600000D03*
X116200000Y-112600000D03*
X116850000Y-112600000D03*
X117500000Y-112600000D03*
X118150000Y-112600000D03*
X118800000Y-112600000D03*
X119450000Y-112600000D03*
X120100000Y-112600000D03*
X120750000Y-112600000D03*
X121400000Y-112600000D03*
D40*
X136900000Y-66400000D03*
D12*
X96225000Y-70500000D03*
X97775000Y-70500000D03*
D15*
X103300000Y-71250000D03*
X103300000Y-69600000D03*
D11*
X119175000Y-102200000D03*
X117625000Y-102200000D03*
D16*
X115600000Y-116400000D03*
X117500000Y-116400000D03*
D31*
X135000000Y-126000000D03*
D32*
X135000000Y-126000000D03*
D31*
X135000000Y-61000000D03*
D32*
X135000000Y-61000000D03*
D14*
X126150000Y-112575000D03*
X126150000Y-114225000D03*
D40*
X97000000Y-66200000D03*
D15*
X100000000Y-71225000D03*
X100000000Y-69575000D03*
D38*
X102525000Y-64000000D03*
X102525000Y-62450000D03*
X120000000Y-100575000D03*
X120000000Y-99025000D03*
D33*
X103150000Y-95500000D03*
X101250000Y-95500000D03*
D41*
X129525000Y-62030000D03*
X127875000Y-62030000D03*
D13*
X124262500Y-86200000D03*
X126137500Y-86200000D03*
D31*
X99000000Y-126000000D03*
D32*
X99000000Y-126000000D03*
D14*
X100535000Y-83075000D03*
X100535000Y-84725000D03*
D41*
X129525000Y-63800000D03*
X127875000Y-63800000D03*
D33*
X103150000Y-118100000D03*
X101250000Y-118100000D03*
D28*
X117337500Y-85550000D03*
X117337500Y-83650000D03*
X115462500Y-84600000D03*
D42*
X104700000Y-60450000D03*
X104700000Y-58550000D03*
D25*
X98100000Y-93050000D03*
X100400000Y-93050000D03*
D26*
X100400000Y-86750000D03*
D25*
X102700000Y-93050000D03*
D14*
X124350000Y-112575000D03*
X124350000Y-114225000D03*
D41*
X97925000Y-76600000D03*
X96275000Y-76600000D03*
D12*
X119625000Y-120000000D03*
X121175000Y-120000000D03*
D43*
X101500000Y-67637500D03*
X101500000Y-65762500D03*
D16*
X97650000Y-95500000D03*
X99550000Y-95500000D03*
D14*
X104125000Y-62375000D03*
X104125000Y-64025000D03*
D10*
X112200000Y-99025000D03*
X112200000Y-100575000D03*
D43*
X103600000Y-67637500D03*
X103600000Y-65762500D03*
D44*
X108450000Y-58490000D03*
X108450000Y-59760000D03*
X108450000Y-61030000D03*
X108450000Y-62300000D03*
X108450000Y-63570000D03*
X108450000Y-64840000D03*
X108450000Y-66110000D03*
X108450000Y-67380000D03*
X108450000Y-68650000D03*
X108450000Y-69920000D03*
X108450000Y-71190000D03*
X108450000Y-72460000D03*
X108450000Y-73730000D03*
X108450000Y-75000000D03*
X108450000Y-76270000D03*
X108450000Y-77540000D03*
X108450000Y-78810000D03*
X108450000Y-80080000D03*
X108450000Y-81350000D03*
X125950000Y-81350000D03*
X125950000Y-80080000D03*
X125950000Y-78810000D03*
X125950000Y-77540000D03*
X125950000Y-76270000D03*
X125950000Y-75000000D03*
X125950000Y-73730000D03*
X125950000Y-72460000D03*
X125950000Y-71190000D03*
X125950000Y-69920000D03*
X125950000Y-68650000D03*
X125950000Y-67380000D03*
X125950000Y-66110000D03*
X125950000Y-64840000D03*
X125950000Y-63570000D03*
X125950000Y-62300000D03*
X125950000Y-61030000D03*
X125950000Y-59760000D03*
X125950000Y-58490000D03*
D45*
X114300000Y-64890000D03*
X115700000Y-64890000D03*
X117100000Y-64890000D03*
X114300000Y-66290000D03*
X115700000Y-66290000D03*
X117100000Y-66290000D03*
X114300000Y-67690000D03*
X115700000Y-67690000D03*
X117100000Y-67690000D03*
D46*
X103700000Y-78500000D03*
X123600000Y-83300000D03*
X120000000Y-115000000D03*
X110000000Y-76200000D03*
X111300000Y-95600000D03*
X116000000Y-111000000D03*
X109300000Y-126700000D03*
X117700000Y-64900000D03*
X100700000Y-110800000D03*
X112000000Y-95600000D03*
X127400000Y-58500000D03*
X117500000Y-107100000D03*
X112900000Y-83900000D03*
X103800000Y-59000000D03*
X116500000Y-117650000D03*
X117100000Y-68500000D03*
X117500000Y-117700000D03*
X100600000Y-99400000D03*
X109200000Y-119100000D03*
X97600000Y-68200000D03*
X119900000Y-101200000D03*
X102800000Y-61700000D03*
X116300000Y-87100000D03*
X117700000Y-66300000D03*
X118700000Y-98300000D03*
X117800000Y-100200000D03*
X97300000Y-85600000D03*
X114300000Y-64200000D03*
X115700000Y-64100000D03*
X115700000Y-68500000D03*
X113600000Y-121100000D03*
X118300000Y-83500000D03*
X100600000Y-102800000D03*
X112400000Y-101400000D03*
X96600000Y-80000000D03*
X100000000Y-88200000D03*
X122100000Y-118600000D03*
X100600000Y-114300000D03*
X114300000Y-68500000D03*
X101100000Y-91800000D03*
X112900000Y-87500000D03*
X113600000Y-66300000D03*
X96100000Y-73200000D03*
X100100000Y-67900000D03*
X103600000Y-74100000D03*
X97600000Y-86800000D03*
X114800000Y-123400000D03*
X113000000Y-120000000D03*
X106400000Y-106400000D03*
X110100000Y-116700000D03*
X106400000Y-102000000D03*
X114800000Y-126000000D03*
X113500000Y-101400000D03*
X98300000Y-114300000D03*
X117800000Y-99300000D03*
X120300000Y-88500000D03*
X103900000Y-61700000D03*
X120300000Y-83800000D03*
X120300000Y-86100000D03*
X103800000Y-60000000D03*
X102000000Y-91800000D03*
X98200000Y-102900000D03*
X114600000Y-101600000D03*
X117000000Y-93500000D03*
X111500000Y-93900000D03*
X112400000Y-85400000D03*
X118100000Y-103400000D03*
X118100000Y-108900000D03*
X120600000Y-103400000D03*
X105700000Y-70500000D03*
X104900000Y-116800000D03*
X104700000Y-120500000D03*
X131500000Y-91300000D03*
X134700000Y-91300000D03*
X117600000Y-110800000D03*
X123000000Y-110000000D03*
X135600000Y-90100000D03*
X123900000Y-80200000D03*
X123900000Y-79000000D03*
X135700000Y-80460000D03*
X110000000Y-77600000D03*
X135700000Y-77900000D03*
X135600000Y-75380000D03*
X110000000Y-73800000D03*
X135700000Y-72840000D03*
X127700000Y-72800000D03*
X106800000Y-68700000D03*
X135600000Y-70300000D03*
X127300000Y-93200000D03*
X130000000Y-89500000D03*
X128700000Y-89500000D03*
X128700000Y-92200000D03*
X123800000Y-93700000D03*
X121400000Y-79600000D03*
X123374503Y-92100000D03*
X121300000Y-82000000D03*
X122500000Y-92100000D03*
X119300000Y-78900000D03*
X118400000Y-78900000D03*
X120900000Y-91300000D03*
X115100000Y-80600000D03*
X120000000Y-91300000D03*
X118300000Y-92400000D03*
X116000000Y-92400000D03*
X115100000Y-93500000D03*
X115100000Y-81900000D03*
X123600000Y-62200000D03*
X123600000Y-63500000D03*
X132000000Y-109200000D03*
X132000000Y-106400000D03*
X102400000Y-74100000D03*
X102400000Y-72200000D03*
X101100000Y-72200000D03*
X101100000Y-74100000D03*
D47*
X118950000Y-98050000D02*
X118700000Y-98300000D01*
D48*
X97750000Y-69000000D02*
X97750000Y-70575000D01*
D49*
X114900000Y-111475000D02*
X115375000Y-111000000D01*
D47*
X116850000Y-112600000D02*
X116850000Y-114150000D01*
X111450000Y-95750000D02*
X111450000Y-97000000D01*
X113600000Y-66300000D02*
X113929340Y-66300000D01*
D48*
X100400000Y-105950000D02*
X99550000Y-106800000D01*
X115400000Y-100625000D02*
X116950000Y-100625000D01*
X99550000Y-95500000D02*
X99550000Y-97150000D01*
X117000000Y-100575000D02*
X117425000Y-100575000D01*
X124262500Y-83962500D02*
X123600000Y-83300000D01*
X113600000Y-83775000D02*
X113025000Y-83775000D01*
X101250000Y-106800000D02*
X100400000Y-105950000D01*
X96050000Y-73150000D02*
X96100000Y-73200000D01*
X106735000Y-58490000D02*
X106700000Y-58525000D01*
X102525000Y-62450000D02*
X102525000Y-61975000D01*
X108415000Y-58525000D02*
X108450000Y-58490000D01*
X121900000Y-118400000D02*
X122100000Y-118600000D01*
D47*
X117470660Y-64900000D02*
X117410660Y-64840000D01*
D48*
X100560000Y-84700000D02*
X100535000Y-84725000D01*
X113025000Y-83775000D02*
X112900000Y-83900000D01*
X99550000Y-108450000D02*
X100400000Y-109300000D01*
D47*
X113600000Y-87375000D02*
X113025000Y-87375000D01*
D48*
X100400000Y-110500000D02*
X100700000Y-110800000D01*
X101735000Y-78525000D02*
X103675000Y-78525000D01*
D47*
X114300000Y-64200000D02*
X114250000Y-64579340D01*
D48*
X99550000Y-97150000D02*
X100400000Y-98000000D01*
X120000000Y-101100000D02*
X119900000Y-101200000D01*
D47*
X117300000Y-103731371D02*
X117500000Y-103931371D01*
D48*
X120000000Y-100575000D02*
X120000000Y-101100000D01*
X102370000Y-79160000D02*
X102370000Y-81000000D01*
X99830000Y-80430000D02*
X99830000Y-81000000D01*
X121250000Y-118400000D02*
X121250000Y-119925000D01*
D47*
X116850000Y-114150000D02*
X117300000Y-114600000D01*
D48*
X101735000Y-78525000D02*
X102370000Y-79160000D01*
X100400000Y-99200000D02*
X100600000Y-99400000D01*
X100400000Y-115600000D02*
X100400000Y-114500000D01*
X100400000Y-94650000D02*
X100400000Y-93050000D01*
D47*
X117500000Y-103931371D02*
X117500000Y-105400000D01*
D48*
X109375000Y-126775000D02*
X109300000Y-126700000D01*
X97750000Y-68350000D02*
X97600000Y-68200000D01*
X100400000Y-114500000D02*
X100600000Y-114300000D01*
D49*
X115375000Y-111000000D02*
X116000000Y-111000000D01*
D47*
X118950000Y-97000000D02*
X118950000Y-98050000D01*
X110950000Y-97000000D02*
X111450000Y-97000000D01*
D48*
X100400000Y-105950000D02*
X100400000Y-104300000D01*
D47*
X117100000Y-68500000D02*
X117100000Y-68050660D01*
D48*
X99550000Y-106800000D02*
X99550000Y-108450000D01*
D47*
X96675000Y-84380000D02*
X97325000Y-84380000D01*
D48*
X100400000Y-94650000D02*
X101250000Y-95500000D01*
X100400000Y-92500000D02*
X101100000Y-91800000D01*
X104700000Y-58550000D02*
X104250000Y-58550000D01*
D47*
X97325000Y-84380000D02*
X97325000Y-85575000D01*
D48*
X100400000Y-104300000D02*
X100400000Y-103000000D01*
X109930000Y-76270000D02*
X110000000Y-76200000D01*
X103675000Y-78525000D02*
X103700000Y-78500000D01*
D47*
X119450000Y-114450000D02*
X120000000Y-115000000D01*
D48*
X106700000Y-58525000D02*
X108415000Y-58525000D01*
D47*
X117300000Y-102525000D02*
X117300000Y-103731371D01*
D48*
X112200000Y-101200000D02*
X112400000Y-101400000D01*
X109475000Y-118825000D02*
X109200000Y-119100000D01*
X108450000Y-76270000D02*
X109930000Y-76270000D01*
D47*
X117500000Y-105400000D02*
X117500000Y-107100000D01*
D48*
X102525000Y-61975000D02*
X102800000Y-61700000D01*
X112200000Y-100575000D02*
X112200000Y-101200000D01*
D50*
X117500000Y-116200000D02*
X117500000Y-117700000D01*
D48*
X100400000Y-87800000D02*
X100000000Y-88200000D01*
X116400000Y-117750000D02*
X116400000Y-118375000D01*
X118150000Y-83650000D02*
X118300000Y-83500000D01*
D47*
X115700000Y-68500000D02*
X115700000Y-68050660D01*
D48*
X106700000Y-58525000D02*
X104725000Y-58525000D01*
X100400000Y-84860000D02*
X100535000Y-84725000D01*
X100400000Y-117250000D02*
X100400000Y-115600000D01*
X100400000Y-86750000D02*
X100400000Y-87800000D01*
X100400000Y-109300000D02*
X100400000Y-110500000D01*
X100400000Y-103000000D02*
X100600000Y-102800000D01*
X108450000Y-75000000D02*
X108450000Y-76270000D01*
D47*
X97325000Y-78620000D02*
X96675000Y-78620000D01*
D48*
X104725000Y-58525000D02*
X104700000Y-58550000D01*
X100400000Y-93050000D02*
X100400000Y-92500000D01*
X114000000Y-121500000D02*
X113600000Y-121100000D01*
X99550000Y-118100000D02*
X100400000Y-117250000D01*
D49*
X114900000Y-112600000D02*
X114900000Y-111475000D01*
D47*
X114300000Y-68050660D02*
X114250000Y-68000660D01*
D48*
X117337500Y-83650000D02*
X118150000Y-83650000D01*
D47*
X115700000Y-64100000D02*
X115700000Y-64529340D01*
X114300000Y-64529340D02*
X114300000Y-64200000D01*
X119450000Y-112600000D02*
X119450000Y-114450000D01*
D48*
X110250000Y-118825000D02*
X109475000Y-118825000D01*
D47*
X112000000Y-95600000D02*
X112450000Y-96050000D01*
D48*
X120400000Y-122100000D02*
X120400000Y-120775000D01*
X100400000Y-117250000D02*
X101250000Y-118100000D01*
X100400000Y-86750000D02*
X100400000Y-84860000D01*
X101250000Y-118975000D02*
X102200000Y-119925000D01*
X110250000Y-126775000D02*
X109375000Y-126775000D01*
X102260000Y-84700000D02*
X100560000Y-84700000D01*
D47*
X113025000Y-87375000D02*
X112900000Y-87500000D01*
D48*
X97750000Y-70575000D02*
X97775000Y-70600000D01*
X99550000Y-95500000D02*
X100400000Y-94650000D01*
X116500000Y-117650000D02*
X116400000Y-117750000D01*
X100400000Y-92400000D02*
X100400000Y-93050000D01*
D47*
X111300000Y-95600000D02*
X111450000Y-95750000D01*
D48*
X125950000Y-58490000D02*
X127390000Y-58490000D01*
D47*
X97325000Y-85575000D02*
X97300000Y-85600000D01*
D48*
X97750000Y-69000000D02*
X97750000Y-68350000D01*
X96050000Y-72300000D02*
X96050000Y-73150000D01*
D47*
X96675000Y-78620000D02*
X96675000Y-77000000D01*
X112450000Y-96050000D02*
X112450000Y-97000000D01*
X117337500Y-87250000D02*
X116450000Y-87250000D01*
X96675000Y-79925000D02*
X96600000Y-80000000D01*
X117300000Y-116000000D02*
X117500000Y-116200000D01*
D48*
X114000000Y-122100000D02*
X114000000Y-121500000D01*
X124262500Y-84000000D02*
X124262500Y-83962500D01*
D47*
X117700000Y-66300000D02*
X117470660Y-66300000D01*
D48*
X100400000Y-98000000D02*
X100400000Y-99200000D01*
D47*
X114300000Y-68500000D02*
X114300000Y-68050660D01*
X117625000Y-102200000D02*
X117300000Y-102525000D01*
X96675000Y-77000000D02*
X96275000Y-76600000D01*
D48*
X116950000Y-100625000D02*
X117000000Y-100575000D01*
X121250000Y-118400000D02*
X121900000Y-118400000D01*
X124262500Y-84000000D02*
X124262500Y-84037500D01*
D47*
X117700000Y-64900000D02*
X117470660Y-64900000D01*
D48*
X127390000Y-58490000D02*
X127400000Y-58500000D01*
X117425000Y-100575000D02*
X117800000Y-100200000D01*
X104250000Y-58550000D02*
X103800000Y-59000000D01*
X120400000Y-120775000D02*
X121175000Y-120000000D01*
X102260000Y-84700000D02*
X102260000Y-83100000D01*
X121250000Y-119925000D02*
X121175000Y-120000000D01*
D47*
X117100000Y-68050660D02*
X117150000Y-68000660D01*
X116450000Y-87250000D02*
X116300000Y-87100000D01*
D48*
X101735000Y-78525000D02*
X99830000Y-80430000D01*
D47*
X117300000Y-114600000D02*
X117300000Y-116000000D01*
D50*
X114300000Y-66290000D02*
X115700000Y-66290000D01*
D47*
X96675000Y-78620000D02*
X96675000Y-79925000D01*
D48*
X101250000Y-118100000D02*
X101250000Y-118975000D01*
X103640000Y-76050000D02*
X103640000Y-74140000D01*
X97000000Y-66200000D02*
X100000000Y-69200000D01*
X96200000Y-67000000D02*
X97000000Y-66200000D01*
X96200000Y-69000000D02*
X96200000Y-67000000D01*
X97650000Y-93500000D02*
X98100000Y-93050000D01*
X98100000Y-93050000D02*
X97600000Y-92550000D01*
X97600000Y-92550000D02*
X97600000Y-86800000D01*
X100100000Y-67900000D02*
X100100000Y-69475000D01*
X100000000Y-69200000D02*
X100000000Y-69575000D01*
X103640000Y-74140000D02*
X103600000Y-74100000D01*
X100100000Y-69475000D02*
X100000000Y-69575000D01*
X98100000Y-93050000D02*
X98100000Y-95050000D01*
X98100000Y-95050000D02*
X97650000Y-95500000D01*
X104700000Y-79940000D02*
X104700000Y-72500000D01*
X123875000Y-114225000D02*
X120400000Y-117700000D01*
D47*
X114600000Y-120262500D02*
X114600000Y-120062500D01*
D48*
X118700000Y-126000000D02*
X114800000Y-126000000D01*
X103600000Y-65762500D02*
X104262500Y-65762500D01*
X119600000Y-125100000D02*
X118700000Y-126000000D01*
X104262500Y-65762500D02*
X104700000Y-66200000D01*
X103810000Y-88410000D02*
X106400000Y-91000000D01*
X103640000Y-81000000D02*
X104700000Y-79940000D01*
X103810000Y-83100000D02*
X103810000Y-84700000D01*
X120400000Y-119225000D02*
X119625000Y-120000000D01*
X114362500Y-120062500D02*
X114600000Y-120062500D01*
X114800000Y-122100000D02*
X114800000Y-120262500D01*
X119625000Y-122075000D02*
X119600000Y-122100000D01*
X108300000Y-116400000D02*
X108600000Y-116700000D01*
X113000000Y-120000000D02*
X114337500Y-120000000D01*
X104000000Y-73200000D02*
X100500000Y-73200000D01*
X119600000Y-122100000D02*
X119600000Y-125100000D01*
X106400000Y-114500000D02*
X106400000Y-106400000D01*
X129525000Y-117600000D02*
X136800000Y-117600000D01*
X114800000Y-123400000D02*
X114800000Y-122100000D01*
X108600000Y-116700000D02*
X110100000Y-116700000D01*
X99830000Y-73870000D02*
X99830000Y-76050000D01*
X124350000Y-114225000D02*
X126150000Y-114225000D01*
X108300000Y-116400000D02*
X106400000Y-114500000D01*
X120400000Y-117700000D02*
X120400000Y-119225000D01*
X124350000Y-114225000D02*
X123875000Y-114225000D01*
X119625000Y-120000000D02*
X119625000Y-122075000D01*
X136800000Y-117600000D02*
X136900000Y-117700000D01*
X103640000Y-81000000D02*
X103640000Y-82930000D01*
X104700000Y-72500000D02*
X104000000Y-73200000D01*
X104700000Y-66200000D02*
X104700000Y-72500000D01*
X103810000Y-84700000D02*
X103810000Y-88410000D01*
X101500000Y-65762500D02*
X103600000Y-65762500D01*
X114337500Y-120000000D02*
X114600000Y-120262500D01*
X103640000Y-82930000D02*
X103810000Y-83100000D01*
X126150000Y-114225000D02*
X129525000Y-117600000D01*
X100500000Y-73200000D02*
X99830000Y-73870000D01*
X106400000Y-91000000D02*
X106400000Y-102000000D01*
X98100000Y-117650000D02*
X97650000Y-118100000D01*
X113800000Y-101100000D02*
X113500000Y-101400000D01*
X102700000Y-92500000D02*
X102000000Y-91800000D01*
D47*
X116950000Y-98975000D02*
X117000000Y-99025000D01*
D48*
X98100000Y-104300000D02*
X98100000Y-103000000D01*
X98100000Y-106350000D02*
X97650000Y-106800000D01*
X106700000Y-60075000D02*
X105075000Y-60075000D01*
X105075000Y-60075000D02*
X104700000Y-60450000D01*
X98100000Y-103000000D02*
X98200000Y-102900000D01*
X120400000Y-86200000D02*
X120300000Y-86100000D01*
X104125000Y-62375000D02*
X104125000Y-61925000D01*
X102700000Y-93050000D02*
X102700000Y-92500000D01*
X98100000Y-114500000D02*
X98300000Y-114300000D01*
X120500000Y-84000000D02*
X120300000Y-83800000D01*
X120975000Y-84000000D02*
X120500000Y-84000000D01*
D47*
X120400000Y-88600000D02*
X120300000Y-88500000D01*
D48*
X104250000Y-60450000D02*
X103800000Y-60000000D01*
X102700000Y-93050000D02*
X102700000Y-95050000D01*
X104125000Y-61925000D02*
X103900000Y-61700000D01*
X98100000Y-115600000D02*
X98100000Y-117650000D01*
D47*
X116950000Y-97000000D02*
X116950000Y-98975000D01*
D48*
X104700000Y-60450000D02*
X104250000Y-60450000D01*
D47*
X120975000Y-88600000D02*
X120400000Y-88600000D01*
D48*
X108450000Y-59760000D02*
X107015000Y-59760000D01*
X113800000Y-100625000D02*
X113800000Y-101100000D01*
X98100000Y-115600000D02*
X98100000Y-114500000D01*
X120975000Y-86200000D02*
X120400000Y-86200000D01*
X117000000Y-99025000D02*
X117525000Y-99025000D01*
X102700000Y-95050000D02*
X103150000Y-95500000D01*
X117525000Y-99025000D02*
X117800000Y-99300000D01*
X107015000Y-59760000D02*
X106700000Y-60075000D01*
X98100000Y-104300000D02*
X98100000Y-106350000D01*
D47*
X109300000Y-102200000D02*
X104700000Y-106800000D01*
X117337500Y-92237500D02*
X117337500Y-89150000D01*
X116450000Y-93500000D02*
X117000000Y-93500000D01*
X104700000Y-113600000D02*
X102700000Y-115600000D01*
D48*
X102700000Y-117650000D02*
X103150000Y-118100000D01*
D47*
X116450000Y-93500000D02*
X116450000Y-93125000D01*
X114000000Y-102200000D02*
X109300000Y-102200000D01*
D48*
X102700000Y-115600000D02*
X102700000Y-117650000D01*
D47*
X116450000Y-93125000D02*
X117337500Y-92237500D01*
X104700000Y-106800000D02*
X104700000Y-113600000D01*
X116450000Y-97000000D02*
X116450000Y-93500000D01*
X117337500Y-89150000D02*
X113725000Y-89150000D01*
X114600000Y-101600000D02*
X114000000Y-102200000D01*
X113725000Y-89150000D02*
X113600000Y-89025000D01*
D48*
X114600000Y-117937500D02*
X114600000Y-117200000D01*
X115600000Y-114750000D02*
X115750000Y-114600000D01*
X114800000Y-117200000D02*
X115600000Y-116400000D01*
D47*
X116200000Y-114150000D02*
X115750000Y-114600000D01*
D48*
X115600000Y-116400000D02*
X115600000Y-114750000D01*
D47*
X116200000Y-112600000D02*
X116200000Y-114150000D01*
X114600000Y-118137500D02*
X114600000Y-117937500D01*
D48*
X114600000Y-117200000D02*
X114800000Y-117200000D01*
D47*
X112400000Y-85400000D02*
X113575000Y-85400000D01*
X113725000Y-85550000D02*
X113600000Y-85425000D01*
X105700000Y-104300000D02*
X102700000Y-104300000D01*
X111900000Y-98100000D02*
X105700000Y-104300000D01*
X113400000Y-98100000D02*
X111900000Y-98100000D01*
X112400000Y-93900000D02*
X111500000Y-93900000D01*
X117337500Y-85550000D02*
X113725000Y-85550000D01*
D48*
X102700000Y-106350000D02*
X103150000Y-106800000D01*
D47*
X113575000Y-85400000D02*
X113600000Y-85425000D01*
X113450000Y-94950000D02*
X112400000Y-93900000D01*
X113450000Y-97000000D02*
X113450000Y-94950000D01*
X113450000Y-98050000D02*
X113450000Y-97000000D01*
D48*
X102700000Y-104300000D02*
X102700000Y-106350000D01*
D47*
X113400000Y-98100000D02*
X113450000Y-98050000D01*
X119450000Y-104350000D02*
X120400000Y-103400000D01*
X117550000Y-108350000D02*
X118100000Y-108900000D01*
X120400000Y-103400000D02*
X120600000Y-103400000D01*
X119450000Y-105400000D02*
X119450000Y-104350000D01*
X114250000Y-110750000D02*
X114250000Y-112600000D01*
X116650000Y-108350000D02*
X114250000Y-110750000D01*
X119450000Y-105400000D02*
X119450000Y-106450000D01*
D50*
X118100000Y-103275000D02*
X119175000Y-102200000D01*
D47*
X117550000Y-108350000D02*
X116650000Y-108350000D01*
D50*
X118100000Y-103400000D02*
X118100000Y-103275000D01*
D47*
X119450000Y-106450000D02*
X117550000Y-108350000D01*
X104575000Y-64025000D02*
X104125000Y-64025000D01*
X104900000Y-116800000D02*
X104300000Y-117400000D01*
X105000000Y-63600000D02*
X104575000Y-64025000D01*
X102550000Y-64025000D02*
X102525000Y-64000000D01*
X104125000Y-64025000D02*
X105700000Y-65600000D01*
X105970000Y-61030000D02*
X105000000Y-62000000D01*
X108450000Y-61030000D02*
X105970000Y-61030000D01*
X104125000Y-64025000D02*
X102550000Y-64025000D01*
X104075000Y-119875000D02*
X104700000Y-120500000D01*
X105700000Y-65600000D02*
X105700000Y-70500000D01*
X104300000Y-119375000D02*
X103800000Y-119875000D01*
X105000000Y-62000000D02*
X105000000Y-63600000D01*
X104300000Y-117400000D02*
X104300000Y-119375000D01*
X103800000Y-119875000D02*
X104075000Y-119875000D01*
X119950000Y-97000000D02*
X119950000Y-98975000D01*
X119950000Y-98975000D02*
X120000000Y-99025000D01*
X131500000Y-91300000D02*
X121700000Y-91300000D01*
X134700000Y-65925000D02*
X130600000Y-61825000D01*
X130600000Y-61825000D02*
X130600000Y-61030000D01*
X121700000Y-91300000D02*
X121700000Y-93100000D01*
X134700000Y-91300000D02*
X134700000Y-65925000D01*
X119950000Y-94850000D02*
X119950000Y-97000000D01*
X130600000Y-61030000D02*
X125950000Y-61030000D01*
X121700000Y-93100000D02*
X119950000Y-94850000D01*
X124262500Y-88600000D02*
X123062500Y-87400000D01*
X123062500Y-87400000D02*
X119400000Y-87400000D01*
X118600000Y-88200000D02*
X115462500Y-88200000D01*
X119400000Y-87400000D02*
X118600000Y-88200000D01*
D49*
X112200000Y-99025000D02*
X113750000Y-99025000D01*
X114450000Y-98325000D02*
X114450000Y-97000000D01*
X113750000Y-99025000D02*
X113800000Y-98975000D01*
X113800000Y-98975000D02*
X114450000Y-98325000D01*
D47*
X97000000Y-72200000D02*
X97000000Y-71375000D01*
X99950000Y-71275000D02*
X96900000Y-71275000D01*
X100000000Y-71225000D02*
X99950000Y-71275000D01*
X97000000Y-71375000D02*
X96712500Y-71087500D01*
X96900000Y-71275000D02*
X96712500Y-71087500D01*
X96712500Y-71087500D02*
X96225000Y-70600000D01*
X125300000Y-89900000D02*
X126137500Y-89062500D01*
X126137500Y-89062500D02*
X126137500Y-88600000D01*
X122625000Y-89025000D02*
X123500000Y-89900000D01*
X123500000Y-89900000D02*
X125300000Y-89900000D01*
X122625000Y-88600000D02*
X122625000Y-89025000D01*
X118400000Y-84600000D02*
X115462500Y-84600000D01*
X123062500Y-85000000D02*
X118800000Y-85000000D01*
X124262500Y-86200000D02*
X123062500Y-85000000D01*
X118800000Y-85000000D02*
X118400000Y-84600000D01*
X124937500Y-87400000D02*
X123825000Y-87400000D01*
X123825000Y-87400000D02*
X122625000Y-86200000D01*
X122625000Y-85975000D02*
X122625000Y-86200000D01*
X126137500Y-86200000D02*
X124937500Y-87400000D01*
X121900000Y-107800000D02*
X124212500Y-107800000D01*
X118150000Y-111550000D02*
X121900000Y-107800000D01*
X118150000Y-112600000D02*
X118150000Y-111550000D01*
X117500000Y-112600000D02*
X117500000Y-110900000D01*
X123000000Y-110000000D02*
X124212500Y-110000000D01*
X117500000Y-110900000D02*
X117600000Y-110800000D01*
X122625000Y-83143629D02*
X123268629Y-82500000D01*
X123268629Y-82500000D02*
X124800000Y-82500000D01*
X126137500Y-83837500D02*
X126137500Y-84000000D01*
X124800000Y-82500000D02*
X126137500Y-83837500D01*
X122625000Y-84000000D02*
X122625000Y-83143629D01*
X103800000Y-121525000D02*
X103800000Y-124825000D01*
X105375000Y-121525000D02*
X105750000Y-121150000D01*
X105750000Y-121150000D02*
X105750000Y-118825000D01*
X103800000Y-124825000D02*
X105750000Y-126775000D01*
D50*
X103750000Y-121475000D02*
X103800000Y-121525000D01*
X102200000Y-121475000D02*
X103750000Y-121475000D01*
D47*
X103800000Y-121525000D02*
X105375000Y-121525000D01*
X115950000Y-120475000D02*
X115950000Y-122100000D01*
X116400000Y-120025000D02*
X115950000Y-120475000D01*
X118950000Y-122100000D02*
X118950000Y-121492590D01*
X118950000Y-121492590D02*
X118875000Y-121417590D01*
X118875000Y-121417590D02*
X118875000Y-119125000D01*
X118875000Y-119125000D02*
X119600000Y-118400000D01*
D50*
X113039431Y-114942372D02*
X113039430Y-114942371D01*
X113050000Y-114012501D02*
X112950000Y-113912501D01*
X113050000Y-114931800D02*
X113050000Y-114012501D01*
X111921783Y-114673255D02*
X111921785Y-114673254D01*
X117950000Y-122100000D02*
X117950000Y-122962501D01*
X117950000Y-122962501D02*
X117425000Y-123487501D01*
X112950000Y-113912501D02*
X112950000Y-112600000D01*
X112206800Y-124625000D02*
X111475000Y-123893200D01*
X116693200Y-124625000D02*
X112206800Y-124625000D01*
X117425000Y-123893200D02*
X116693200Y-124625000D01*
X112190900Y-115366636D02*
X111921783Y-115097519D01*
X117425000Y-123487501D02*
X117425000Y-123893200D01*
X111475000Y-116506800D02*
X112190900Y-115790900D01*
X111475000Y-123893200D02*
X111475000Y-116506800D01*
X113039430Y-114942371D02*
X113050000Y-114931800D01*
X112346049Y-114673254D02*
X112615167Y-114942372D01*
X112190931Y-115790931D02*
G75*
G03*
X112190899Y-115366637I-212131J212131D01*
G01*
X112615168Y-114942371D02*
G75*
G03*
X113039430Y-114942371I212131J212131D01*
G01*
X111921796Y-114673268D02*
G75*
G03*
X111921783Y-115097519I212104J-212132D01*
G01*
X112346048Y-114673255D02*
G75*
G03*
X111921786Y-114673255I-212131J-212131D01*
G01*
X113600000Y-112600000D02*
X113600000Y-113912501D01*
X112225000Y-117643200D02*
X112616851Y-117643200D01*
X116975000Y-123706800D02*
X116975000Y-123487501D01*
X112861895Y-116734689D02*
X112584837Y-116457631D01*
X111925000Y-116693200D02*
X111925000Y-117343200D01*
X112393200Y-124175000D02*
X116506800Y-124175000D01*
X112160571Y-116457630D02*
X111925000Y-116693200D01*
X111925000Y-123706800D02*
X112393200Y-124175000D01*
X112616851Y-118243200D02*
X112225000Y-118243200D01*
X116506800Y-124175000D02*
X116975000Y-123706800D01*
X116975000Y-123487501D02*
X116450000Y-122962501D01*
X113009099Y-116033366D02*
X113286158Y-116310425D01*
X111925000Y-122793200D02*
X111925000Y-123706800D01*
X113286158Y-116734689D02*
X113286159Y-116734689D01*
X116450000Y-122962501D02*
X116450000Y-122100000D01*
X113500000Y-114012501D02*
X113500000Y-115118200D01*
X112160573Y-116457631D02*
X112160571Y-116457630D01*
X113009100Y-116033366D02*
X113009099Y-116033366D01*
X111925000Y-118543200D02*
X111925000Y-122793200D01*
X113600000Y-113912501D02*
X113500000Y-114012501D01*
X113500000Y-115118200D02*
X113009100Y-115609100D01*
X112916900Y-117943200D02*
G75*
G03*
X112616851Y-117643200I-300000J0D01*
G01*
X112861896Y-116734688D02*
G75*
G03*
X113286158Y-116734688I212131J212131D01*
G01*
X112225000Y-118243200D02*
G75*
G03*
X111925000Y-118543200I0J-300000D01*
G01*
X113286200Y-116734731D02*
G75*
G03*
X113286157Y-116310426I-212200J212131D01*
G01*
X112616851Y-118243151D02*
G75*
G03*
X112916851Y-117943200I49J299951D01*
G01*
X112584836Y-116457632D02*
G75*
G03*
X112160574Y-116457632I-212131J-212131D01*
G01*
X111925000Y-117343200D02*
G75*
G03*
X112225000Y-117643200I300000J0D01*
G01*
X113009067Y-115609067D02*
G75*
G03*
X113009100Y-116033366I212133J-212133D01*
G01*
D47*
X125950000Y-75000000D02*
X124900000Y-75000000D01*
X123100000Y-79400000D02*
X123900000Y-80200000D01*
X124900000Y-75000000D02*
X123100000Y-76800000D01*
X135600000Y-90100000D02*
X135600000Y-96475000D01*
X135600000Y-96475000D02*
X136900000Y-97775000D01*
X123100000Y-76800000D02*
X123100000Y-79400000D01*
X123900000Y-77270000D02*
X124900000Y-76270000D01*
X135700000Y-80460000D02*
X136900000Y-80460000D01*
X124900000Y-76270000D02*
X125950000Y-76270000D01*
X123900000Y-79000000D02*
X123900000Y-77270000D01*
X135700000Y-77900000D02*
X136880000Y-77900000D01*
X136880000Y-77900000D02*
X136900000Y-77920000D01*
X108510000Y-77600000D02*
X108450000Y-77540000D01*
X110000000Y-77600000D02*
X108510000Y-77600000D01*
X135600000Y-75380000D02*
X136900000Y-75380000D01*
X108520000Y-73800000D02*
X108450000Y-73730000D01*
X110000000Y-73800000D02*
X108520000Y-73800000D01*
X127700000Y-76840000D02*
X127000000Y-77540000D01*
X127000000Y-77540000D02*
X125950000Y-77540000D01*
X135700000Y-72840000D02*
X136900000Y-72840000D01*
X127700000Y-72800000D02*
X127700000Y-76840000D01*
X106800000Y-68700000D02*
X108400000Y-68700000D01*
X135600000Y-70300000D02*
X136900000Y-70300000D01*
X108400000Y-68700000D02*
X108450000Y-68650000D01*
X123800000Y-99900000D02*
X122450000Y-98550000D01*
X127400000Y-93300000D02*
X127400000Y-99000000D01*
X130000000Y-89500000D02*
X130000000Y-70600000D01*
X122450000Y-98550000D02*
X122450000Y-97000000D01*
X127300000Y-93200000D02*
X127400000Y-93300000D01*
X128050000Y-68650000D02*
X125950000Y-68650000D01*
X126500000Y-99900000D02*
X123800000Y-99900000D01*
X130000000Y-70600000D02*
X128050000Y-68650000D01*
X127400000Y-99000000D02*
X126500000Y-99900000D01*
X128800000Y-89400000D02*
X128800000Y-72240000D01*
X121950000Y-99950000D02*
X121950000Y-97000000D01*
X128800000Y-72240000D02*
X126480000Y-69920000D01*
X122800000Y-100800000D02*
X121950000Y-99950000D01*
X128700000Y-92200000D02*
X128700000Y-99400000D01*
X127300000Y-100800000D02*
X122800000Y-100800000D01*
X128700000Y-89500000D02*
X128800000Y-89400000D01*
X126480000Y-69920000D02*
X125950000Y-69920000D01*
X128700000Y-99400000D02*
X127300000Y-100800000D01*
X121850000Y-95700000D02*
X123500000Y-95700000D01*
X121450000Y-96100000D02*
X121850000Y-95700000D01*
X121450000Y-97000000D02*
X121450000Y-96100000D01*
X121300000Y-79500000D02*
X121300000Y-70980000D01*
X123800000Y-95400000D02*
X123800000Y-93700000D01*
X121300000Y-70980000D02*
X124900000Y-67380000D01*
X123500000Y-95700000D02*
X123800000Y-95400000D01*
X121400000Y-79600000D02*
X121300000Y-79500000D01*
X124900000Y-67380000D02*
X125950000Y-67380000D01*
X121300000Y-82000000D02*
X121300000Y-80900000D01*
X120950000Y-95650000D02*
X121600000Y-95000000D01*
X123000000Y-93368629D02*
X123374503Y-92994126D01*
X123374503Y-92994126D02*
X123374503Y-92100000D01*
X122900000Y-95000000D02*
X123000000Y-94900000D01*
X121300000Y-80900000D02*
X122200000Y-80000000D01*
X122200000Y-80000000D02*
X122200000Y-74900000D01*
X123000000Y-94900000D02*
X123000000Y-93368629D01*
X123370000Y-73730000D02*
X125950000Y-73730000D01*
X121600000Y-95000000D02*
X122900000Y-95000000D01*
X122200000Y-74900000D02*
X123370000Y-73730000D01*
X120950000Y-97000000D02*
X120950000Y-95650000D01*
X120450000Y-95250000D02*
X122500000Y-93200000D01*
X119400000Y-78800000D02*
X119400000Y-63400000D01*
X118300000Y-62300000D02*
X108450000Y-62300000D01*
X120450000Y-97000000D02*
X120450000Y-95250000D01*
X122500000Y-93200000D02*
X122500000Y-92100000D01*
X119400000Y-63400000D02*
X118300000Y-62300000D01*
X119300000Y-78900000D02*
X119400000Y-78800000D01*
X108450000Y-63570000D02*
X108820000Y-63200000D01*
X119450000Y-97000000D02*
X119450000Y-94586396D01*
X118500000Y-78800000D02*
X118400000Y-78900000D01*
X108820000Y-63200000D02*
X117600000Y-63200000D01*
X119450000Y-94586396D02*
X120900000Y-93136396D01*
X120900000Y-93136396D02*
X120900000Y-91300000D01*
X117600000Y-63200000D02*
X118500000Y-64100000D01*
X118500000Y-64100000D02*
X118500000Y-78800000D01*
X115100000Y-80600000D02*
X112800000Y-78300000D01*
X111540000Y-64840000D02*
X108450000Y-64840000D01*
X112800000Y-66100000D02*
X111540000Y-64840000D01*
X112800000Y-78300000D02*
X112800000Y-66100000D01*
X118450000Y-97000000D02*
X118450000Y-94950000D01*
X118450000Y-94950000D02*
X120000000Y-93400000D01*
X120000000Y-93400000D02*
X120000000Y-91300000D01*
X119100000Y-90400000D02*
X131200000Y-90400000D01*
X117950000Y-94650000D02*
X119100000Y-93500000D01*
X131200000Y-69000000D02*
X127040000Y-64840000D01*
X127040000Y-64840000D02*
X125950000Y-64840000D01*
X131200000Y-90400000D02*
X131200000Y-69000000D01*
X119100000Y-93500000D02*
X119100000Y-90400000D01*
X117950000Y-97000000D02*
X117950000Y-94650000D01*
X118300000Y-92400000D02*
X118300000Y-93331371D01*
X118300000Y-93331371D02*
X117450000Y-94181371D01*
X111600000Y-85068629D02*
X111800000Y-84868629D01*
X116000000Y-92400000D02*
X113900000Y-92400000D01*
X111800000Y-84868629D02*
X111800000Y-66900000D01*
X117450000Y-94181371D02*
X117450000Y-97000000D01*
X113900000Y-92400000D02*
X111600000Y-90100000D01*
X111800000Y-66900000D02*
X111010000Y-66110000D01*
X111600000Y-90100000D02*
X111600000Y-85068629D01*
X111010000Y-66110000D02*
X108450000Y-66110000D01*
X120400000Y-60200000D02*
X120840000Y-59760000D01*
X115100000Y-81900000D02*
X118000000Y-81900000D01*
X120400000Y-79500000D02*
X120400000Y-60200000D01*
X118000000Y-81900000D02*
X120400000Y-79500000D01*
X115950000Y-94350000D02*
X115100000Y-93500000D01*
X115950000Y-97000000D02*
X115950000Y-94350000D01*
X120840000Y-59760000D02*
X125950000Y-59760000D01*
D49*
X115400000Y-97050000D02*
X115450000Y-97000000D01*
X115400000Y-98975000D02*
X115400000Y-97050000D01*
D47*
X114950000Y-97000000D02*
X114950000Y-94650000D01*
X110220000Y-69920000D02*
X108450000Y-69920000D01*
X114950000Y-94650000D02*
X110800000Y-90500000D01*
X110800000Y-90500000D02*
X110800000Y-70500000D01*
X110800000Y-70500000D02*
X110220000Y-69920000D01*
X113950000Y-94750000D02*
X106700000Y-87500000D01*
X107240000Y-72460000D02*
X108450000Y-72460000D01*
X106700000Y-87500000D02*
X106700000Y-73000000D01*
X113950000Y-97000000D02*
X113950000Y-94750000D01*
X106700000Y-73000000D02*
X107240000Y-72460000D01*
X110500000Y-94200000D02*
X110500000Y-92600000D01*
X112950000Y-95418629D02*
X112331371Y-94800000D01*
X105700000Y-87800000D02*
X105700000Y-72100000D01*
X106610000Y-71190000D02*
X108450000Y-71190000D01*
X110500000Y-92600000D02*
X105700000Y-87800000D01*
X112331371Y-94800000D02*
X111100000Y-94800000D01*
X105700000Y-72100000D02*
X106610000Y-71190000D01*
X111100000Y-94800000D02*
X110500000Y-94200000D01*
X112950000Y-97000000D02*
X112950000Y-95418629D01*
X126220000Y-62030000D02*
X125950000Y-62300000D01*
X127875000Y-62030000D02*
X126220000Y-62030000D01*
X123700000Y-62300000D02*
X123600000Y-62200000D01*
X125950000Y-62300000D02*
X123700000Y-62300000D01*
X125950000Y-63570000D02*
X123670000Y-63570000D01*
X123670000Y-63570000D02*
X123600000Y-63500000D01*
X126180000Y-63800000D02*
X125950000Y-63570000D01*
X127875000Y-63800000D02*
X126180000Y-63800000D01*
X127400000Y-111325000D02*
X127400000Y-109112500D01*
X127400000Y-109112500D02*
X126087500Y-107800000D01*
X126150000Y-112575000D02*
X127400000Y-111325000D01*
X101500000Y-68400000D02*
X101700000Y-68600000D01*
X101500000Y-67637500D02*
X101500000Y-68400000D01*
X101700000Y-68600000D02*
X101700000Y-69600000D01*
X98700000Y-75650000D02*
X98700000Y-83655000D01*
X97950000Y-74900000D02*
X98700000Y-75650000D01*
X98700000Y-83655000D02*
X97975000Y-84380000D01*
X97125000Y-76990001D02*
X97125000Y-76262352D01*
X97975000Y-77840001D02*
X97125000Y-76990001D01*
X97125000Y-76262352D02*
X96050000Y-75187352D01*
X97975000Y-78620000D02*
X97975000Y-77840001D01*
X96050000Y-75187352D02*
X96050000Y-74800000D01*
X127140000Y-105400000D02*
X131970000Y-110230000D01*
X131970000Y-110230000D02*
X136900000Y-115160000D01*
X129525000Y-65125000D02*
X129525000Y-63800000D01*
X132400000Y-106000000D02*
X132400000Y-68000000D01*
X132000000Y-110200000D02*
X132000000Y-109200000D01*
X121400000Y-105400000D02*
X127140000Y-105400000D01*
X132400000Y-68000000D02*
X129525000Y-65125000D01*
X132000000Y-106400000D02*
X132400000Y-106000000D01*
X131970000Y-110230000D02*
X132000000Y-110200000D01*
X129525000Y-62277500D02*
X129525000Y-62030000D01*
X133600000Y-109320000D02*
X133600000Y-66352500D01*
X133600000Y-66352500D02*
X129525000Y-62277500D01*
X136900000Y-112620000D02*
X133600000Y-109320000D01*
X118800000Y-103800000D02*
X119623696Y-102976304D01*
X126480000Y-102200000D02*
X136900000Y-112620000D01*
X119623696Y-102975000D02*
X120398696Y-102200000D01*
X118800000Y-105400000D02*
X118800000Y-103800000D01*
X119623696Y-102976304D02*
X119623696Y-102975000D01*
X120398696Y-102200000D02*
X126480000Y-102200000D01*
X102400000Y-74100000D02*
X102400000Y-76020000D01*
X103300000Y-71250000D02*
X103300000Y-71300000D01*
X103300000Y-71300000D02*
X102400000Y-72200000D01*
X102400000Y-76020000D02*
X102370000Y-76050000D01*
X101700000Y-71250000D02*
X101700000Y-71600000D01*
X101700000Y-71600000D02*
X101100000Y-72200000D01*
X101100000Y-74100000D02*
X101100000Y-76050000D01*
X101100000Y-82510000D02*
X100535000Y-83075000D01*
X101100000Y-81000000D02*
X101100000Y-82510000D01*
X97925000Y-76225000D02*
X97925000Y-76600000D01*
X97000000Y-74900000D02*
X97000000Y-75300000D01*
X97000000Y-75300000D02*
X97925000Y-76225000D01*
X96025000Y-78620000D02*
X95800000Y-78845000D01*
X95800000Y-78845000D02*
X95800000Y-84155000D01*
X95800000Y-84155000D02*
X96025000Y-84380000D01*
X103600000Y-68600000D02*
X103300000Y-68900000D01*
X103300000Y-68900000D02*
X103300000Y-69600000D01*
X103600000Y-67637500D02*
X103600000Y-68600000D01*
X124350000Y-112050000D02*
X126087500Y-110312500D01*
X124350000Y-112575000D02*
X124350000Y-112050000D01*
X126087500Y-110312500D02*
X126087500Y-110000000D01*
M02*
