G04 #@! TF.GenerationSoftware,KiCad,Pcbnew,7.0.9*
G04 #@! TF.CreationDate,2024-01-11T22:43:50+01:00*
G04 #@! TF.ProjectId,CameraV1,43616d65-7261-4563-912e-6b696361645f,rev?*
G04 #@! TF.SameCoordinates,Original*
G04 #@! TF.FileFunction,Legend,Top*
G04 #@! TF.FilePolarity,Positive*
%FSLAX46Y46*%
G04 Gerber Fmt 4.6, Leading zero omitted, Abs format (unit mm)*
G04 Created by KiCad (PCBNEW 7.0.9) date 2024-01-11 22:43:50*
%MOMM*%
%LPD*%
G01*
G04 APERTURE LIST*
G04 Aperture macros list*
%AMRoundRect*
0 Rectangle with rounded corners*
0 $1 Rounding radius*
0 $2 $3 $4 $5 $6 $7 $8 $9 X,Y pos of 4 corners*
0 Add a 4 corners polygon primitive as box body*
4,1,4,$2,$3,$4,$5,$6,$7,$8,$9,$2,$3,0*
0 Add four circle primitives for the rounded corners*
1,1,$1+$1,$2,$3*
1,1,$1+$1,$4,$5*
1,1,$1+$1,$6,$7*
1,1,$1+$1,$8,$9*
0 Add four rect primitives between the rounded corners*
20,1,$1+$1,$2,$3,$4,$5,0*
20,1,$1+$1,$4,$5,$6,$7,0*
20,1,$1+$1,$6,$7,$8,$9,0*
20,1,$1+$1,$8,$9,$2,$3,0*%
G04 Aperture macros list end*
%ADD10C,0.150000*%
%ADD11C,0.125000*%
%ADD12C,0.120000*%
%ADD13C,0.127000*%
%ADD14C,0.200000*%
%ADD15RoundRect,0.225000X-0.250000X0.225000X-0.250000X-0.225000X0.250000X-0.225000X0.250000X0.225000X0*%
%ADD16RoundRect,0.225000X0.225000X0.250000X-0.225000X0.250000X-0.225000X-0.250000X0.225000X-0.250000X0*%
%ADD17RoundRect,0.225000X-0.225000X-0.250000X0.225000X-0.250000X0.225000X0.250000X-0.225000X0.250000X0*%
%ADD18RoundRect,0.243750X-0.243750X-0.456250X0.243750X-0.456250X0.243750X0.456250X-0.243750X0.456250X0*%
%ADD19RoundRect,0.200000X-0.275000X0.200000X-0.275000X-0.200000X0.275000X-0.200000X0.275000X0.200000X0*%
%ADD20RoundRect,0.200000X0.275000X-0.200000X0.275000X0.200000X-0.275000X0.200000X-0.275000X-0.200000X0*%
%ADD21RoundRect,0.250000X-0.250000X-0.475000X0.250000X-0.475000X0.250000X0.475000X-0.250000X0.475000X0*%
%ADD22R,1.700000X1.700000*%
%ADD23O,1.700000X1.700000*%
%ADD24RoundRect,0.200000X-0.200000X-0.275000X0.200000X-0.275000X0.200000X0.275000X-0.200000X0.275000X0*%
%ADD25RoundRect,0.144000X0.258000X-0.943000X0.258000X0.943000X-0.258000X0.943000X-0.258000X-0.943000X0*%
%ADD26RoundRect,0.102000X1.651000X-1.206500X1.651000X1.206500X-1.651000X1.206500X-1.651000X-1.206500X0*%
%ADD27R,0.300000X1.300000*%
%ADD28R,1.800000X2.200000*%
%ADD29R,1.300000X1.550000*%
%ADD30R,1.500000X2.000000*%
%ADD31R,3.800000X2.000000*%
%ADD32RoundRect,0.122000X0.180000X-0.760000X0.180000X0.760000X-0.180000X0.760000X-0.180000X-0.760000X0*%
%ADD33RoundRect,0.150000X0.587500X0.150000X-0.587500X0.150000X-0.587500X-0.150000X0.587500X-0.150000X0*%
%ADD34RoundRect,0.102000X-0.275000X-0.600000X0.275000X-0.600000X0.275000X0.600000X-0.275000X0.600000X0*%
%ADD35RoundRect,0.218750X0.381250X-0.218750X0.381250X0.218750X-0.381250X0.218750X-0.381250X-0.218750X0*%
%ADD36C,2.900000*%
%ADD37C,5.000000*%
%ADD38RoundRect,0.250000X0.250000X0.475000X-0.250000X0.475000X-0.250000X-0.475000X0.250000X-0.475000X0*%
%ADD39RoundRect,0.150000X-0.150000X-0.425000X0.150000X-0.425000X0.150000X0.425000X-0.150000X0.425000X0*%
%ADD40RoundRect,0.075000X-0.075000X-0.500000X0.075000X-0.500000X0.075000X0.500000X-0.075000X0.500000X0*%
%ADD41O,1.000000X2.100000*%
%ADD42O,1.000000X1.800000*%
%ADD43RoundRect,0.225000X0.250000X-0.225000X0.250000X0.225000X-0.250000X0.225000X-0.250000X-0.225000X0*%
%ADD44R,0.450000X1.750000*%
%ADD45RoundRect,0.249999X-1.025001X-1.025001X1.025001X-1.025001X1.025001X1.025001X-1.025001X1.025001X0*%
%ADD46RoundRect,0.200000X0.200000X0.275000X-0.200000X0.275000X-0.200000X-0.275000X0.200000X-0.275000X0*%
%ADD47RoundRect,0.250000X0.475000X-0.250000X0.475000X0.250000X-0.475000X0.250000X-0.475000X-0.250000X0*%
%ADD48RoundRect,0.243750X0.456250X-0.243750X0.456250X0.243750X-0.456250X0.243750X-0.456250X-0.243750X0*%
%ADD49RoundRect,0.102000X-0.750000X-0.450000X0.750000X-0.450000X0.750000X0.450000X-0.750000X0.450000X0*%
%ADD50RoundRect,0.102000X-0.450000X-0.450000X0.450000X-0.450000X0.450000X0.450000X-0.450000X0.450000X0*%
G04 APERTURE END LIST*
D10*
X127833333Y-110454819D02*
X127500000Y-109978628D01*
X127261905Y-110454819D02*
X127261905Y-109454819D01*
X127261905Y-109454819D02*
X127642857Y-109454819D01*
X127642857Y-109454819D02*
X127738095Y-109502438D01*
X127738095Y-109502438D02*
X127785714Y-109550057D01*
X127785714Y-109550057D02*
X127833333Y-109645295D01*
X127833333Y-109645295D02*
X127833333Y-109788152D01*
X127833333Y-109788152D02*
X127785714Y-109883390D01*
X127785714Y-109883390D02*
X127738095Y-109931009D01*
X127738095Y-109931009D02*
X127642857Y-109978628D01*
X127642857Y-109978628D02*
X127261905Y-109978628D01*
X128166667Y-109454819D02*
X128833333Y-110454819D01*
X128833333Y-109454819D02*
X128166667Y-110454819D01*
X95679762Y-63662295D02*
X95832143Y-63662295D01*
X95832143Y-63662295D02*
X95908333Y-63700390D01*
X95908333Y-63700390D02*
X95984524Y-63776580D01*
X95984524Y-63776580D02*
X96022619Y-63928961D01*
X96022619Y-63928961D02*
X96022619Y-64195628D01*
X96022619Y-64195628D02*
X95984524Y-64348009D01*
X95984524Y-64348009D02*
X95908333Y-64424200D01*
X95908333Y-64424200D02*
X95832143Y-64462295D01*
X95832143Y-64462295D02*
X95679762Y-64462295D01*
X95679762Y-64462295D02*
X95603571Y-64424200D01*
X95603571Y-64424200D02*
X95527381Y-64348009D01*
X95527381Y-64348009D02*
X95489285Y-64195628D01*
X95489285Y-64195628D02*
X95489285Y-63928961D01*
X95489285Y-63928961D02*
X95527381Y-63776580D01*
X95527381Y-63776580D02*
X95603571Y-63700390D01*
X95603571Y-63700390D02*
X95679762Y-63662295D01*
X96365476Y-63662295D02*
X96365476Y-64309914D01*
X96365476Y-64309914D02*
X96403571Y-64386104D01*
X96403571Y-64386104D02*
X96441666Y-64424200D01*
X96441666Y-64424200D02*
X96517857Y-64462295D01*
X96517857Y-64462295D02*
X96670238Y-64462295D01*
X96670238Y-64462295D02*
X96746428Y-64424200D01*
X96746428Y-64424200D02*
X96784523Y-64386104D01*
X96784523Y-64386104D02*
X96822619Y-64309914D01*
X96822619Y-64309914D02*
X96822619Y-63662295D01*
X97089285Y-63662295D02*
X97546428Y-63662295D01*
X97317856Y-64462295D02*
X97317856Y-63662295D01*
X97813095Y-64157533D02*
X98422619Y-64157533D01*
X98117857Y-64462295D02*
X98117857Y-63852771D01*
X129276189Y-96443247D02*
X129390475Y-96481342D01*
X129390475Y-96481342D02*
X129428570Y-96519438D01*
X129428570Y-96519438D02*
X129466666Y-96595628D01*
X129466666Y-96595628D02*
X129466666Y-96709914D01*
X129466666Y-96709914D02*
X129428570Y-96786104D01*
X129428570Y-96786104D02*
X129390475Y-96824200D01*
X129390475Y-96824200D02*
X129314285Y-96862295D01*
X129314285Y-96862295D02*
X129009523Y-96862295D01*
X129009523Y-96862295D02*
X129009523Y-96062295D01*
X129009523Y-96062295D02*
X129276189Y-96062295D01*
X129276189Y-96062295D02*
X129352380Y-96100390D01*
X129352380Y-96100390D02*
X129390475Y-96138485D01*
X129390475Y-96138485D02*
X129428570Y-96214676D01*
X129428570Y-96214676D02*
X129428570Y-96290866D01*
X129428570Y-96290866D02*
X129390475Y-96367057D01*
X129390475Y-96367057D02*
X129352380Y-96405152D01*
X129352380Y-96405152D02*
X129276189Y-96443247D01*
X129276189Y-96443247D02*
X129009523Y-96443247D01*
X129923808Y-96862295D02*
X129847618Y-96824200D01*
X129847618Y-96824200D02*
X129809523Y-96786104D01*
X129809523Y-96786104D02*
X129771427Y-96709914D01*
X129771427Y-96709914D02*
X129771427Y-96481342D01*
X129771427Y-96481342D02*
X129809523Y-96405152D01*
X129809523Y-96405152D02*
X129847618Y-96367057D01*
X129847618Y-96367057D02*
X129923808Y-96328961D01*
X129923808Y-96328961D02*
X130038094Y-96328961D01*
X130038094Y-96328961D02*
X130114285Y-96367057D01*
X130114285Y-96367057D02*
X130152380Y-96405152D01*
X130152380Y-96405152D02*
X130190475Y-96481342D01*
X130190475Y-96481342D02*
X130190475Y-96709914D01*
X130190475Y-96709914D02*
X130152380Y-96786104D01*
X130152380Y-96786104D02*
X130114285Y-96824200D01*
X130114285Y-96824200D02*
X130038094Y-96862295D01*
X130038094Y-96862295D02*
X129923808Y-96862295D01*
X130647618Y-96862295D02*
X130571428Y-96824200D01*
X130571428Y-96824200D02*
X130533333Y-96786104D01*
X130533333Y-96786104D02*
X130495237Y-96709914D01*
X130495237Y-96709914D02*
X130495237Y-96481342D01*
X130495237Y-96481342D02*
X130533333Y-96405152D01*
X130533333Y-96405152D02*
X130571428Y-96367057D01*
X130571428Y-96367057D02*
X130647618Y-96328961D01*
X130647618Y-96328961D02*
X130761904Y-96328961D01*
X130761904Y-96328961D02*
X130838095Y-96367057D01*
X130838095Y-96367057D02*
X130876190Y-96405152D01*
X130876190Y-96405152D02*
X130914285Y-96481342D01*
X130914285Y-96481342D02*
X130914285Y-96709914D01*
X130914285Y-96709914D02*
X130876190Y-96786104D01*
X130876190Y-96786104D02*
X130838095Y-96824200D01*
X130838095Y-96824200D02*
X130761904Y-96862295D01*
X130761904Y-96862295D02*
X130647618Y-96862295D01*
X131142857Y-96328961D02*
X131447619Y-96328961D01*
X131257143Y-96062295D02*
X131257143Y-96748009D01*
X131257143Y-96748009D02*
X131295238Y-96824200D01*
X131295238Y-96824200D02*
X131371428Y-96862295D01*
X131371428Y-96862295D02*
X131447619Y-96862295D01*
X132323810Y-96862295D02*
X132323810Y-96062295D01*
X132323810Y-96062295D02*
X132590476Y-96633723D01*
X132590476Y-96633723D02*
X132857143Y-96062295D01*
X132857143Y-96062295D02*
X132857143Y-96862295D01*
X133352381Y-96862295D02*
X133276191Y-96824200D01*
X133276191Y-96824200D02*
X133238096Y-96786104D01*
X133238096Y-96786104D02*
X133200000Y-96709914D01*
X133200000Y-96709914D02*
X133200000Y-96481342D01*
X133200000Y-96481342D02*
X133238096Y-96405152D01*
X133238096Y-96405152D02*
X133276191Y-96367057D01*
X133276191Y-96367057D02*
X133352381Y-96328961D01*
X133352381Y-96328961D02*
X133466667Y-96328961D01*
X133466667Y-96328961D02*
X133542858Y-96367057D01*
X133542858Y-96367057D02*
X133580953Y-96405152D01*
X133580953Y-96405152D02*
X133619048Y-96481342D01*
X133619048Y-96481342D02*
X133619048Y-96709914D01*
X133619048Y-96709914D02*
X133580953Y-96786104D01*
X133580953Y-96786104D02*
X133542858Y-96824200D01*
X133542858Y-96824200D02*
X133466667Y-96862295D01*
X133466667Y-96862295D02*
X133352381Y-96862295D01*
X134304763Y-96862295D02*
X134304763Y-96062295D01*
X134304763Y-96824200D02*
X134228572Y-96862295D01*
X134228572Y-96862295D02*
X134076191Y-96862295D01*
X134076191Y-96862295D02*
X134000001Y-96824200D01*
X134000001Y-96824200D02*
X133961906Y-96786104D01*
X133961906Y-96786104D02*
X133923810Y-96709914D01*
X133923810Y-96709914D02*
X133923810Y-96481342D01*
X133923810Y-96481342D02*
X133961906Y-96405152D01*
X133961906Y-96405152D02*
X134000001Y-96367057D01*
X134000001Y-96367057D02*
X134076191Y-96328961D01*
X134076191Y-96328961D02*
X134228572Y-96328961D01*
X134228572Y-96328961D02*
X134304763Y-96367057D01*
X134990478Y-96824200D02*
X134914287Y-96862295D01*
X134914287Y-96862295D02*
X134761906Y-96862295D01*
X134761906Y-96862295D02*
X134685716Y-96824200D01*
X134685716Y-96824200D02*
X134647620Y-96748009D01*
X134647620Y-96748009D02*
X134647620Y-96443247D01*
X134647620Y-96443247D02*
X134685716Y-96367057D01*
X134685716Y-96367057D02*
X134761906Y-96328961D01*
X134761906Y-96328961D02*
X134914287Y-96328961D01*
X134914287Y-96328961D02*
X134990478Y-96367057D01*
X134990478Y-96367057D02*
X135028573Y-96443247D01*
X135028573Y-96443247D02*
X135028573Y-96519438D01*
X135028573Y-96519438D02*
X134647620Y-96595628D01*
X119033333Y-86654819D02*
X118700000Y-86178628D01*
X118461905Y-86654819D02*
X118461905Y-85654819D01*
X118461905Y-85654819D02*
X118842857Y-85654819D01*
X118842857Y-85654819D02*
X118938095Y-85702438D01*
X118938095Y-85702438D02*
X118985714Y-85750057D01*
X118985714Y-85750057D02*
X119033333Y-85845295D01*
X119033333Y-85845295D02*
X119033333Y-85988152D01*
X119033333Y-85988152D02*
X118985714Y-86083390D01*
X118985714Y-86083390D02*
X118938095Y-86131009D01*
X118938095Y-86131009D02*
X118842857Y-86178628D01*
X118842857Y-86178628D02*
X118461905Y-86178628D01*
X119938095Y-85654819D02*
X119461905Y-85654819D01*
X119461905Y-85654819D02*
X119414286Y-86131009D01*
X119414286Y-86131009D02*
X119461905Y-86083390D01*
X119461905Y-86083390D02*
X119557143Y-86035771D01*
X119557143Y-86035771D02*
X119795238Y-86035771D01*
X119795238Y-86035771D02*
X119890476Y-86083390D01*
X119890476Y-86083390D02*
X119938095Y-86131009D01*
X119938095Y-86131009D02*
X119985714Y-86226247D01*
X119985714Y-86226247D02*
X119985714Y-86464342D01*
X119985714Y-86464342D02*
X119938095Y-86559580D01*
X119938095Y-86559580D02*
X119890476Y-86607200D01*
X119890476Y-86607200D02*
X119795238Y-86654819D01*
X119795238Y-86654819D02*
X119557143Y-86654819D01*
X119557143Y-86654819D02*
X119461905Y-86607200D01*
X119461905Y-86607200D02*
X119414286Y-86559580D01*
X104238095Y-100604819D02*
X104238095Y-101414342D01*
X104238095Y-101414342D02*
X104285714Y-101509580D01*
X104285714Y-101509580D02*
X104333333Y-101557200D01*
X104333333Y-101557200D02*
X104428571Y-101604819D01*
X104428571Y-101604819D02*
X104619047Y-101604819D01*
X104619047Y-101604819D02*
X104714285Y-101557200D01*
X104714285Y-101557200D02*
X104761904Y-101509580D01*
X104761904Y-101509580D02*
X104809523Y-101414342D01*
X104809523Y-101414342D02*
X104809523Y-100604819D01*
X105190476Y-100604819D02*
X105809523Y-100604819D01*
X105809523Y-100604819D02*
X105476190Y-100985771D01*
X105476190Y-100985771D02*
X105619047Y-100985771D01*
X105619047Y-100985771D02*
X105714285Y-101033390D01*
X105714285Y-101033390D02*
X105761904Y-101081009D01*
X105761904Y-101081009D02*
X105809523Y-101176247D01*
X105809523Y-101176247D02*
X105809523Y-101414342D01*
X105809523Y-101414342D02*
X105761904Y-101509580D01*
X105761904Y-101509580D02*
X105714285Y-101557200D01*
X105714285Y-101557200D02*
X105619047Y-101604819D01*
X105619047Y-101604819D02*
X105333333Y-101604819D01*
X105333333Y-101604819D02*
X105238095Y-101557200D01*
X105238095Y-101557200D02*
X105190476Y-101509580D01*
X132323810Y-113362295D02*
X132323810Y-114009914D01*
X132323810Y-114009914D02*
X132361905Y-114086104D01*
X132361905Y-114086104D02*
X132400000Y-114124200D01*
X132400000Y-114124200D02*
X132476191Y-114162295D01*
X132476191Y-114162295D02*
X132628572Y-114162295D01*
X132628572Y-114162295D02*
X132704762Y-114124200D01*
X132704762Y-114124200D02*
X132742857Y-114086104D01*
X132742857Y-114086104D02*
X132780953Y-114009914D01*
X132780953Y-114009914D02*
X132780953Y-113362295D01*
X133123809Y-113933723D02*
X133504762Y-113933723D01*
X133047619Y-114162295D02*
X133314286Y-113362295D01*
X133314286Y-113362295D02*
X133580952Y-114162295D01*
X134304762Y-114162295D02*
X134038095Y-113781342D01*
X133847619Y-114162295D02*
X133847619Y-113362295D01*
X133847619Y-113362295D02*
X134152381Y-113362295D01*
X134152381Y-113362295D02*
X134228571Y-113400390D01*
X134228571Y-113400390D02*
X134266666Y-113438485D01*
X134266666Y-113438485D02*
X134304762Y-113514676D01*
X134304762Y-113514676D02*
X134304762Y-113628961D01*
X134304762Y-113628961D02*
X134266666Y-113705152D01*
X134266666Y-113705152D02*
X134228571Y-113743247D01*
X134228571Y-113743247D02*
X134152381Y-113781342D01*
X134152381Y-113781342D02*
X133847619Y-113781342D01*
X134533333Y-113362295D02*
X134990476Y-113362295D01*
X134761904Y-114162295D02*
X134761904Y-113362295D01*
X119033333Y-84454819D02*
X118700000Y-83978628D01*
X118461905Y-84454819D02*
X118461905Y-83454819D01*
X118461905Y-83454819D02*
X118842857Y-83454819D01*
X118842857Y-83454819D02*
X118938095Y-83502438D01*
X118938095Y-83502438D02*
X118985714Y-83550057D01*
X118985714Y-83550057D02*
X119033333Y-83645295D01*
X119033333Y-83645295D02*
X119033333Y-83788152D01*
X119033333Y-83788152D02*
X118985714Y-83883390D01*
X118985714Y-83883390D02*
X118938095Y-83931009D01*
X118938095Y-83931009D02*
X118842857Y-83978628D01*
X118842857Y-83978628D02*
X118461905Y-83978628D01*
X119366667Y-83454819D02*
X119985714Y-83454819D01*
X119985714Y-83454819D02*
X119652381Y-83835771D01*
X119652381Y-83835771D02*
X119795238Y-83835771D01*
X119795238Y-83835771D02*
X119890476Y-83883390D01*
X119890476Y-83883390D02*
X119938095Y-83931009D01*
X119938095Y-83931009D02*
X119985714Y-84026247D01*
X119985714Y-84026247D02*
X119985714Y-84264342D01*
X119985714Y-84264342D02*
X119938095Y-84359580D01*
X119938095Y-84359580D02*
X119890476Y-84407200D01*
X119890476Y-84407200D02*
X119795238Y-84454819D01*
X119795238Y-84454819D02*
X119509524Y-84454819D01*
X119509524Y-84454819D02*
X119414286Y-84407200D01*
X119414286Y-84407200D02*
X119366667Y-84359580D01*
X104238095Y-111904819D02*
X104238095Y-112714342D01*
X104238095Y-112714342D02*
X104285714Y-112809580D01*
X104285714Y-112809580D02*
X104333333Y-112857200D01*
X104333333Y-112857200D02*
X104428571Y-112904819D01*
X104428571Y-112904819D02*
X104619047Y-112904819D01*
X104619047Y-112904819D02*
X104714285Y-112857200D01*
X104714285Y-112857200D02*
X104761904Y-112809580D01*
X104761904Y-112809580D02*
X104809523Y-112714342D01*
X104809523Y-112714342D02*
X104809523Y-111904819D01*
X105238095Y-112000057D02*
X105285714Y-111952438D01*
X105285714Y-111952438D02*
X105380952Y-111904819D01*
X105380952Y-111904819D02*
X105619047Y-111904819D01*
X105619047Y-111904819D02*
X105714285Y-111952438D01*
X105714285Y-111952438D02*
X105761904Y-112000057D01*
X105761904Y-112000057D02*
X105809523Y-112095295D01*
X105809523Y-112095295D02*
X105809523Y-112190533D01*
X105809523Y-112190533D02*
X105761904Y-112333390D01*
X105761904Y-112333390D02*
X105190476Y-112904819D01*
X105190476Y-112904819D02*
X105809523Y-112904819D01*
X127161905Y-83454819D02*
X127780952Y-83454819D01*
X127780952Y-83454819D02*
X127447619Y-83835771D01*
X127447619Y-83835771D02*
X127590476Y-83835771D01*
X127590476Y-83835771D02*
X127685714Y-83883390D01*
X127685714Y-83883390D02*
X127733333Y-83931009D01*
X127733333Y-83931009D02*
X127780952Y-84026247D01*
X127780952Y-84026247D02*
X127780952Y-84264342D01*
X127780952Y-84264342D02*
X127733333Y-84359580D01*
X127733333Y-84359580D02*
X127685714Y-84407200D01*
X127685714Y-84407200D02*
X127590476Y-84454819D01*
X127590476Y-84454819D02*
X127304762Y-84454819D01*
X127304762Y-84454819D02*
X127209524Y-84407200D01*
X127209524Y-84407200D02*
X127161905Y-84359580D01*
X128066667Y-83454819D02*
X128400000Y-84454819D01*
X128400000Y-84454819D02*
X128733333Y-83454819D01*
X128971429Y-83454819D02*
X129590476Y-83454819D01*
X129590476Y-83454819D02*
X129257143Y-83835771D01*
X129257143Y-83835771D02*
X129400000Y-83835771D01*
X129400000Y-83835771D02*
X129495238Y-83883390D01*
X129495238Y-83883390D02*
X129542857Y-83931009D01*
X129542857Y-83931009D02*
X129590476Y-84026247D01*
X129590476Y-84026247D02*
X129590476Y-84264342D01*
X129590476Y-84264342D02*
X129542857Y-84359580D01*
X129542857Y-84359580D02*
X129495238Y-84407200D01*
X129495238Y-84407200D02*
X129400000Y-84454819D01*
X129400000Y-84454819D02*
X129114286Y-84454819D01*
X129114286Y-84454819D02*
X129019048Y-84407200D01*
X129019048Y-84407200D02*
X128971429Y-84359580D01*
X104733333Y-107159580D02*
X104685714Y-107207200D01*
X104685714Y-107207200D02*
X104542857Y-107254819D01*
X104542857Y-107254819D02*
X104447619Y-107254819D01*
X104447619Y-107254819D02*
X104304762Y-107207200D01*
X104304762Y-107207200D02*
X104209524Y-107111961D01*
X104209524Y-107111961D02*
X104161905Y-107016723D01*
X104161905Y-107016723D02*
X104114286Y-106826247D01*
X104114286Y-106826247D02*
X104114286Y-106683390D01*
X104114286Y-106683390D02*
X104161905Y-106492914D01*
X104161905Y-106492914D02*
X104209524Y-106397676D01*
X104209524Y-106397676D02*
X104304762Y-106302438D01*
X104304762Y-106302438D02*
X104447619Y-106254819D01*
X104447619Y-106254819D02*
X104542857Y-106254819D01*
X104542857Y-106254819D02*
X104685714Y-106302438D01*
X104685714Y-106302438D02*
X104733333Y-106350057D01*
X105304762Y-106683390D02*
X105209524Y-106635771D01*
X105209524Y-106635771D02*
X105161905Y-106588152D01*
X105161905Y-106588152D02*
X105114286Y-106492914D01*
X105114286Y-106492914D02*
X105114286Y-106445295D01*
X105114286Y-106445295D02*
X105161905Y-106350057D01*
X105161905Y-106350057D02*
X105209524Y-106302438D01*
X105209524Y-106302438D02*
X105304762Y-106254819D01*
X105304762Y-106254819D02*
X105495238Y-106254819D01*
X105495238Y-106254819D02*
X105590476Y-106302438D01*
X105590476Y-106302438D02*
X105638095Y-106350057D01*
X105638095Y-106350057D02*
X105685714Y-106445295D01*
X105685714Y-106445295D02*
X105685714Y-106492914D01*
X105685714Y-106492914D02*
X105638095Y-106588152D01*
X105638095Y-106588152D02*
X105590476Y-106635771D01*
X105590476Y-106635771D02*
X105495238Y-106683390D01*
X105495238Y-106683390D02*
X105304762Y-106683390D01*
X105304762Y-106683390D02*
X105209524Y-106731009D01*
X105209524Y-106731009D02*
X105161905Y-106778628D01*
X105161905Y-106778628D02*
X105114286Y-106873866D01*
X105114286Y-106873866D02*
X105114286Y-107064342D01*
X105114286Y-107064342D02*
X105161905Y-107159580D01*
X105161905Y-107159580D02*
X105209524Y-107207200D01*
X105209524Y-107207200D02*
X105304762Y-107254819D01*
X105304762Y-107254819D02*
X105495238Y-107254819D01*
X105495238Y-107254819D02*
X105590476Y-107207200D01*
X105590476Y-107207200D02*
X105638095Y-107159580D01*
X105638095Y-107159580D02*
X105685714Y-107064342D01*
X105685714Y-107064342D02*
X105685714Y-106873866D01*
X105685714Y-106873866D02*
X105638095Y-106778628D01*
X105638095Y-106778628D02*
X105590476Y-106731009D01*
X105590476Y-106731009D02*
X105495238Y-106683390D01*
X127138095Y-107254819D02*
X127709523Y-107254819D01*
X127423809Y-108254819D02*
X127423809Y-107254819D01*
X127947619Y-107254819D02*
X128614285Y-108254819D01*
X128614285Y-107254819D02*
X127947619Y-108254819D01*
X127780952Y-89054819D02*
X127209524Y-89054819D01*
X127495238Y-89054819D02*
X127495238Y-88054819D01*
X127495238Y-88054819D02*
X127400000Y-88197676D01*
X127400000Y-88197676D02*
X127304762Y-88292914D01*
X127304762Y-88292914D02*
X127209524Y-88340533D01*
X128066667Y-88054819D02*
X128400000Y-89054819D01*
X128400000Y-89054819D02*
X128733333Y-88054819D01*
X129019048Y-88150057D02*
X129066667Y-88102438D01*
X129066667Y-88102438D02*
X129161905Y-88054819D01*
X129161905Y-88054819D02*
X129400000Y-88054819D01*
X129400000Y-88054819D02*
X129495238Y-88102438D01*
X129495238Y-88102438D02*
X129542857Y-88150057D01*
X129542857Y-88150057D02*
X129590476Y-88245295D01*
X129590476Y-88245295D02*
X129590476Y-88340533D01*
X129590476Y-88340533D02*
X129542857Y-88483390D01*
X129542857Y-88483390D02*
X128971429Y-89054819D01*
X128971429Y-89054819D02*
X129590476Y-89054819D01*
D11*
X130004762Y-75244547D02*
X130271428Y-75244547D01*
X130385714Y-75663595D02*
X130004762Y-75663595D01*
X130004762Y-75663595D02*
X130004762Y-74863595D01*
X130004762Y-74863595D02*
X130385714Y-74863595D01*
X130652381Y-75663595D02*
X131071429Y-75130261D01*
X130652381Y-75130261D02*
X131071429Y-75663595D01*
X131261905Y-75130261D02*
X131566667Y-75130261D01*
X131376191Y-74863595D02*
X131376191Y-75549309D01*
X131376191Y-75549309D02*
X131414286Y-75625500D01*
X131414286Y-75625500D02*
X131490476Y-75663595D01*
X131490476Y-75663595D02*
X131566667Y-75663595D01*
X131833334Y-75587404D02*
X131871429Y-75625500D01*
X131871429Y-75625500D02*
X131833334Y-75663595D01*
X131833334Y-75663595D02*
X131795238Y-75625500D01*
X131795238Y-75625500D02*
X131833334Y-75587404D01*
X131833334Y-75587404D02*
X131833334Y-75663595D01*
X132823810Y-75663595D02*
X132823810Y-74863595D01*
X132823810Y-74863595D02*
X133128572Y-74863595D01*
X133128572Y-74863595D02*
X133204762Y-74901690D01*
X133204762Y-74901690D02*
X133242857Y-74939785D01*
X133242857Y-74939785D02*
X133280953Y-75015976D01*
X133280953Y-75015976D02*
X133280953Y-75130261D01*
X133280953Y-75130261D02*
X133242857Y-75206452D01*
X133242857Y-75206452D02*
X133204762Y-75244547D01*
X133204762Y-75244547D02*
X133128572Y-75282642D01*
X133128572Y-75282642D02*
X132823810Y-75282642D01*
X133623810Y-75663595D02*
X133623810Y-75130261D01*
X133623810Y-74863595D02*
X133585714Y-74901690D01*
X133585714Y-74901690D02*
X133623810Y-74939785D01*
X133623810Y-74939785D02*
X133661905Y-74901690D01*
X133661905Y-74901690D02*
X133623810Y-74863595D01*
X133623810Y-74863595D02*
X133623810Y-74939785D01*
X134004762Y-75130261D02*
X134004762Y-75663595D01*
X134004762Y-75206452D02*
X134042857Y-75168357D01*
X134042857Y-75168357D02*
X134119047Y-75130261D01*
X134119047Y-75130261D02*
X134233333Y-75130261D01*
X134233333Y-75130261D02*
X134309524Y-75168357D01*
X134309524Y-75168357D02*
X134347619Y-75244547D01*
X134347619Y-75244547D02*
X134347619Y-75663595D01*
X134690476Y-75625500D02*
X134766667Y-75663595D01*
X134766667Y-75663595D02*
X134919048Y-75663595D01*
X134919048Y-75663595D02*
X134995238Y-75625500D01*
X134995238Y-75625500D02*
X135033334Y-75549309D01*
X135033334Y-75549309D02*
X135033334Y-75511214D01*
X135033334Y-75511214D02*
X134995238Y-75435023D01*
X134995238Y-75435023D02*
X134919048Y-75396928D01*
X134919048Y-75396928D02*
X134804762Y-75396928D01*
X134804762Y-75396928D02*
X134728572Y-75358833D01*
X134728572Y-75358833D02*
X134690476Y-75282642D01*
X134690476Y-75282642D02*
X134690476Y-75244547D01*
X134690476Y-75244547D02*
X134728572Y-75168357D01*
X134728572Y-75168357D02*
X134804762Y-75130261D01*
X134804762Y-75130261D02*
X134919048Y-75130261D01*
X134919048Y-75130261D02*
X134995238Y-75168357D01*
D10*
X119033333Y-89054819D02*
X118700000Y-88578628D01*
X118461905Y-89054819D02*
X118461905Y-88054819D01*
X118461905Y-88054819D02*
X118842857Y-88054819D01*
X118842857Y-88054819D02*
X118938095Y-88102438D01*
X118938095Y-88102438D02*
X118985714Y-88150057D01*
X118985714Y-88150057D02*
X119033333Y-88245295D01*
X119033333Y-88245295D02*
X119033333Y-88388152D01*
X119033333Y-88388152D02*
X118985714Y-88483390D01*
X118985714Y-88483390D02*
X118938095Y-88531009D01*
X118938095Y-88531009D02*
X118842857Y-88578628D01*
X118842857Y-88578628D02*
X118461905Y-88578628D01*
X119890476Y-88388152D02*
X119890476Y-89054819D01*
X119652381Y-88007200D02*
X119414286Y-88721485D01*
X119414286Y-88721485D02*
X120033333Y-88721485D01*
X132638095Y-65902438D02*
X132542857Y-65854819D01*
X132542857Y-65854819D02*
X132400000Y-65854819D01*
X132400000Y-65854819D02*
X132257143Y-65902438D01*
X132257143Y-65902438D02*
X132161905Y-65997676D01*
X132161905Y-65997676D02*
X132114286Y-66092914D01*
X132114286Y-66092914D02*
X132066667Y-66283390D01*
X132066667Y-66283390D02*
X132066667Y-66426247D01*
X132066667Y-66426247D02*
X132114286Y-66616723D01*
X132114286Y-66616723D02*
X132161905Y-66711961D01*
X132161905Y-66711961D02*
X132257143Y-66807200D01*
X132257143Y-66807200D02*
X132400000Y-66854819D01*
X132400000Y-66854819D02*
X132495238Y-66854819D01*
X132495238Y-66854819D02*
X132638095Y-66807200D01*
X132638095Y-66807200D02*
X132685714Y-66759580D01*
X132685714Y-66759580D02*
X132685714Y-66426247D01*
X132685714Y-66426247D02*
X132495238Y-66426247D01*
X133114286Y-66854819D02*
X133114286Y-65854819D01*
X133114286Y-65854819D02*
X133685714Y-66854819D01*
X133685714Y-66854819D02*
X133685714Y-65854819D01*
X134161905Y-66854819D02*
X134161905Y-65854819D01*
X134161905Y-65854819D02*
X134400000Y-65854819D01*
X134400000Y-65854819D02*
X134542857Y-65902438D01*
X134542857Y-65902438D02*
X134638095Y-65997676D01*
X134638095Y-65997676D02*
X134685714Y-66092914D01*
X134685714Y-66092914D02*
X134733333Y-66283390D01*
X134733333Y-66283390D02*
X134733333Y-66426247D01*
X134733333Y-66426247D02*
X134685714Y-66616723D01*
X134685714Y-66616723D02*
X134638095Y-66711961D01*
X134638095Y-66711961D02*
X134542857Y-66807200D01*
X134542857Y-66807200D02*
X134400000Y-66854819D01*
X134400000Y-66854819D02*
X134161905Y-66854819D01*
X120957142Y-102559580D02*
X120909523Y-102607200D01*
X120909523Y-102607200D02*
X120766666Y-102654819D01*
X120766666Y-102654819D02*
X120671428Y-102654819D01*
X120671428Y-102654819D02*
X120528571Y-102607200D01*
X120528571Y-102607200D02*
X120433333Y-102511961D01*
X120433333Y-102511961D02*
X120385714Y-102416723D01*
X120385714Y-102416723D02*
X120338095Y-102226247D01*
X120338095Y-102226247D02*
X120338095Y-102083390D01*
X120338095Y-102083390D02*
X120385714Y-101892914D01*
X120385714Y-101892914D02*
X120433333Y-101797676D01*
X120433333Y-101797676D02*
X120528571Y-101702438D01*
X120528571Y-101702438D02*
X120671428Y-101654819D01*
X120671428Y-101654819D02*
X120766666Y-101654819D01*
X120766666Y-101654819D02*
X120909523Y-101702438D01*
X120909523Y-101702438D02*
X120957142Y-101750057D01*
X121909523Y-102654819D02*
X121338095Y-102654819D01*
X121623809Y-102654819D02*
X121623809Y-101654819D01*
X121623809Y-101654819D02*
X121528571Y-101797676D01*
X121528571Y-101797676D02*
X121433333Y-101892914D01*
X121433333Y-101892914D02*
X121338095Y-101940533D01*
X122528571Y-101654819D02*
X122623809Y-101654819D01*
X122623809Y-101654819D02*
X122719047Y-101702438D01*
X122719047Y-101702438D02*
X122766666Y-101750057D01*
X122766666Y-101750057D02*
X122814285Y-101845295D01*
X122814285Y-101845295D02*
X122861904Y-102035771D01*
X122861904Y-102035771D02*
X122861904Y-102273866D01*
X122861904Y-102273866D02*
X122814285Y-102464342D01*
X122814285Y-102464342D02*
X122766666Y-102559580D01*
X122766666Y-102559580D02*
X122719047Y-102607200D01*
X122719047Y-102607200D02*
X122623809Y-102654819D01*
X122623809Y-102654819D02*
X122528571Y-102654819D01*
X122528571Y-102654819D02*
X122433333Y-102607200D01*
X122433333Y-102607200D02*
X122385714Y-102559580D01*
X122385714Y-102559580D02*
X122338095Y-102464342D01*
X122338095Y-102464342D02*
X122290476Y-102273866D01*
X122290476Y-102273866D02*
X122290476Y-102035771D01*
X122290476Y-102035771D02*
X122338095Y-101845295D01*
X122338095Y-101845295D02*
X122385714Y-101750057D01*
X122385714Y-101750057D02*
X122433333Y-101702438D01*
X122433333Y-101702438D02*
X122528571Y-101654819D01*
X127657142Y-113854819D02*
X127323809Y-113378628D01*
X127085714Y-113854819D02*
X127085714Y-112854819D01*
X127085714Y-112854819D02*
X127466666Y-112854819D01*
X127466666Y-112854819D02*
X127561904Y-112902438D01*
X127561904Y-112902438D02*
X127609523Y-112950057D01*
X127609523Y-112950057D02*
X127657142Y-113045295D01*
X127657142Y-113045295D02*
X127657142Y-113188152D01*
X127657142Y-113188152D02*
X127609523Y-113283390D01*
X127609523Y-113283390D02*
X127561904Y-113331009D01*
X127561904Y-113331009D02*
X127466666Y-113378628D01*
X127466666Y-113378628D02*
X127085714Y-113378628D01*
X128609523Y-113854819D02*
X128038095Y-113854819D01*
X128323809Y-113854819D02*
X128323809Y-112854819D01*
X128323809Y-112854819D02*
X128228571Y-112997676D01*
X128228571Y-112997676D02*
X128133333Y-113092914D01*
X128133333Y-113092914D02*
X128038095Y-113140533D01*
X129228571Y-112854819D02*
X129323809Y-112854819D01*
X129323809Y-112854819D02*
X129419047Y-112902438D01*
X129419047Y-112902438D02*
X129466666Y-112950057D01*
X129466666Y-112950057D02*
X129514285Y-113045295D01*
X129514285Y-113045295D02*
X129561904Y-113235771D01*
X129561904Y-113235771D02*
X129561904Y-113473866D01*
X129561904Y-113473866D02*
X129514285Y-113664342D01*
X129514285Y-113664342D02*
X129466666Y-113759580D01*
X129466666Y-113759580D02*
X129419047Y-113807200D01*
X129419047Y-113807200D02*
X129323809Y-113854819D01*
X129323809Y-113854819D02*
X129228571Y-113854819D01*
X129228571Y-113854819D02*
X129133333Y-113807200D01*
X129133333Y-113807200D02*
X129085714Y-113759580D01*
X129085714Y-113759580D02*
X129038095Y-113664342D01*
X129038095Y-113664342D02*
X128990476Y-113473866D01*
X128990476Y-113473866D02*
X128990476Y-113235771D01*
X128990476Y-113235771D02*
X129038095Y-113045295D01*
X129038095Y-113045295D02*
X129085714Y-112950057D01*
X129085714Y-112950057D02*
X129133333Y-112902438D01*
X129133333Y-112902438D02*
X129228571Y-112854819D01*
X121557142Y-100159580D02*
X121509523Y-100207200D01*
X121509523Y-100207200D02*
X121366666Y-100254819D01*
X121366666Y-100254819D02*
X121271428Y-100254819D01*
X121271428Y-100254819D02*
X121128571Y-100207200D01*
X121128571Y-100207200D02*
X121033333Y-100111961D01*
X121033333Y-100111961D02*
X120985714Y-100016723D01*
X120985714Y-100016723D02*
X120938095Y-99826247D01*
X120938095Y-99826247D02*
X120938095Y-99683390D01*
X120938095Y-99683390D02*
X120985714Y-99492914D01*
X120985714Y-99492914D02*
X121033333Y-99397676D01*
X121033333Y-99397676D02*
X121128571Y-99302438D01*
X121128571Y-99302438D02*
X121271428Y-99254819D01*
X121271428Y-99254819D02*
X121366666Y-99254819D01*
X121366666Y-99254819D02*
X121509523Y-99302438D01*
X121509523Y-99302438D02*
X121557142Y-99350057D01*
X122509523Y-100254819D02*
X121938095Y-100254819D01*
X122223809Y-100254819D02*
X122223809Y-99254819D01*
X122223809Y-99254819D02*
X122128571Y-99397676D01*
X122128571Y-99397676D02*
X122033333Y-99492914D01*
X122033333Y-99492914D02*
X121938095Y-99540533D01*
X122842857Y-99254819D02*
X123461904Y-99254819D01*
X123461904Y-99254819D02*
X123128571Y-99635771D01*
X123128571Y-99635771D02*
X123271428Y-99635771D01*
X123271428Y-99635771D02*
X123366666Y-99683390D01*
X123366666Y-99683390D02*
X123414285Y-99731009D01*
X123414285Y-99731009D02*
X123461904Y-99826247D01*
X123461904Y-99826247D02*
X123461904Y-100064342D01*
X123461904Y-100064342D02*
X123414285Y-100159580D01*
X123414285Y-100159580D02*
X123366666Y-100207200D01*
X123366666Y-100207200D02*
X123271428Y-100254819D01*
X123271428Y-100254819D02*
X122985714Y-100254819D01*
X122985714Y-100254819D02*
X122890476Y-100207200D01*
X122890476Y-100207200D02*
X122842857Y-100159580D01*
X104733333Y-95859580D02*
X104685714Y-95907200D01*
X104685714Y-95907200D02*
X104542857Y-95954819D01*
X104542857Y-95954819D02*
X104447619Y-95954819D01*
X104447619Y-95954819D02*
X104304762Y-95907200D01*
X104304762Y-95907200D02*
X104209524Y-95811961D01*
X104209524Y-95811961D02*
X104161905Y-95716723D01*
X104161905Y-95716723D02*
X104114286Y-95526247D01*
X104114286Y-95526247D02*
X104114286Y-95383390D01*
X104114286Y-95383390D02*
X104161905Y-95192914D01*
X104161905Y-95192914D02*
X104209524Y-95097676D01*
X104209524Y-95097676D02*
X104304762Y-95002438D01*
X104304762Y-95002438D02*
X104447619Y-94954819D01*
X104447619Y-94954819D02*
X104542857Y-94954819D01*
X104542857Y-94954819D02*
X104685714Y-95002438D01*
X104685714Y-95002438D02*
X104733333Y-95050057D01*
X105638095Y-94954819D02*
X105161905Y-94954819D01*
X105161905Y-94954819D02*
X105114286Y-95431009D01*
X105114286Y-95431009D02*
X105161905Y-95383390D01*
X105161905Y-95383390D02*
X105257143Y-95335771D01*
X105257143Y-95335771D02*
X105495238Y-95335771D01*
X105495238Y-95335771D02*
X105590476Y-95383390D01*
X105590476Y-95383390D02*
X105638095Y-95431009D01*
X105638095Y-95431009D02*
X105685714Y-95526247D01*
X105685714Y-95526247D02*
X105685714Y-95764342D01*
X105685714Y-95764342D02*
X105638095Y-95859580D01*
X105638095Y-95859580D02*
X105590476Y-95907200D01*
X105590476Y-95907200D02*
X105495238Y-95954819D01*
X105495238Y-95954819D02*
X105257143Y-95954819D01*
X105257143Y-95954819D02*
X105161905Y-95907200D01*
X105161905Y-95907200D02*
X105114286Y-95859580D01*
X127209524Y-85750057D02*
X127257143Y-85702438D01*
X127257143Y-85702438D02*
X127352381Y-85654819D01*
X127352381Y-85654819D02*
X127590476Y-85654819D01*
X127590476Y-85654819D02*
X127685714Y-85702438D01*
X127685714Y-85702438D02*
X127733333Y-85750057D01*
X127733333Y-85750057D02*
X127780952Y-85845295D01*
X127780952Y-85845295D02*
X127780952Y-85940533D01*
X127780952Y-85940533D02*
X127733333Y-86083390D01*
X127733333Y-86083390D02*
X127161905Y-86654819D01*
X127161905Y-86654819D02*
X127780952Y-86654819D01*
X128066667Y-85654819D02*
X128400000Y-86654819D01*
X128400000Y-86654819D02*
X128733333Y-85654819D01*
X129209524Y-86083390D02*
X129114286Y-86035771D01*
X129114286Y-86035771D02*
X129066667Y-85988152D01*
X129066667Y-85988152D02*
X129019048Y-85892914D01*
X129019048Y-85892914D02*
X129019048Y-85845295D01*
X129019048Y-85845295D02*
X129066667Y-85750057D01*
X129066667Y-85750057D02*
X129114286Y-85702438D01*
X129114286Y-85702438D02*
X129209524Y-85654819D01*
X129209524Y-85654819D02*
X129400000Y-85654819D01*
X129400000Y-85654819D02*
X129495238Y-85702438D01*
X129495238Y-85702438D02*
X129542857Y-85750057D01*
X129542857Y-85750057D02*
X129590476Y-85845295D01*
X129590476Y-85845295D02*
X129590476Y-85892914D01*
X129590476Y-85892914D02*
X129542857Y-85988152D01*
X129542857Y-85988152D02*
X129495238Y-86035771D01*
X129495238Y-86035771D02*
X129400000Y-86083390D01*
X129400000Y-86083390D02*
X129209524Y-86083390D01*
X129209524Y-86083390D02*
X129114286Y-86131009D01*
X129114286Y-86131009D02*
X129066667Y-86178628D01*
X129066667Y-86178628D02*
X129019048Y-86273866D01*
X129019048Y-86273866D02*
X129019048Y-86464342D01*
X129019048Y-86464342D02*
X129066667Y-86559580D01*
X129066667Y-86559580D02*
X129114286Y-86607200D01*
X129114286Y-86607200D02*
X129209524Y-86654819D01*
X129209524Y-86654819D02*
X129400000Y-86654819D01*
X129400000Y-86654819D02*
X129495238Y-86607200D01*
X129495238Y-86607200D02*
X129542857Y-86559580D01*
X129542857Y-86559580D02*
X129590476Y-86464342D01*
X129590476Y-86464342D02*
X129590476Y-86273866D01*
X129590476Y-86273866D02*
X129542857Y-86178628D01*
X129542857Y-86178628D02*
X129495238Y-86131009D01*
X129495238Y-86131009D02*
X129400000Y-86083390D01*
X104238095Y-89354819D02*
X104238095Y-90164342D01*
X104238095Y-90164342D02*
X104285714Y-90259580D01*
X104285714Y-90259580D02*
X104333333Y-90307200D01*
X104333333Y-90307200D02*
X104428571Y-90354819D01*
X104428571Y-90354819D02*
X104619047Y-90354819D01*
X104619047Y-90354819D02*
X104714285Y-90307200D01*
X104714285Y-90307200D02*
X104761904Y-90259580D01*
X104761904Y-90259580D02*
X104809523Y-90164342D01*
X104809523Y-90164342D02*
X104809523Y-89354819D01*
X105809523Y-90354819D02*
X105238095Y-90354819D01*
X105523809Y-90354819D02*
X105523809Y-89354819D01*
X105523809Y-89354819D02*
X105428571Y-89497676D01*
X105428571Y-89497676D02*
X105333333Y-89592914D01*
X105333333Y-89592914D02*
X105238095Y-89640533D01*
D11*
X99714286Y-64763595D02*
X99333334Y-64763595D01*
X99333334Y-64763595D02*
X99333334Y-63963595D01*
X100285715Y-64725500D02*
X100209524Y-64763595D01*
X100209524Y-64763595D02*
X100057143Y-64763595D01*
X100057143Y-64763595D02*
X99980953Y-64725500D01*
X99980953Y-64725500D02*
X99942857Y-64649309D01*
X99942857Y-64649309D02*
X99942857Y-64344547D01*
X99942857Y-64344547D02*
X99980953Y-64268357D01*
X99980953Y-64268357D02*
X100057143Y-64230261D01*
X100057143Y-64230261D02*
X100209524Y-64230261D01*
X100209524Y-64230261D02*
X100285715Y-64268357D01*
X100285715Y-64268357D02*
X100323810Y-64344547D01*
X100323810Y-64344547D02*
X100323810Y-64420738D01*
X100323810Y-64420738D02*
X99942857Y-64496928D01*
X100971429Y-64725500D02*
X100895238Y-64763595D01*
X100895238Y-64763595D02*
X100742857Y-64763595D01*
X100742857Y-64763595D02*
X100666667Y-64725500D01*
X100666667Y-64725500D02*
X100628571Y-64649309D01*
X100628571Y-64649309D02*
X100628571Y-64344547D01*
X100628571Y-64344547D02*
X100666667Y-64268357D01*
X100666667Y-64268357D02*
X100742857Y-64230261D01*
X100742857Y-64230261D02*
X100895238Y-64230261D01*
X100895238Y-64230261D02*
X100971429Y-64268357D01*
X100971429Y-64268357D02*
X101009524Y-64344547D01*
X101009524Y-64344547D02*
X101009524Y-64420738D01*
X101009524Y-64420738D02*
X100628571Y-64496928D01*
X101352381Y-64763595D02*
X101352381Y-64230261D01*
X101352381Y-64382642D02*
X101390476Y-64306452D01*
X101390476Y-64306452D02*
X101428571Y-64268357D01*
X101428571Y-64268357D02*
X101504762Y-64230261D01*
X101504762Y-64230261D02*
X101580952Y-64230261D01*
X104952380Y-66263595D02*
X105219047Y-67063595D01*
X105219047Y-67063595D02*
X105485713Y-66263595D01*
X105866665Y-67063595D02*
X105790475Y-67025500D01*
X105790475Y-67025500D02*
X105752380Y-66987404D01*
X105752380Y-66987404D02*
X105714284Y-66911214D01*
X105714284Y-66911214D02*
X105714284Y-66682642D01*
X105714284Y-66682642D02*
X105752380Y-66606452D01*
X105752380Y-66606452D02*
X105790475Y-66568357D01*
X105790475Y-66568357D02*
X105866665Y-66530261D01*
X105866665Y-66530261D02*
X105980951Y-66530261D01*
X105980951Y-66530261D02*
X106057142Y-66568357D01*
X106057142Y-66568357D02*
X106095237Y-66606452D01*
X106095237Y-66606452D02*
X106133332Y-66682642D01*
X106133332Y-66682642D02*
X106133332Y-66911214D01*
X106133332Y-66911214D02*
X106095237Y-66987404D01*
X106095237Y-66987404D02*
X106057142Y-67025500D01*
X106057142Y-67025500D02*
X105980951Y-67063595D01*
X105980951Y-67063595D02*
X105866665Y-67063595D01*
X106590475Y-67063595D02*
X106514285Y-67025500D01*
X106514285Y-67025500D02*
X106476190Y-66949309D01*
X106476190Y-66949309D02*
X106476190Y-66263595D01*
X107009523Y-67063595D02*
X106933333Y-67025500D01*
X106933333Y-67025500D02*
X106895238Y-66949309D01*
X106895238Y-66949309D02*
X106895238Y-66263595D01*
D12*
X102710000Y-120559420D02*
X102710000Y-120840580D01*
X101690000Y-120559420D02*
X101690000Y-120840580D01*
X103175580Y-83610000D02*
X102894420Y-83610000D01*
X103175580Y-82590000D02*
X102894420Y-82590000D01*
X116384420Y-114090000D02*
X116665580Y-114090000D01*
X116384420Y-115110000D02*
X116665580Y-115110000D01*
X123465000Y-109040000D02*
X123465000Y-110960000D01*
X123465000Y-110960000D02*
X126150000Y-110960000D01*
X126150000Y-109040000D02*
X123465000Y-109040000D01*
X104322500Y-120462742D02*
X104322500Y-120937258D01*
X103277500Y-120462742D02*
X103277500Y-120937258D01*
X114122500Y-84362742D02*
X114122500Y-84837258D01*
X113077500Y-84362742D02*
X113077500Y-84837258D01*
X101177500Y-70662258D02*
X101177500Y-70187742D01*
X102222500Y-70662258D02*
X102222500Y-70187742D01*
X96834420Y-68490000D02*
X97115580Y-68490000D01*
X96834420Y-69510000D02*
X97115580Y-69510000D01*
X98338748Y-117365000D02*
X98861252Y-117365000D01*
X98338748Y-118835000D02*
X98861252Y-118835000D01*
X138230000Y-99105000D02*
X136900000Y-99105000D01*
X138230000Y-97775000D02*
X138230000Y-99105000D01*
X138230000Y-96505000D02*
X138230000Y-93905000D01*
X138230000Y-96505000D02*
X135570000Y-96505000D01*
X138230000Y-93905000D02*
X135570000Y-93905000D01*
X135570000Y-96505000D02*
X135570000Y-93905000D01*
X121562742Y-85677500D02*
X122037258Y-85677500D01*
X121562742Y-86722500D02*
X122037258Y-86722500D01*
D13*
X99185000Y-80525000D02*
X99185000Y-76525000D01*
X104285000Y-80525000D02*
X104285000Y-76525000D01*
D14*
X99330000Y-82970000D02*
G75*
G03*
X99330000Y-82970000I-100000J0D01*
G01*
D12*
X125350000Y-96450000D02*
X125350000Y-95110000D01*
X125350000Y-92390000D02*
X125350000Y-90650000D01*
X125350000Y-90650000D02*
X109050000Y-90650000D01*
X123860000Y-96450000D02*
X125350000Y-96450000D01*
X123860000Y-96450000D02*
X123860000Y-97650000D01*
X110540000Y-96450000D02*
X109050000Y-96450000D01*
X109050000Y-96450000D02*
X109050000Y-95110000D01*
X109050000Y-90650000D02*
X109050000Y-92390000D01*
X104770000Y-125830000D02*
X104770000Y-119370000D01*
X104800000Y-125830000D02*
X104770000Y-125830000D01*
X106700000Y-125830000D02*
X109300000Y-125830000D01*
X111230000Y-125830000D02*
X111200000Y-125830000D01*
X111230000Y-125830000D02*
X111230000Y-119370000D01*
X104770000Y-119370000D02*
X104800000Y-119370000D01*
X106700000Y-119370000D02*
X109300000Y-119370000D01*
X111230000Y-119370000D02*
X111200000Y-119370000D01*
X96990000Y-105250000D02*
X96990000Y-99240000D01*
X103810000Y-103000000D02*
X103810000Y-99240000D01*
X96990000Y-99240000D02*
X98250000Y-99240000D01*
X103810000Y-99240000D02*
X102550000Y-99240000D01*
D13*
X95485000Y-83750000D02*
X95485000Y-79250000D01*
X98515000Y-83750000D02*
X98515000Y-79250000D01*
D14*
X95725000Y-85940000D02*
G75*
G03*
X95725000Y-85940000I-100000J0D01*
G01*
D12*
X138230000Y-119030000D02*
X136900000Y-119030000D01*
X138230000Y-117700000D02*
X138230000Y-119030000D01*
X138230000Y-116430000D02*
X138230000Y-108750000D01*
X138230000Y-116430000D02*
X135570000Y-116430000D01*
X138230000Y-108750000D02*
X135570000Y-108750000D01*
X135570000Y-116430000D02*
X135570000Y-108750000D01*
X116400000Y-89760000D02*
X118075000Y-89760000D01*
X116400000Y-89760000D02*
X115750000Y-89760000D01*
X116400000Y-86640000D02*
X117050000Y-86640000D01*
X116400000Y-86640000D02*
X115750000Y-86640000D01*
X114877500Y-100037258D02*
X114877500Y-99562742D01*
X115922500Y-100037258D02*
X115922500Y-99562742D01*
X121562742Y-83477500D02*
X122037258Y-83477500D01*
X121562742Y-84522500D02*
X122037258Y-84522500D01*
D13*
X96100000Y-73800000D02*
G75*
G03*
X96100000Y-73800000I-100000J0D01*
G01*
D12*
X114040000Y-119599622D02*
X114040000Y-118800378D01*
X115160000Y-119599622D02*
X115160000Y-118800378D01*
X98338748Y-106065000D02*
X98861252Y-106065000D01*
X98338748Y-107535000D02*
X98861252Y-107535000D01*
X96990000Y-116550000D02*
X96990000Y-110540000D01*
X103810000Y-114300000D02*
X103810000Y-110540000D01*
X96990000Y-110540000D02*
X98250000Y-110540000D01*
X103810000Y-110540000D02*
X102550000Y-110540000D01*
X103175580Y-85210000D02*
X102894420Y-85210000D01*
X103175580Y-84190000D02*
X102894420Y-84190000D01*
X123515000Y-83040000D02*
X123515000Y-84960000D01*
X123515000Y-84960000D02*
X126200000Y-84960000D01*
X126200000Y-83040000D02*
X123515000Y-83040000D01*
X102461252Y-107535000D02*
X101938748Y-107535000D01*
X102461252Y-106065000D02*
X101938748Y-106065000D01*
X114122500Y-87962742D02*
X114122500Y-88437258D01*
X113077500Y-87962742D02*
X113077500Y-88437258D01*
X112530000Y-125680000D02*
X112530000Y-123980000D01*
X121870000Y-125680000D02*
X121870000Y-123980000D01*
X116490000Y-99940580D02*
X116490000Y-99659420D01*
X117510000Y-99940580D02*
X117510000Y-99659420D01*
X115877500Y-119437258D02*
X115877500Y-118962742D01*
X116922500Y-119437258D02*
X116922500Y-118962742D01*
X123465000Y-106840000D02*
X123465000Y-108760000D01*
X123465000Y-108760000D02*
X126150000Y-108760000D01*
X126150000Y-106840000D02*
X123465000Y-106840000D01*
X114322500Y-99562742D02*
X114322500Y-100037258D01*
X113277500Y-99562742D02*
X113277500Y-100037258D01*
X120187742Y-117877500D02*
X120662258Y-117877500D01*
X120187742Y-118922500D02*
X120662258Y-118922500D01*
X106190000Y-59440580D02*
X106190000Y-59159420D01*
X107210000Y-59440580D02*
X107210000Y-59159420D01*
X123515000Y-87640000D02*
X123515000Y-89560000D01*
X123515000Y-89560000D02*
X126200000Y-89560000D01*
X126200000Y-87640000D02*
X123515000Y-87640000D01*
X138230000Y-84330000D02*
X136900000Y-84330000D01*
X138230000Y-83000000D02*
X138230000Y-84330000D01*
X138230000Y-81730000D02*
X138230000Y-68970000D01*
X138230000Y-81730000D02*
X135570000Y-81730000D01*
X138230000Y-68970000D02*
X135570000Y-68970000D01*
X135570000Y-81730000D02*
X135570000Y-68970000D01*
X121562742Y-88077500D02*
X122037258Y-88077500D01*
X121562742Y-89122500D02*
X122037258Y-89122500D01*
D10*
X122500000Y-106125000D02*
X121925000Y-106125000D01*
X122500000Y-106125000D02*
X122500000Y-111875000D01*
X121925000Y-106125000D02*
X121925000Y-104525000D01*
X111850000Y-106125000D02*
X112500000Y-106125000D01*
X111850000Y-106125000D02*
X111850000Y-111875000D01*
X122500000Y-111875000D02*
X121850000Y-111875000D01*
X111850000Y-111875000D02*
X112500000Y-111875000D01*
D12*
X96859420Y-69990000D02*
X97140580Y-69990000D01*
X96859420Y-71010000D02*
X97140580Y-71010000D01*
X102777500Y-70662258D02*
X102777500Y-70187742D01*
X103822500Y-70662258D02*
X103822500Y-70187742D01*
X118540580Y-102710000D02*
X118259420Y-102710000D01*
X118540580Y-101690000D02*
X118259420Y-101690000D01*
X116288748Y-115665000D02*
X116811252Y-115665000D01*
X116288748Y-117135000D02*
X116811252Y-117135000D01*
X126672500Y-113162742D02*
X126672500Y-113637258D01*
X125627500Y-113162742D02*
X125627500Y-113637258D01*
X99477500Y-70637258D02*
X99477500Y-70162742D01*
X100522500Y-70637258D02*
X100522500Y-70162742D01*
X102015000Y-63365580D02*
X102015000Y-63084420D01*
X103035000Y-63365580D02*
X103035000Y-63084420D01*
X119490000Y-99940580D02*
X119490000Y-99659420D01*
X120510000Y-99940580D02*
X120510000Y-99659420D01*
X102461252Y-96235000D02*
X101938748Y-96235000D01*
X102461252Y-94765000D02*
X101938748Y-94765000D01*
X128937258Y-62552500D02*
X128462742Y-62552500D01*
X128937258Y-61507500D02*
X128462742Y-61507500D01*
X123515000Y-85240000D02*
X123515000Y-87160000D01*
X123515000Y-87160000D02*
X126200000Y-87160000D01*
X126200000Y-85240000D02*
X123515000Y-85240000D01*
X101057500Y-83662742D02*
X101057500Y-84137258D01*
X100012500Y-83662742D02*
X100012500Y-84137258D01*
X128937258Y-64322500D02*
X128462742Y-64322500D01*
X128937258Y-63277500D02*
X128462742Y-63277500D01*
X102461252Y-118835000D02*
X101938748Y-118835000D01*
X102461252Y-117365000D02*
X101938748Y-117365000D01*
X116400000Y-86160000D02*
X118075000Y-86160000D01*
X116400000Y-86160000D02*
X115750000Y-86160000D01*
X116400000Y-83040000D02*
X117050000Y-83040000D01*
X116400000Y-83040000D02*
X115750000Y-83040000D01*
X103965000Y-59761252D02*
X103965000Y-59238748D01*
X105435000Y-59761252D02*
X105435000Y-59238748D01*
X96990000Y-94000000D02*
X96990000Y-87990000D01*
X103810000Y-91750000D02*
X103810000Y-87990000D01*
X96990000Y-87990000D02*
X98250000Y-87990000D01*
X103810000Y-87990000D02*
X102550000Y-87990000D01*
X124872500Y-113162742D02*
X124872500Y-113637258D01*
X123827500Y-113162742D02*
X123827500Y-113637258D01*
X97337258Y-77122500D02*
X96862742Y-77122500D01*
X97337258Y-76077500D02*
X96862742Y-76077500D01*
X120259420Y-119490000D02*
X120540580Y-119490000D01*
X120259420Y-120510000D02*
X120540580Y-120510000D01*
X98338748Y-94765000D02*
X98861252Y-94765000D01*
X98338748Y-96235000D02*
X98861252Y-96235000D01*
X104647500Y-62962742D02*
X104647500Y-63437258D01*
X103602500Y-62962742D02*
X103602500Y-63437258D01*
X112710000Y-99659420D02*
X112710000Y-99940580D01*
X111690000Y-99659420D02*
X111690000Y-99940580D01*
X102640000Y-68385000D02*
X104560000Y-68385000D01*
X104560000Y-68385000D02*
X104560000Y-65700000D01*
X102640000Y-65700000D02*
X102640000Y-68385000D01*
D13*
X108200000Y-82450000D02*
X126200000Y-82450000D01*
%LPC*%
D15*
X102200000Y-119925000D03*
X102200000Y-121475000D03*
D16*
X103810000Y-83100000D03*
X102260000Y-83100000D03*
D17*
X115750000Y-114600000D03*
X117300000Y-114600000D03*
D18*
X124212500Y-110000000D03*
X126087500Y-110000000D03*
D19*
X103800000Y-119875000D03*
X103800000Y-121525000D03*
X113600000Y-83775000D03*
X113600000Y-85425000D03*
D20*
X101700000Y-71250000D03*
X101700000Y-69600000D03*
D17*
X96200000Y-69000000D03*
X97750000Y-69000000D03*
D21*
X97650000Y-118100000D03*
X99550000Y-118100000D03*
D22*
X136900000Y-97775000D03*
D23*
X136900000Y-95235000D03*
D24*
X120975000Y-86200000D03*
X122625000Y-86200000D03*
D25*
X99830000Y-81000000D03*
X101100000Y-81000000D03*
X102370000Y-81000000D03*
X103640000Y-81000000D03*
X103640000Y-76050000D03*
X102370000Y-76050000D03*
X101100000Y-76050000D03*
X99830000Y-76050000D03*
D26*
X101735000Y-78525000D03*
D27*
X123450000Y-97000000D03*
X122950000Y-97000000D03*
X122450000Y-97000000D03*
X121950000Y-97000000D03*
X121450000Y-97000000D03*
X120950000Y-97000000D03*
X120450000Y-97000000D03*
X119950000Y-97000000D03*
X119450000Y-97000000D03*
X118950000Y-97000000D03*
X118450000Y-97000000D03*
X117950000Y-97000000D03*
X117450000Y-97000000D03*
X116950000Y-97000000D03*
X116450000Y-97000000D03*
X115950000Y-97000000D03*
X115450000Y-97000000D03*
X114950000Y-97000000D03*
X114450000Y-97000000D03*
X113950000Y-97000000D03*
X113450000Y-97000000D03*
X112950000Y-97000000D03*
X112450000Y-97000000D03*
X111950000Y-97000000D03*
X111450000Y-97000000D03*
X110950000Y-97000000D03*
D28*
X125350000Y-93750000D03*
X109050000Y-93750000D03*
D29*
X105750000Y-126575000D03*
X105750000Y-118625000D03*
X110250000Y-126575000D03*
X110250000Y-118625000D03*
D30*
X98100000Y-104300000D03*
X100400000Y-104300000D03*
D31*
X100400000Y-98000000D03*
D30*
X102700000Y-104300000D03*
D32*
X96025000Y-84380000D03*
X96675000Y-84380000D03*
X97325000Y-84380000D03*
X97975000Y-84380000D03*
X97975000Y-78620000D03*
X97325000Y-78620000D03*
X96675000Y-78620000D03*
X96025000Y-78620000D03*
D22*
X136900000Y-117700000D03*
D23*
X136900000Y-115160000D03*
X136900000Y-112620000D03*
X136900000Y-110080000D03*
D33*
X117337500Y-89150000D03*
X117337500Y-87250000D03*
X115462500Y-88200000D03*
D20*
X115400000Y-100625000D03*
X115400000Y-98975000D03*
D24*
X120975000Y-84000000D03*
X122625000Y-84000000D03*
D34*
X96050000Y-74800000D03*
X97000000Y-74800000D03*
X97950000Y-74800000D03*
X97950000Y-72200000D03*
X97000000Y-72200000D03*
X96050000Y-72200000D03*
D35*
X114600000Y-120262500D03*
X114600000Y-118137500D03*
D21*
X97650000Y-106800000D03*
X99550000Y-106800000D03*
D36*
X99000000Y-61000000D03*
D37*
X99000000Y-61000000D03*
D30*
X98100000Y-115600000D03*
X100400000Y-115600000D03*
D31*
X100400000Y-109300000D03*
D30*
X102700000Y-115600000D03*
D16*
X103810000Y-84700000D03*
X102260000Y-84700000D03*
D18*
X124262500Y-84000000D03*
X126137500Y-84000000D03*
D38*
X103150000Y-106800000D03*
X101250000Y-106800000D03*
D19*
X113600000Y-87375000D03*
X113600000Y-89025000D03*
D39*
X114000000Y-122100000D03*
X114800000Y-122100000D03*
D40*
X115950000Y-122100000D03*
X116950000Y-122100000D03*
X117450000Y-122100000D03*
X118450000Y-122100000D03*
D39*
X119600000Y-122100000D03*
X120400000Y-122100000D03*
X120400000Y-122100000D03*
X119600000Y-122100000D03*
D40*
X118950000Y-122100000D03*
X117950000Y-122100000D03*
X116450000Y-122100000D03*
X115450000Y-122100000D03*
D39*
X114800000Y-122100000D03*
X114000000Y-122100000D03*
D41*
X112880000Y-122675000D03*
D42*
X112880000Y-126855000D03*
D41*
X121520000Y-122675000D03*
D42*
X121520000Y-126855000D03*
D43*
X117000000Y-100575000D03*
X117000000Y-99025000D03*
D20*
X116400000Y-120025000D03*
X116400000Y-118375000D03*
D18*
X124212500Y-107800000D03*
X126087500Y-107800000D03*
D19*
X113800000Y-98975000D03*
X113800000Y-100625000D03*
D24*
X119600000Y-118400000D03*
X121250000Y-118400000D03*
D43*
X106700000Y-60075000D03*
X106700000Y-58525000D03*
D18*
X124262500Y-88600000D03*
X126137500Y-88600000D03*
D22*
X136900000Y-83000000D03*
D23*
X136900000Y-80460000D03*
X136900000Y-77920000D03*
X136900000Y-75380000D03*
X136900000Y-72840000D03*
X136900000Y-70300000D03*
D24*
X120975000Y-88600000D03*
X122625000Y-88600000D03*
D44*
X121400000Y-105400000D03*
X120750000Y-105400000D03*
X120100000Y-105400000D03*
X119450000Y-105400000D03*
X118800000Y-105400000D03*
X118150000Y-105400000D03*
X117500000Y-105400000D03*
X116850000Y-105400000D03*
X116200000Y-105400000D03*
X115550000Y-105400000D03*
X114900000Y-105400000D03*
X114250000Y-105400000D03*
X113600000Y-105400000D03*
X112950000Y-105400000D03*
X112950000Y-112600000D03*
X113600000Y-112600000D03*
X114250000Y-112600000D03*
X114900000Y-112600000D03*
X115550000Y-112600000D03*
X116200000Y-112600000D03*
X116850000Y-112600000D03*
X117500000Y-112600000D03*
X118150000Y-112600000D03*
X118800000Y-112600000D03*
X119450000Y-112600000D03*
X120100000Y-112600000D03*
X120750000Y-112600000D03*
X121400000Y-112600000D03*
D45*
X136900000Y-66400000D03*
D17*
X96225000Y-70500000D03*
X97775000Y-70500000D03*
D20*
X103300000Y-71250000D03*
X103300000Y-69600000D03*
D16*
X119175000Y-102200000D03*
X117625000Y-102200000D03*
D21*
X115600000Y-116400000D03*
X117500000Y-116400000D03*
D36*
X135000000Y-126000000D03*
D37*
X135000000Y-126000000D03*
D36*
X135000000Y-61000000D03*
D37*
X135000000Y-61000000D03*
D19*
X126150000Y-112575000D03*
X126150000Y-114225000D03*
D45*
X97000000Y-66200000D03*
D20*
X100000000Y-71225000D03*
X100000000Y-69575000D03*
D43*
X102525000Y-64000000D03*
X102525000Y-62450000D03*
X120000000Y-100575000D03*
X120000000Y-99025000D03*
D38*
X103150000Y-95500000D03*
X101250000Y-95500000D03*
D46*
X129525000Y-62030000D03*
X127875000Y-62030000D03*
D18*
X124262500Y-86200000D03*
X126137500Y-86200000D03*
D36*
X99000000Y-126000000D03*
D37*
X99000000Y-126000000D03*
D19*
X100535000Y-83075000D03*
X100535000Y-84725000D03*
D46*
X129525000Y-63800000D03*
X127875000Y-63800000D03*
D38*
X103150000Y-118100000D03*
X101250000Y-118100000D03*
D33*
X117337500Y-85550000D03*
X117337500Y-83650000D03*
X115462500Y-84600000D03*
D47*
X104700000Y-60450000D03*
X104700000Y-58550000D03*
D30*
X98100000Y-93050000D03*
X100400000Y-93050000D03*
D31*
X100400000Y-86750000D03*
D30*
X102700000Y-93050000D03*
D19*
X124350000Y-112575000D03*
X124350000Y-114225000D03*
D46*
X97925000Y-76600000D03*
X96275000Y-76600000D03*
D17*
X119625000Y-120000000D03*
X121175000Y-120000000D03*
D48*
X101500000Y-67637500D03*
X101500000Y-65762500D03*
D21*
X97650000Y-95500000D03*
X99550000Y-95500000D03*
D19*
X104125000Y-62375000D03*
X104125000Y-64025000D03*
D15*
X112200000Y-99025000D03*
X112200000Y-100575000D03*
D48*
X103600000Y-67637500D03*
X103600000Y-65762500D03*
D49*
X108450000Y-58490000D03*
X108450000Y-59760000D03*
X108450000Y-61030000D03*
X108450000Y-62300000D03*
X108450000Y-63570000D03*
X108450000Y-64840000D03*
X108450000Y-66110000D03*
X108450000Y-67380000D03*
X108450000Y-68650000D03*
X108450000Y-69920000D03*
X108450000Y-71190000D03*
X108450000Y-72460000D03*
X108450000Y-73730000D03*
X108450000Y-75000000D03*
X108450000Y-76270000D03*
X108450000Y-77540000D03*
X108450000Y-78810000D03*
X108450000Y-80080000D03*
X108450000Y-81350000D03*
X125950000Y-81350000D03*
X125950000Y-80080000D03*
X125950000Y-78810000D03*
X125950000Y-77540000D03*
X125950000Y-76270000D03*
X125950000Y-75000000D03*
X125950000Y-73730000D03*
X125950000Y-72460000D03*
X125950000Y-71190000D03*
X125950000Y-69920000D03*
X125950000Y-68650000D03*
X125950000Y-67380000D03*
X125950000Y-66110000D03*
X125950000Y-64840000D03*
X125950000Y-63570000D03*
X125950000Y-62300000D03*
X125950000Y-61030000D03*
X125950000Y-59760000D03*
X125950000Y-58490000D03*
D50*
X114300000Y-64890000D03*
X115700000Y-64890000D03*
X117100000Y-64890000D03*
X114300000Y-66290000D03*
X115700000Y-66290000D03*
X117100000Y-66290000D03*
X114300000Y-67690000D03*
X115700000Y-67690000D03*
X117100000Y-67690000D03*
%LPD*%
M02*
