%TF.GenerationSoftware,KiCad,Pcbnew,7.0.9*%
%TF.CreationDate,2024-01-11T22:44:25+01:00*%
%TF.ProjectId,CameraV1,43616d65-7261-4563-912e-6b696361645f,rev?*%
%TF.SameCoordinates,Original*%
%TF.FileFunction,Drillmap*%
%TF.FilePolarity,Positive*%
%FSLAX45Y45*%
G04 Gerber Fmt 4.5, Leading zero omitted, Abs format (unit mm)*
G04 Created by KiCad (PCBNEW 7.0.9) date 2024-01-11 22:44:25*
%MOMM*%
%LPD*%
G01*
G04 APERTURE LIST*
%ADD10C,0.100000*%
%ADD11C,0.200000*%
G04 APERTURE END LIST*
D10*
X13500000Y-13000000D02*
G75*
G03*
X13900000Y-12600000I0J400000D01*
G01*
X13900000Y-6100000D02*
G75*
G03*
X13500000Y-5700000I-400000J0D01*
G01*
X9500000Y-6100000D02*
X9500000Y-12600000D01*
X13900000Y-12600000D02*
X13900000Y-6100000D01*
X9900000Y-13000000D02*
X13500000Y-13000000D01*
X9900000Y-5700000D02*
G75*
G03*
X9500000Y-6100000I0J-400000D01*
G01*
X9500000Y-12600000D02*
G75*
G03*
X9900000Y-13000000I400000J0D01*
G01*
X13500000Y-5700000D02*
X9900000Y-5700000D01*
D11*
X9755777Y-13316484D02*
X9755777Y-13116484D01*
X9755777Y-13116484D02*
X9803396Y-13116484D01*
X9803396Y-13116484D02*
X9831967Y-13126008D01*
X9831967Y-13126008D02*
X9851015Y-13145055D01*
X9851015Y-13145055D02*
X9860539Y-13164103D01*
X9860539Y-13164103D02*
X9870063Y-13202198D01*
X9870063Y-13202198D02*
X9870063Y-13230769D01*
X9870063Y-13230769D02*
X9860539Y-13268865D01*
X9860539Y-13268865D02*
X9851015Y-13287912D01*
X9851015Y-13287912D02*
X9831967Y-13306960D01*
X9831967Y-13306960D02*
X9803396Y-13316484D01*
X9803396Y-13316484D02*
X9755777Y-13316484D01*
X9955777Y-13316484D02*
X9955777Y-13183150D01*
X9955777Y-13221246D02*
X9965301Y-13202198D01*
X9965301Y-13202198D02*
X9974824Y-13192674D01*
X9974824Y-13192674D02*
X9993872Y-13183150D01*
X9993872Y-13183150D02*
X10012920Y-13183150D01*
X10079586Y-13316484D02*
X10079586Y-13183150D01*
X10079586Y-13116484D02*
X10070063Y-13126008D01*
X10070063Y-13126008D02*
X10079586Y-13135531D01*
X10079586Y-13135531D02*
X10089110Y-13126008D01*
X10089110Y-13126008D02*
X10079586Y-13116484D01*
X10079586Y-13116484D02*
X10079586Y-13135531D01*
X10203396Y-13316484D02*
X10184348Y-13306960D01*
X10184348Y-13306960D02*
X10174824Y-13287912D01*
X10174824Y-13287912D02*
X10174824Y-13116484D01*
X10308158Y-13316484D02*
X10289110Y-13306960D01*
X10289110Y-13306960D02*
X10279586Y-13287912D01*
X10279586Y-13287912D02*
X10279586Y-13116484D01*
X10536729Y-13316484D02*
X10536729Y-13116484D01*
X10536729Y-13116484D02*
X10603396Y-13259341D01*
X10603396Y-13259341D02*
X10670063Y-13116484D01*
X10670063Y-13116484D02*
X10670063Y-13316484D01*
X10851015Y-13316484D02*
X10851015Y-13211722D01*
X10851015Y-13211722D02*
X10841491Y-13192674D01*
X10841491Y-13192674D02*
X10822444Y-13183150D01*
X10822444Y-13183150D02*
X10784348Y-13183150D01*
X10784348Y-13183150D02*
X10765301Y-13192674D01*
X10851015Y-13306960D02*
X10831967Y-13316484D01*
X10831967Y-13316484D02*
X10784348Y-13316484D01*
X10784348Y-13316484D02*
X10765301Y-13306960D01*
X10765301Y-13306960D02*
X10755777Y-13287912D01*
X10755777Y-13287912D02*
X10755777Y-13268865D01*
X10755777Y-13268865D02*
X10765301Y-13249817D01*
X10765301Y-13249817D02*
X10784348Y-13240293D01*
X10784348Y-13240293D02*
X10831967Y-13240293D01*
X10831967Y-13240293D02*
X10851015Y-13230769D01*
X10946253Y-13183150D02*
X10946253Y-13383150D01*
X10946253Y-13192674D02*
X10965301Y-13183150D01*
X10965301Y-13183150D02*
X11003396Y-13183150D01*
X11003396Y-13183150D02*
X11022444Y-13192674D01*
X11022444Y-13192674D02*
X11031967Y-13202198D01*
X11031967Y-13202198D02*
X11041491Y-13221246D01*
X11041491Y-13221246D02*
X11041491Y-13278388D01*
X11041491Y-13278388D02*
X11031967Y-13297436D01*
X11031967Y-13297436D02*
X11022444Y-13306960D01*
X11022444Y-13306960D02*
X11003396Y-13316484D01*
X11003396Y-13316484D02*
X10965301Y-13316484D01*
X10965301Y-13316484D02*
X10946253Y-13306960D01*
X11127205Y-13297436D02*
X11136729Y-13306960D01*
X11136729Y-13306960D02*
X11127205Y-13316484D01*
X11127205Y-13316484D02*
X11117682Y-13306960D01*
X11117682Y-13306960D02*
X11127205Y-13297436D01*
X11127205Y-13297436D02*
X11127205Y-13316484D01*
X11127205Y-13192674D02*
X11136729Y-13202198D01*
X11136729Y-13202198D02*
X11127205Y-13211722D01*
X11127205Y-13211722D02*
X11117682Y-13202198D01*
X11117682Y-13202198D02*
X11127205Y-13192674D01*
X11127205Y-13192674D02*
X11127205Y-13211722D01*
M02*
