%TF.GenerationSoftware,KiCad,Pcbnew,7.0.9*%
%TF.CreationDate,2024-01-11T22:44:25+01:00*%
%TF.ProjectId,CameraV1,43616d65-7261-4563-912e-6b696361645f,rev?*%
%TF.SameCoordinates,Original*%
%TF.FileFunction,Drillmap*%
%TF.FilePolarity,Positive*%
%FSLAX45Y45*%
G04 Gerber Fmt 4.5, Leading zero omitted, Abs format (unit mm)*
G04 Created by KiCad (PCBNEW 7.0.9) date 2024-01-11 22:44:25*
%MOMM*%
%LPD*%
G01*
G04 APERTURE LIST*
%ADD10C,0.100000*%
%ADD11C,0.200000*%
%ADD12C,0.155000*%
%ADD13C,0.250000*%
G04 APERTURE END LIST*
D10*
X13500000Y-13000000D02*
G75*
G03*
X13900000Y-12600000I0J400000D01*
G01*
X13900000Y-6100000D02*
G75*
G03*
X13500000Y-5700000I-400000J0D01*
G01*
X9500000Y-6100000D02*
X9500000Y-12600000D01*
X13900000Y-12600000D02*
X13900000Y-6100000D01*
X9900000Y-13000000D02*
X13500000Y-13000000D01*
X9900000Y-5700000D02*
G75*
G03*
X9500000Y-6100000I0J-400000D01*
G01*
X9500000Y-12600000D02*
G75*
G03*
X9900000Y-13000000I400000J0D01*
G01*
X13500000Y-5700000D02*
X9900000Y-5700000D01*
D11*
D10*
X9595000Y-7305000D02*
X9625000Y-7335000D01*
X9625000Y-7305000D02*
X9595000Y-7335000D01*
X9645000Y-7985000D02*
X9675000Y-8015000D01*
X9675000Y-7985000D02*
X9645000Y-8015000D01*
X9715000Y-8545000D02*
X9745000Y-8575000D01*
X9745000Y-8545000D02*
X9715000Y-8575000D01*
X9745000Y-6805000D02*
X9775000Y-6835000D01*
X9775000Y-6805000D02*
X9745000Y-6835000D01*
X9745000Y-8665000D02*
X9775000Y-8695000D01*
X9775000Y-8665000D02*
X9745000Y-8695000D01*
X9805000Y-10275000D02*
X9835000Y-10305000D01*
X9835000Y-10275000D02*
X9805000Y-10305000D01*
X9815000Y-11415000D02*
X9845000Y-11445000D01*
X9845000Y-11415000D02*
X9815000Y-11445000D01*
X9985000Y-8805000D02*
X10015000Y-8835000D01*
X10015000Y-8805000D02*
X9985000Y-8835000D01*
X9995000Y-6775000D02*
X10025000Y-6805000D01*
X10025000Y-6775000D02*
X9995000Y-6805000D01*
X10045000Y-9925000D02*
X10075000Y-9955000D01*
X10075000Y-9925000D02*
X10045000Y-9955000D01*
X10045000Y-10265000D02*
X10075000Y-10295000D01*
X10075000Y-10265000D02*
X10045000Y-10295000D01*
X10045000Y-11415000D02*
X10075000Y-11445000D01*
X10075000Y-11415000D02*
X10045000Y-11445000D01*
X10055000Y-11065000D02*
X10085000Y-11095000D01*
X10085000Y-11065000D02*
X10055000Y-11095000D01*
X10095000Y-7205000D02*
X10125000Y-7235000D01*
X10125000Y-7205000D02*
X10095000Y-7235000D01*
X10095000Y-7395000D02*
X10125000Y-7425000D01*
X10125000Y-7395000D02*
X10095000Y-7425000D01*
X10095000Y-9165000D02*
X10125000Y-9195000D01*
X10125000Y-9165000D02*
X10095000Y-9195000D01*
X10185000Y-9165000D02*
X10215000Y-9195000D01*
X10215000Y-9165000D02*
X10185000Y-9195000D01*
X10225000Y-7205000D02*
X10255000Y-7235000D01*
X10255000Y-7205000D02*
X10225000Y-7235000D01*
X10225000Y-7395000D02*
X10255000Y-7425000D01*
X10255000Y-7395000D02*
X10225000Y-7425000D01*
X10265000Y-6155000D02*
X10295000Y-6185000D01*
X10295000Y-6155000D02*
X10265000Y-6185000D01*
X10345000Y-7395000D02*
X10375000Y-7425000D01*
X10375000Y-7395000D02*
X10345000Y-7425000D01*
X10355000Y-7835000D02*
X10385000Y-7865000D01*
X10385000Y-7835000D02*
X10355000Y-7865000D01*
X10365000Y-5885000D02*
X10395000Y-5915000D01*
X10395000Y-5885000D02*
X10365000Y-5915000D01*
X10365000Y-5985000D02*
X10395000Y-6015000D01*
X10395000Y-5985000D02*
X10365000Y-6015000D01*
X10375000Y-6155000D02*
X10405000Y-6185000D01*
X10405000Y-6155000D02*
X10375000Y-6185000D01*
X10455000Y-12035000D02*
X10485000Y-12065000D01*
X10485000Y-12035000D02*
X10455000Y-12065000D01*
X10475000Y-11665000D02*
X10505000Y-11695000D01*
X10505000Y-11665000D02*
X10475000Y-11695000D01*
X10555000Y-7035000D02*
X10585000Y-7065000D01*
X10585000Y-7035000D02*
X10555000Y-7065000D01*
X10625000Y-10185000D02*
X10655000Y-10215000D01*
X10655000Y-10185000D02*
X10625000Y-10215000D01*
X10625000Y-10625000D02*
X10655000Y-10655000D01*
X10655000Y-10625000D02*
X10625000Y-10655000D01*
X10665000Y-6855000D02*
X10695000Y-6885000D01*
X10695000Y-6855000D02*
X10665000Y-6885000D01*
X10905000Y-11895000D02*
X10935000Y-11925000D01*
X10935000Y-11895000D02*
X10905000Y-11925000D01*
X10915000Y-12655000D02*
X10945000Y-12685000D01*
X10945000Y-12655000D02*
X10915000Y-12685000D01*
X10985000Y-7365000D02*
X11015000Y-7395000D01*
X11015000Y-7365000D02*
X10985000Y-7395000D01*
X10985000Y-7605000D02*
X11015000Y-7635000D01*
X11015000Y-7605000D02*
X10985000Y-7635000D01*
X10985000Y-7745000D02*
X11015000Y-7775000D01*
X11015000Y-7745000D02*
X10985000Y-7775000D01*
X10995000Y-11655000D02*
X11025000Y-11685000D01*
X11025000Y-11655000D02*
X10995000Y-11685000D01*
X11115000Y-9545000D02*
X11145000Y-9575000D01*
X11145000Y-9545000D02*
X11115000Y-9575000D01*
X11135000Y-9375000D02*
X11165000Y-9405000D01*
X11165000Y-9375000D02*
X11135000Y-9405000D01*
X11185000Y-9545000D02*
X11215000Y-9575000D01*
X11215000Y-9545000D02*
X11185000Y-9575000D01*
X11225000Y-8525000D02*
X11255000Y-8555000D01*
X11255000Y-8525000D02*
X11225000Y-8555000D01*
X11225000Y-10125000D02*
X11255000Y-10155000D01*
X11255000Y-10125000D02*
X11225000Y-10155000D01*
X11275000Y-8375000D02*
X11305000Y-8405000D01*
X11305000Y-8375000D02*
X11275000Y-8405000D01*
X11275000Y-8735000D02*
X11305000Y-8765000D01*
X11305000Y-8735000D02*
X11275000Y-8765000D01*
X11285000Y-11985000D02*
X11315000Y-12015000D01*
X11315000Y-11985000D02*
X11285000Y-12015000D01*
X11335000Y-10125000D02*
X11365000Y-10155000D01*
X11365000Y-10125000D02*
X11335000Y-10155000D01*
X11345000Y-6615000D02*
X11375000Y-6645000D01*
X11375000Y-6615000D02*
X11345000Y-6645000D01*
X11345000Y-12095000D02*
X11375000Y-12125000D01*
X11375000Y-12095000D02*
X11345000Y-12125000D01*
X11415000Y-6405000D02*
X11445000Y-6435000D01*
X11445000Y-6405000D02*
X11415000Y-6435000D01*
X11415000Y-6835000D02*
X11445000Y-6865000D01*
X11445000Y-6835000D02*
X11415000Y-6865000D01*
X11445000Y-10145000D02*
X11475000Y-10175000D01*
X11475000Y-10145000D02*
X11445000Y-10175000D01*
X11465000Y-12325000D02*
X11495000Y-12355000D01*
X11495000Y-12325000D02*
X11465000Y-12355000D01*
X11465000Y-12585000D02*
X11495000Y-12615000D01*
X11495000Y-12585000D02*
X11465000Y-12615000D01*
X11495000Y-8045000D02*
X11525000Y-8075000D01*
X11525000Y-8045000D02*
X11495000Y-8075000D01*
X11495000Y-8175000D02*
X11525000Y-8205000D01*
X11525000Y-8175000D02*
X11495000Y-8205000D01*
X11495000Y-9335000D02*
X11525000Y-9365000D01*
X11525000Y-9335000D02*
X11495000Y-9365000D01*
X11555000Y-6395000D02*
X11585000Y-6425000D01*
X11585000Y-6395000D02*
X11555000Y-6425000D01*
X11555000Y-6835000D02*
X11585000Y-6865000D01*
X11585000Y-6835000D02*
X11555000Y-6865000D01*
X11585000Y-9225000D02*
X11615000Y-9255000D01*
X11615000Y-9225000D02*
X11585000Y-9255000D01*
X11585000Y-11085000D02*
X11615000Y-11115000D01*
X11615000Y-11085000D02*
X11585000Y-11115000D01*
X11615000Y-8695000D02*
X11645000Y-8725000D01*
X11645000Y-8695000D02*
X11615000Y-8725000D01*
X11635000Y-11750000D02*
X11665000Y-11780000D01*
X11665000Y-11750000D02*
X11635000Y-11780000D01*
X11685000Y-9335000D02*
X11715000Y-9365000D01*
X11715000Y-9335000D02*
X11685000Y-9365000D01*
X11695000Y-6835000D02*
X11725000Y-6865000D01*
X11725000Y-6835000D02*
X11695000Y-6865000D01*
X11735000Y-10695000D02*
X11765000Y-10725000D01*
X11765000Y-10695000D02*
X11735000Y-10725000D01*
X11735000Y-11755000D02*
X11765000Y-11785000D01*
X11765000Y-11755000D02*
X11735000Y-11785000D01*
X11745000Y-11065000D02*
X11775000Y-11095000D01*
X11775000Y-11065000D02*
X11745000Y-11095000D01*
X11755000Y-6475000D02*
X11785000Y-6505000D01*
X11785000Y-6475000D02*
X11755000Y-6505000D01*
X11755000Y-6615000D02*
X11785000Y-6645000D01*
X11785000Y-6615000D02*
X11755000Y-6645000D01*
X11765000Y-9915000D02*
X11795000Y-9945000D01*
X11795000Y-9915000D02*
X11765000Y-9945000D01*
X11765000Y-10005000D02*
X11795000Y-10035000D01*
X11795000Y-10005000D02*
X11765000Y-10035000D01*
X11795000Y-10325000D02*
X11825000Y-10355000D01*
X11825000Y-10325000D02*
X11795000Y-10355000D01*
X11795000Y-10875000D02*
X11825000Y-10905000D01*
X11825000Y-10875000D02*
X11795000Y-10905000D01*
X11815000Y-8335000D02*
X11845000Y-8365000D01*
X11845000Y-8335000D02*
X11815000Y-8365000D01*
X11815000Y-9225000D02*
X11845000Y-9255000D01*
X11845000Y-9225000D02*
X11815000Y-9255000D01*
X11825000Y-7875000D02*
X11855000Y-7905000D01*
X11855000Y-7875000D02*
X11825000Y-7905000D01*
X11855000Y-9815000D02*
X11885000Y-9845000D01*
X11885000Y-9815000D02*
X11855000Y-9845000D01*
X11915000Y-7875000D02*
X11945000Y-7905000D01*
X11945000Y-7875000D02*
X11915000Y-7905000D01*
X11975000Y-10105000D02*
X12005000Y-10135000D01*
X12005000Y-10105000D02*
X11975000Y-10135000D01*
X11985000Y-9115000D02*
X12015000Y-9145000D01*
X12015000Y-9115000D02*
X11985000Y-9145000D01*
X11985000Y-11485000D02*
X12015000Y-11515000D01*
X12015000Y-11485000D02*
X11985000Y-11515000D01*
X12015000Y-8365000D02*
X12045000Y-8395000D01*
X12045000Y-8365000D02*
X12015000Y-8395000D01*
X12015000Y-8595000D02*
X12045000Y-8625000D01*
X12045000Y-8595000D02*
X12015000Y-8625000D01*
X12015000Y-8835000D02*
X12045000Y-8865000D01*
X12045000Y-8835000D02*
X12015000Y-8865000D01*
X12045000Y-10325000D02*
X12075000Y-10355000D01*
X12075000Y-10325000D02*
X12045000Y-10355000D01*
X12075000Y-9115000D02*
X12105000Y-9145000D01*
X12105000Y-9115000D02*
X12075000Y-9145000D01*
X12115000Y-8185000D02*
X12145000Y-8215000D01*
X12145000Y-8185000D02*
X12115000Y-8215000D01*
X12125000Y-7945000D02*
X12155000Y-7975000D01*
X12155000Y-7945000D02*
X12125000Y-7975000D01*
X12195000Y-11845000D02*
X12225000Y-11875000D01*
X12225000Y-11845000D02*
X12195000Y-11875000D01*
X12235000Y-9195000D02*
X12265000Y-9225000D01*
X12265000Y-9195000D02*
X12235000Y-9225000D01*
X12285000Y-10985000D02*
X12315000Y-11015000D01*
X12315000Y-10985000D02*
X12285000Y-11015000D01*
X12322450Y-9195000D02*
X12352450Y-9225000D01*
X12352450Y-9195000D02*
X12322450Y-9225000D01*
X12345000Y-6205000D02*
X12375000Y-6235000D01*
X12375000Y-6205000D02*
X12345000Y-6235000D01*
X12345000Y-6335000D02*
X12375000Y-6365000D01*
X12375000Y-6335000D02*
X12345000Y-6365000D01*
X12345000Y-8315000D02*
X12375000Y-8345000D01*
X12375000Y-8315000D02*
X12345000Y-8345000D01*
X12365000Y-9355000D02*
X12395000Y-9385000D01*
X12395000Y-9355000D02*
X12365000Y-9385000D01*
X12375000Y-7885000D02*
X12405000Y-7915000D01*
X12405000Y-7885000D02*
X12375000Y-7915000D01*
X12375000Y-8005000D02*
X12405000Y-8035000D01*
X12405000Y-8005000D02*
X12375000Y-8035000D01*
X12715000Y-9305000D02*
X12745000Y-9335000D01*
X12745000Y-9305000D02*
X12715000Y-9335000D01*
X12725000Y-5835000D02*
X12755000Y-5865000D01*
X12755000Y-5835000D02*
X12725000Y-5865000D01*
X12755000Y-7265000D02*
X12785000Y-7295000D01*
X12785000Y-7265000D02*
X12755000Y-7295000D01*
X12855000Y-8935000D02*
X12885000Y-8965000D01*
X12885000Y-8935000D02*
X12855000Y-8965000D01*
X12855000Y-9205000D02*
X12885000Y-9235000D01*
X12885000Y-9205000D02*
X12855000Y-9235000D01*
X12985000Y-8935000D02*
X13015000Y-8965000D01*
X13015000Y-8935000D02*
X12985000Y-8965000D01*
X13135000Y-9115000D02*
X13165000Y-9145000D01*
X13165000Y-9115000D02*
X13135000Y-9145000D01*
X13185000Y-10625000D02*
X13215000Y-10655000D01*
X13215000Y-10625000D02*
X13185000Y-10655000D01*
X13185000Y-10905000D02*
X13215000Y-10935000D01*
X13215000Y-10905000D02*
X13185000Y-10935000D01*
X13455000Y-9115000D02*
X13485000Y-9145000D01*
X13485000Y-9115000D02*
X13455000Y-9145000D01*
X13545000Y-7015000D02*
X13575000Y-7045000D01*
X13575000Y-7015000D02*
X13545000Y-7045000D01*
X13545000Y-7523000D02*
X13575000Y-7553000D01*
X13575000Y-7523000D02*
X13545000Y-7553000D01*
X13545000Y-8995000D02*
X13575000Y-9025000D01*
X13575000Y-8995000D02*
X13545000Y-9025000D01*
X13555000Y-7269000D02*
X13585000Y-7299000D01*
X13585000Y-7269000D02*
X13555000Y-7299000D01*
X13555000Y-7775000D02*
X13585000Y-7805000D01*
X13585000Y-7775000D02*
X13555000Y-7805000D01*
X13555000Y-8031000D02*
X13585000Y-8061000D01*
X13585000Y-8031000D02*
X13555000Y-8061000D01*
X11318000Y-12267500D02*
G75*
G03*
X11318000Y-12267500I-30000J0D01*
G01*
X11258000Y-12212500D02*
X11258000Y-12322500D01*
X11258000Y-12322500D02*
G75*
G03*
X11318000Y-12322500I30000J0D01*
G01*
X11318000Y-12322500D02*
X11318000Y-12212500D01*
X11318000Y-12212500D02*
G75*
G03*
X11258000Y-12212500I-30000J0D01*
G01*
X11318000Y-12685500D02*
G75*
G03*
X11318000Y-12685500I-30000J0D01*
G01*
X11258000Y-12645500D02*
X11258000Y-12725500D01*
X11258000Y-12725500D02*
G75*
G03*
X11318000Y-12725500I30000J0D01*
G01*
X11318000Y-12725500D02*
X11318000Y-12645500D01*
X11318000Y-12645500D02*
G75*
G03*
X11258000Y-12645500I-30000J0D01*
G01*
X12182000Y-12267500D02*
G75*
G03*
X12182000Y-12267500I-30000J0D01*
G01*
X12122000Y-12212500D02*
X12122000Y-12322500D01*
X12122000Y-12322500D02*
G75*
G03*
X12182000Y-12322500I30000J0D01*
G01*
X12182000Y-12322500D02*
X12182000Y-12212500D01*
X12182000Y-12212500D02*
G75*
G03*
X12122000Y-12212500I-30000J0D01*
G01*
X12182000Y-12685500D02*
G75*
G03*
X12182000Y-12685500I-30000J0D01*
G01*
X12122000Y-12645500D02*
X12122000Y-12725500D01*
X12122000Y-12725500D02*
G75*
G03*
X12182000Y-12725500I30000J0D01*
G01*
X12182000Y-12725500D02*
X12182000Y-12645500D01*
X12182000Y-12645500D02*
G75*
G03*
X12122000Y-12645500I-30000J0D01*
G01*
X13690000Y-6980000D02*
X13690000Y-7080000D01*
X13640000Y-7030000D02*
X13740000Y-7030000D01*
X13690000Y-7234000D02*
X13690000Y-7334000D01*
X13640000Y-7284000D02*
X13740000Y-7284000D01*
X13690000Y-7488000D02*
X13690000Y-7588000D01*
X13640000Y-7538000D02*
X13740000Y-7538000D01*
X13690000Y-7742000D02*
X13690000Y-7842000D01*
X13640000Y-7792000D02*
X13740000Y-7792000D01*
X13690000Y-7996000D02*
X13690000Y-8096000D01*
X13640000Y-8046000D02*
X13740000Y-8046000D01*
X13690000Y-8250000D02*
X13690000Y-8350000D01*
X13640000Y-8300000D02*
X13740000Y-8300000D01*
X13690000Y-9473500D02*
X13690000Y-9573500D01*
X13640000Y-9523500D02*
X13740000Y-9523500D01*
X13690000Y-9727500D02*
X13690000Y-9827500D01*
X13640000Y-9777500D02*
X13740000Y-9777500D01*
X13690000Y-10958000D02*
X13690000Y-11058000D01*
X13640000Y-11008000D02*
X13740000Y-11008000D01*
X13690000Y-11212000D02*
X13690000Y-11312000D01*
X13640000Y-11262000D02*
X13740000Y-11262000D01*
X13690000Y-11466000D02*
X13690000Y-11566000D01*
X13640000Y-11516000D02*
X13740000Y-11516000D01*
X13690000Y-11720000D02*
X13690000Y-11820000D01*
X13640000Y-11770000D02*
X13740000Y-11770000D01*
D12*
X9754801Y-6674801D02*
X9754801Y-6565199D01*
X9645199Y-6565199D01*
X9645199Y-6674801D01*
X9754801Y-6674801D01*
X13744801Y-6694801D02*
X13744801Y-6585199D01*
X13635199Y-6585199D01*
X13635199Y-6694801D01*
X13744801Y-6694801D01*
D13*
X9900000Y-6225000D02*
X10025000Y-6100000D01*
X9900000Y-5975000D01*
X9775000Y-6100000D01*
X9900000Y-6225000D01*
X9900000Y-12725000D02*
X10025000Y-12600000D01*
X9900000Y-12475000D01*
X9775000Y-12600000D01*
X9900000Y-12725000D01*
X13500000Y-6225000D02*
X13625000Y-6100000D01*
X13500000Y-5975000D01*
X13375000Y-6100000D01*
X13500000Y-6225000D01*
X13500000Y-12725000D02*
X13625000Y-12600000D01*
X13500000Y-12475000D01*
X13375000Y-12600000D01*
X13500000Y-12725000D01*
D11*
X9755777Y-13316484D02*
X9755777Y-13116484D01*
X9755777Y-13116484D02*
X9803396Y-13116484D01*
X9803396Y-13116484D02*
X9831967Y-13126008D01*
X9831967Y-13126008D02*
X9851015Y-13145055D01*
X9851015Y-13145055D02*
X9860539Y-13164103D01*
X9860539Y-13164103D02*
X9870063Y-13202198D01*
X9870063Y-13202198D02*
X9870063Y-13230769D01*
X9870063Y-13230769D02*
X9860539Y-13268865D01*
X9860539Y-13268865D02*
X9851015Y-13287912D01*
X9851015Y-13287912D02*
X9831967Y-13306960D01*
X9831967Y-13306960D02*
X9803396Y-13316484D01*
X9803396Y-13316484D02*
X9755777Y-13316484D01*
X9955777Y-13316484D02*
X9955777Y-13183150D01*
X9955777Y-13221246D02*
X9965301Y-13202198D01*
X9965301Y-13202198D02*
X9974824Y-13192674D01*
X9974824Y-13192674D02*
X9993872Y-13183150D01*
X9993872Y-13183150D02*
X10012920Y-13183150D01*
X10079586Y-13316484D02*
X10079586Y-13183150D01*
X10079586Y-13116484D02*
X10070063Y-13126008D01*
X10070063Y-13126008D02*
X10079586Y-13135531D01*
X10079586Y-13135531D02*
X10089110Y-13126008D01*
X10089110Y-13126008D02*
X10079586Y-13116484D01*
X10079586Y-13116484D02*
X10079586Y-13135531D01*
X10203396Y-13316484D02*
X10184348Y-13306960D01*
X10184348Y-13306960D02*
X10174824Y-13287912D01*
X10174824Y-13287912D02*
X10174824Y-13116484D01*
X10308158Y-13316484D02*
X10289110Y-13306960D01*
X10289110Y-13306960D02*
X10279586Y-13287912D01*
X10279586Y-13287912D02*
X10279586Y-13116484D01*
X10536729Y-13316484D02*
X10536729Y-13116484D01*
X10536729Y-13116484D02*
X10603396Y-13259341D01*
X10603396Y-13259341D02*
X10670063Y-13116484D01*
X10670063Y-13116484D02*
X10670063Y-13316484D01*
X10851015Y-13316484D02*
X10851015Y-13211722D01*
X10851015Y-13211722D02*
X10841491Y-13192674D01*
X10841491Y-13192674D02*
X10822444Y-13183150D01*
X10822444Y-13183150D02*
X10784348Y-13183150D01*
X10784348Y-13183150D02*
X10765301Y-13192674D01*
X10851015Y-13306960D02*
X10831967Y-13316484D01*
X10831967Y-13316484D02*
X10784348Y-13316484D01*
X10784348Y-13316484D02*
X10765301Y-13306960D01*
X10765301Y-13306960D02*
X10755777Y-13287912D01*
X10755777Y-13287912D02*
X10755777Y-13268865D01*
X10755777Y-13268865D02*
X10765301Y-13249817D01*
X10765301Y-13249817D02*
X10784348Y-13240293D01*
X10784348Y-13240293D02*
X10831967Y-13240293D01*
X10831967Y-13240293D02*
X10851015Y-13230769D01*
X10946253Y-13183150D02*
X10946253Y-13383150D01*
X10946253Y-13192674D02*
X10965301Y-13183150D01*
X10965301Y-13183150D02*
X11003396Y-13183150D01*
X11003396Y-13183150D02*
X11022444Y-13192674D01*
X11022444Y-13192674D02*
X11031967Y-13202198D01*
X11031967Y-13202198D02*
X11041491Y-13221246D01*
X11041491Y-13221246D02*
X11041491Y-13278388D01*
X11041491Y-13278388D02*
X11031967Y-13297436D01*
X11031967Y-13297436D02*
X11022444Y-13306960D01*
X11022444Y-13306960D02*
X11003396Y-13316484D01*
X11003396Y-13316484D02*
X10965301Y-13316484D01*
X10965301Y-13316484D02*
X10946253Y-13306960D01*
X11127205Y-13297436D02*
X11136729Y-13306960D01*
X11136729Y-13306960D02*
X11127205Y-13316484D01*
X11127205Y-13316484D02*
X11117682Y-13306960D01*
X11117682Y-13306960D02*
X11127205Y-13297436D01*
X11127205Y-13297436D02*
X11127205Y-13316484D01*
X11127205Y-13192674D02*
X11136729Y-13202198D01*
X11136729Y-13202198D02*
X11127205Y-13211722D01*
X11127205Y-13211722D02*
X11117682Y-13202198D01*
X11117682Y-13202198D02*
X11127205Y-13192674D01*
X11127205Y-13192674D02*
X11127205Y-13211722D01*
D10*
X9465000Y-13630000D02*
X9495000Y-13660000D01*
X9495000Y-13630000D02*
X9465000Y-13660000D01*
D11*
X9793872Y-13536484D02*
X9812920Y-13536484D01*
X9812920Y-13536484D02*
X9831967Y-13546008D01*
X9831967Y-13546008D02*
X9841491Y-13555531D01*
X9841491Y-13555531D02*
X9851015Y-13574579D01*
X9851015Y-13574579D02*
X9860539Y-13612674D01*
X9860539Y-13612674D02*
X9860539Y-13660293D01*
X9860539Y-13660293D02*
X9851015Y-13698388D01*
X9851015Y-13698388D02*
X9841491Y-13717436D01*
X9841491Y-13717436D02*
X9831967Y-13726960D01*
X9831967Y-13726960D02*
X9812920Y-13736484D01*
X9812920Y-13736484D02*
X9793872Y-13736484D01*
X9793872Y-13736484D02*
X9774824Y-13726960D01*
X9774824Y-13726960D02*
X9765301Y-13717436D01*
X9765301Y-13717436D02*
X9755777Y-13698388D01*
X9755777Y-13698388D02*
X9746253Y-13660293D01*
X9746253Y-13660293D02*
X9746253Y-13612674D01*
X9746253Y-13612674D02*
X9755777Y-13574579D01*
X9755777Y-13574579D02*
X9765301Y-13555531D01*
X9765301Y-13555531D02*
X9774824Y-13546008D01*
X9774824Y-13546008D02*
X9793872Y-13536484D01*
X9946253Y-13717436D02*
X9955777Y-13726960D01*
X9955777Y-13726960D02*
X9946253Y-13736484D01*
X9946253Y-13736484D02*
X9936729Y-13726960D01*
X9936729Y-13726960D02*
X9946253Y-13717436D01*
X9946253Y-13717436D02*
X9946253Y-13736484D01*
X10022444Y-13536484D02*
X10146253Y-13536484D01*
X10146253Y-13536484D02*
X10079586Y-13612674D01*
X10079586Y-13612674D02*
X10108158Y-13612674D01*
X10108158Y-13612674D02*
X10127205Y-13622198D01*
X10127205Y-13622198D02*
X10136729Y-13631722D01*
X10136729Y-13631722D02*
X10146253Y-13650769D01*
X10146253Y-13650769D02*
X10146253Y-13698388D01*
X10146253Y-13698388D02*
X10136729Y-13717436D01*
X10136729Y-13717436D02*
X10127205Y-13726960D01*
X10127205Y-13726960D02*
X10108158Y-13736484D01*
X10108158Y-13736484D02*
X10051015Y-13736484D01*
X10051015Y-13736484D02*
X10031967Y-13726960D01*
X10031967Y-13726960D02*
X10022444Y-13717436D01*
X10270063Y-13536484D02*
X10289110Y-13536484D01*
X10289110Y-13536484D02*
X10308158Y-13546008D01*
X10308158Y-13546008D02*
X10317682Y-13555531D01*
X10317682Y-13555531D02*
X10327205Y-13574579D01*
X10327205Y-13574579D02*
X10336729Y-13612674D01*
X10336729Y-13612674D02*
X10336729Y-13660293D01*
X10336729Y-13660293D02*
X10327205Y-13698388D01*
X10327205Y-13698388D02*
X10317682Y-13717436D01*
X10317682Y-13717436D02*
X10308158Y-13726960D01*
X10308158Y-13726960D02*
X10289110Y-13736484D01*
X10289110Y-13736484D02*
X10270063Y-13736484D01*
X10270063Y-13736484D02*
X10251015Y-13726960D01*
X10251015Y-13726960D02*
X10241491Y-13717436D01*
X10241491Y-13717436D02*
X10231967Y-13698388D01*
X10231967Y-13698388D02*
X10222444Y-13660293D01*
X10222444Y-13660293D02*
X10222444Y-13612674D01*
X10222444Y-13612674D02*
X10231967Y-13574579D01*
X10231967Y-13574579D02*
X10241491Y-13555531D01*
X10241491Y-13555531D02*
X10251015Y-13546008D01*
X10251015Y-13546008D02*
X10270063Y-13536484D01*
X10460539Y-13536484D02*
X10479586Y-13536484D01*
X10479586Y-13536484D02*
X10498634Y-13546008D01*
X10498634Y-13546008D02*
X10508158Y-13555531D01*
X10508158Y-13555531D02*
X10517682Y-13574579D01*
X10517682Y-13574579D02*
X10527205Y-13612674D01*
X10527205Y-13612674D02*
X10527205Y-13660293D01*
X10527205Y-13660293D02*
X10517682Y-13698388D01*
X10517682Y-13698388D02*
X10508158Y-13717436D01*
X10508158Y-13717436D02*
X10498634Y-13726960D01*
X10498634Y-13726960D02*
X10479586Y-13736484D01*
X10479586Y-13736484D02*
X10460539Y-13736484D01*
X10460539Y-13736484D02*
X10441491Y-13726960D01*
X10441491Y-13726960D02*
X10431967Y-13717436D01*
X10431967Y-13717436D02*
X10422444Y-13698388D01*
X10422444Y-13698388D02*
X10412920Y-13660293D01*
X10412920Y-13660293D02*
X10412920Y-13612674D01*
X10412920Y-13612674D02*
X10422444Y-13574579D01*
X10422444Y-13574579D02*
X10431967Y-13555531D01*
X10431967Y-13555531D02*
X10441491Y-13546008D01*
X10441491Y-13546008D02*
X10460539Y-13536484D01*
X10612920Y-13736484D02*
X10612920Y-13603150D01*
X10612920Y-13622198D02*
X10622444Y-13612674D01*
X10622444Y-13612674D02*
X10641491Y-13603150D01*
X10641491Y-13603150D02*
X10670063Y-13603150D01*
X10670063Y-13603150D02*
X10689110Y-13612674D01*
X10689110Y-13612674D02*
X10698634Y-13631722D01*
X10698634Y-13631722D02*
X10698634Y-13736484D01*
X10698634Y-13631722D02*
X10708158Y-13612674D01*
X10708158Y-13612674D02*
X10727205Y-13603150D01*
X10727205Y-13603150D02*
X10755777Y-13603150D01*
X10755777Y-13603150D02*
X10774825Y-13612674D01*
X10774825Y-13612674D02*
X10784348Y-13631722D01*
X10784348Y-13631722D02*
X10784348Y-13736484D01*
X10879586Y-13736484D02*
X10879586Y-13603150D01*
X10879586Y-13622198D02*
X10889110Y-13612674D01*
X10889110Y-13612674D02*
X10908158Y-13603150D01*
X10908158Y-13603150D02*
X10936729Y-13603150D01*
X10936729Y-13603150D02*
X10955777Y-13612674D01*
X10955777Y-13612674D02*
X10965301Y-13631722D01*
X10965301Y-13631722D02*
X10965301Y-13736484D01*
X10965301Y-13631722D02*
X10974825Y-13612674D01*
X10974825Y-13612674D02*
X10993872Y-13603150D01*
X10993872Y-13603150D02*
X11022444Y-13603150D01*
X11022444Y-13603150D02*
X11041491Y-13612674D01*
X11041491Y-13612674D02*
X11051015Y-13631722D01*
X11051015Y-13631722D02*
X11051015Y-13736484D01*
X11441491Y-13526960D02*
X11270063Y-13784103D01*
X11698634Y-13536484D02*
X11717682Y-13536484D01*
X11717682Y-13536484D02*
X11736729Y-13546008D01*
X11736729Y-13546008D02*
X11746253Y-13555531D01*
X11746253Y-13555531D02*
X11755777Y-13574579D01*
X11755777Y-13574579D02*
X11765301Y-13612674D01*
X11765301Y-13612674D02*
X11765301Y-13660293D01*
X11765301Y-13660293D02*
X11755777Y-13698388D01*
X11755777Y-13698388D02*
X11746253Y-13717436D01*
X11746253Y-13717436D02*
X11736729Y-13726960D01*
X11736729Y-13726960D02*
X11717682Y-13736484D01*
X11717682Y-13736484D02*
X11698634Y-13736484D01*
X11698634Y-13736484D02*
X11679586Y-13726960D01*
X11679586Y-13726960D02*
X11670063Y-13717436D01*
X11670063Y-13717436D02*
X11660539Y-13698388D01*
X11660539Y-13698388D02*
X11651015Y-13660293D01*
X11651015Y-13660293D02*
X11651015Y-13612674D01*
X11651015Y-13612674D02*
X11660539Y-13574579D01*
X11660539Y-13574579D02*
X11670063Y-13555531D01*
X11670063Y-13555531D02*
X11679586Y-13546008D01*
X11679586Y-13546008D02*
X11698634Y-13536484D01*
X11851015Y-13717436D02*
X11860539Y-13726960D01*
X11860539Y-13726960D02*
X11851015Y-13736484D01*
X11851015Y-13736484D02*
X11841491Y-13726960D01*
X11841491Y-13726960D02*
X11851015Y-13717436D01*
X11851015Y-13717436D02*
X11851015Y-13736484D01*
X11984348Y-13536484D02*
X12003396Y-13536484D01*
X12003396Y-13536484D02*
X12022444Y-13546008D01*
X12022444Y-13546008D02*
X12031967Y-13555531D01*
X12031967Y-13555531D02*
X12041491Y-13574579D01*
X12041491Y-13574579D02*
X12051015Y-13612674D01*
X12051015Y-13612674D02*
X12051015Y-13660293D01*
X12051015Y-13660293D02*
X12041491Y-13698388D01*
X12041491Y-13698388D02*
X12031967Y-13717436D01*
X12031967Y-13717436D02*
X12022444Y-13726960D01*
X12022444Y-13726960D02*
X12003396Y-13736484D01*
X12003396Y-13736484D02*
X11984348Y-13736484D01*
X11984348Y-13736484D02*
X11965301Y-13726960D01*
X11965301Y-13726960D02*
X11955777Y-13717436D01*
X11955777Y-13717436D02*
X11946253Y-13698388D01*
X11946253Y-13698388D02*
X11936729Y-13660293D01*
X11936729Y-13660293D02*
X11936729Y-13612674D01*
X11936729Y-13612674D02*
X11946253Y-13574579D01*
X11946253Y-13574579D02*
X11955777Y-13555531D01*
X11955777Y-13555531D02*
X11965301Y-13546008D01*
X11965301Y-13546008D02*
X11984348Y-13536484D01*
X12241491Y-13736484D02*
X12127206Y-13736484D01*
X12184348Y-13736484D02*
X12184348Y-13536484D01*
X12184348Y-13536484D02*
X12165301Y-13565055D01*
X12165301Y-13565055D02*
X12146253Y-13584103D01*
X12146253Y-13584103D02*
X12127206Y-13593627D01*
X12431967Y-13736484D02*
X12317682Y-13736484D01*
X12374825Y-13736484D02*
X12374825Y-13536484D01*
X12374825Y-13536484D02*
X12355777Y-13565055D01*
X12355777Y-13565055D02*
X12336729Y-13584103D01*
X12336729Y-13584103D02*
X12317682Y-13593627D01*
X12546253Y-13622198D02*
X12527206Y-13612674D01*
X12527206Y-13612674D02*
X12517682Y-13603150D01*
X12517682Y-13603150D02*
X12508158Y-13584103D01*
X12508158Y-13584103D02*
X12508158Y-13574579D01*
X12508158Y-13574579D02*
X12517682Y-13555531D01*
X12517682Y-13555531D02*
X12527206Y-13546008D01*
X12527206Y-13546008D02*
X12546253Y-13536484D01*
X12546253Y-13536484D02*
X12584348Y-13536484D01*
X12584348Y-13536484D02*
X12603396Y-13546008D01*
X12603396Y-13546008D02*
X12612920Y-13555531D01*
X12612920Y-13555531D02*
X12622444Y-13574579D01*
X12622444Y-13574579D02*
X12622444Y-13584103D01*
X12622444Y-13584103D02*
X12612920Y-13603150D01*
X12612920Y-13603150D02*
X12603396Y-13612674D01*
X12603396Y-13612674D02*
X12584348Y-13622198D01*
X12584348Y-13622198D02*
X12546253Y-13622198D01*
X12546253Y-13622198D02*
X12527206Y-13631722D01*
X12527206Y-13631722D02*
X12517682Y-13641246D01*
X12517682Y-13641246D02*
X12508158Y-13660293D01*
X12508158Y-13660293D02*
X12508158Y-13698388D01*
X12508158Y-13698388D02*
X12517682Y-13717436D01*
X12517682Y-13717436D02*
X12527206Y-13726960D01*
X12527206Y-13726960D02*
X12546253Y-13736484D01*
X12546253Y-13736484D02*
X12584348Y-13736484D01*
X12584348Y-13736484D02*
X12603396Y-13726960D01*
X12603396Y-13726960D02*
X12612920Y-13717436D01*
X12612920Y-13717436D02*
X12622444Y-13698388D01*
X12622444Y-13698388D02*
X12622444Y-13660293D01*
X12622444Y-13660293D02*
X12612920Y-13641246D01*
X12612920Y-13641246D02*
X12603396Y-13631722D01*
X12603396Y-13631722D02*
X12584348Y-13622198D01*
X12698634Y-13536484D02*
X12698634Y-13574579D01*
X12774825Y-13536484D02*
X12774825Y-13574579D01*
X13070063Y-13812674D02*
X13060539Y-13803150D01*
X13060539Y-13803150D02*
X13041491Y-13774579D01*
X13041491Y-13774579D02*
X13031968Y-13755531D01*
X13031968Y-13755531D02*
X13022444Y-13726960D01*
X13022444Y-13726960D02*
X13012920Y-13679341D01*
X13012920Y-13679341D02*
X13012920Y-13641246D01*
X13012920Y-13641246D02*
X13022444Y-13593627D01*
X13022444Y-13593627D02*
X13031968Y-13565055D01*
X13031968Y-13565055D02*
X13041491Y-13546008D01*
X13041491Y-13546008D02*
X13060539Y-13517436D01*
X13060539Y-13517436D02*
X13070063Y-13507912D01*
X13251015Y-13736484D02*
X13136729Y-13736484D01*
X13193872Y-13736484D02*
X13193872Y-13536484D01*
X13193872Y-13536484D02*
X13174825Y-13565055D01*
X13174825Y-13565055D02*
X13155777Y-13584103D01*
X13155777Y-13584103D02*
X13136729Y-13593627D01*
X13441491Y-13736484D02*
X13327206Y-13736484D01*
X13384348Y-13736484D02*
X13384348Y-13536484D01*
X13384348Y-13536484D02*
X13365301Y-13565055D01*
X13365301Y-13565055D02*
X13346253Y-13584103D01*
X13346253Y-13584103D02*
X13327206Y-13593627D01*
X13612920Y-13603150D02*
X13612920Y-13736484D01*
X13565301Y-13526960D02*
X13517682Y-13669817D01*
X13517682Y-13669817D02*
X13641491Y-13669817D01*
X13870063Y-13736484D02*
X13870063Y-13536484D01*
X13955777Y-13736484D02*
X13955777Y-13631722D01*
X13955777Y-13631722D02*
X13946253Y-13612674D01*
X13946253Y-13612674D02*
X13927206Y-13603150D01*
X13927206Y-13603150D02*
X13898634Y-13603150D01*
X13898634Y-13603150D02*
X13879587Y-13612674D01*
X13879587Y-13612674D02*
X13870063Y-13622198D01*
X14079587Y-13736484D02*
X14060539Y-13726960D01*
X14060539Y-13726960D02*
X14051015Y-13717436D01*
X14051015Y-13717436D02*
X14041491Y-13698388D01*
X14041491Y-13698388D02*
X14041491Y-13641246D01*
X14041491Y-13641246D02*
X14051015Y-13622198D01*
X14051015Y-13622198D02*
X14060539Y-13612674D01*
X14060539Y-13612674D02*
X14079587Y-13603150D01*
X14079587Y-13603150D02*
X14108158Y-13603150D01*
X14108158Y-13603150D02*
X14127206Y-13612674D01*
X14127206Y-13612674D02*
X14136730Y-13622198D01*
X14136730Y-13622198D02*
X14146253Y-13641246D01*
X14146253Y-13641246D02*
X14146253Y-13698388D01*
X14146253Y-13698388D02*
X14136730Y-13717436D01*
X14136730Y-13717436D02*
X14127206Y-13726960D01*
X14127206Y-13726960D02*
X14108158Y-13736484D01*
X14108158Y-13736484D02*
X14079587Y-13736484D01*
X14260539Y-13736484D02*
X14241491Y-13726960D01*
X14241491Y-13726960D02*
X14231968Y-13707912D01*
X14231968Y-13707912D02*
X14231968Y-13536484D01*
X14412920Y-13726960D02*
X14393872Y-13736484D01*
X14393872Y-13736484D02*
X14355777Y-13736484D01*
X14355777Y-13736484D02*
X14336730Y-13726960D01*
X14336730Y-13726960D02*
X14327206Y-13707912D01*
X14327206Y-13707912D02*
X14327206Y-13631722D01*
X14327206Y-13631722D02*
X14336730Y-13612674D01*
X14336730Y-13612674D02*
X14355777Y-13603150D01*
X14355777Y-13603150D02*
X14393872Y-13603150D01*
X14393872Y-13603150D02*
X14412920Y-13612674D01*
X14412920Y-13612674D02*
X14422444Y-13631722D01*
X14422444Y-13631722D02*
X14422444Y-13650769D01*
X14422444Y-13650769D02*
X14327206Y-13669817D01*
X14498634Y-13726960D02*
X14517682Y-13736484D01*
X14517682Y-13736484D02*
X14555777Y-13736484D01*
X14555777Y-13736484D02*
X14574825Y-13726960D01*
X14574825Y-13726960D02*
X14584349Y-13707912D01*
X14584349Y-13707912D02*
X14584349Y-13698388D01*
X14584349Y-13698388D02*
X14574825Y-13679341D01*
X14574825Y-13679341D02*
X14555777Y-13669817D01*
X14555777Y-13669817D02*
X14527206Y-13669817D01*
X14527206Y-13669817D02*
X14508158Y-13660293D01*
X14508158Y-13660293D02*
X14498634Y-13641246D01*
X14498634Y-13641246D02*
X14498634Y-13631722D01*
X14498634Y-13631722D02*
X14508158Y-13612674D01*
X14508158Y-13612674D02*
X14527206Y-13603150D01*
X14527206Y-13603150D02*
X14555777Y-13603150D01*
X14555777Y-13603150D02*
X14574825Y-13612674D01*
X14651015Y-13812674D02*
X14660539Y-13803150D01*
X14660539Y-13803150D02*
X14679587Y-13774579D01*
X14679587Y-13774579D02*
X14689111Y-13755531D01*
X14689111Y-13755531D02*
X14698634Y-13726960D01*
X14698634Y-13726960D02*
X14708158Y-13679341D01*
X14708158Y-13679341D02*
X14708158Y-13641246D01*
X14708158Y-13641246D02*
X14698634Y-13593627D01*
X14698634Y-13593627D02*
X14689111Y-13565055D01*
X14689111Y-13565055D02*
X14679587Y-13546008D01*
X14679587Y-13546008D02*
X14660539Y-13517436D01*
X14660539Y-13517436D02*
X14651015Y-13507912D01*
D10*
X9495000Y-13909000D02*
G75*
G03*
X9495000Y-13909000I-30000J0D01*
G01*
D11*
X9793872Y-13800484D02*
X9812920Y-13800484D01*
X9812920Y-13800484D02*
X9831967Y-13810008D01*
X9831967Y-13810008D02*
X9841491Y-13819531D01*
X9841491Y-13819531D02*
X9851015Y-13838579D01*
X9851015Y-13838579D02*
X9860539Y-13876674D01*
X9860539Y-13876674D02*
X9860539Y-13924293D01*
X9860539Y-13924293D02*
X9851015Y-13962388D01*
X9851015Y-13962388D02*
X9841491Y-13981436D01*
X9841491Y-13981436D02*
X9831967Y-13990960D01*
X9831967Y-13990960D02*
X9812920Y-14000484D01*
X9812920Y-14000484D02*
X9793872Y-14000484D01*
X9793872Y-14000484D02*
X9774824Y-13990960D01*
X9774824Y-13990960D02*
X9765301Y-13981436D01*
X9765301Y-13981436D02*
X9755777Y-13962388D01*
X9755777Y-13962388D02*
X9746253Y-13924293D01*
X9746253Y-13924293D02*
X9746253Y-13876674D01*
X9746253Y-13876674D02*
X9755777Y-13838579D01*
X9755777Y-13838579D02*
X9765301Y-13819531D01*
X9765301Y-13819531D02*
X9774824Y-13810008D01*
X9774824Y-13810008D02*
X9793872Y-13800484D01*
X9946253Y-13981436D02*
X9955777Y-13990960D01*
X9955777Y-13990960D02*
X9946253Y-14000484D01*
X9946253Y-14000484D02*
X9936729Y-13990960D01*
X9936729Y-13990960D02*
X9946253Y-13981436D01*
X9946253Y-13981436D02*
X9946253Y-14000484D01*
X10127205Y-13800484D02*
X10089110Y-13800484D01*
X10089110Y-13800484D02*
X10070063Y-13810008D01*
X10070063Y-13810008D02*
X10060539Y-13819531D01*
X10060539Y-13819531D02*
X10041491Y-13848103D01*
X10041491Y-13848103D02*
X10031967Y-13886198D01*
X10031967Y-13886198D02*
X10031967Y-13962388D01*
X10031967Y-13962388D02*
X10041491Y-13981436D01*
X10041491Y-13981436D02*
X10051015Y-13990960D01*
X10051015Y-13990960D02*
X10070063Y-14000484D01*
X10070063Y-14000484D02*
X10108158Y-14000484D01*
X10108158Y-14000484D02*
X10127205Y-13990960D01*
X10127205Y-13990960D02*
X10136729Y-13981436D01*
X10136729Y-13981436D02*
X10146253Y-13962388D01*
X10146253Y-13962388D02*
X10146253Y-13914769D01*
X10146253Y-13914769D02*
X10136729Y-13895722D01*
X10136729Y-13895722D02*
X10127205Y-13886198D01*
X10127205Y-13886198D02*
X10108158Y-13876674D01*
X10108158Y-13876674D02*
X10070063Y-13876674D01*
X10070063Y-13876674D02*
X10051015Y-13886198D01*
X10051015Y-13886198D02*
X10041491Y-13895722D01*
X10041491Y-13895722D02*
X10031967Y-13914769D01*
X10270063Y-13800484D02*
X10289110Y-13800484D01*
X10289110Y-13800484D02*
X10308158Y-13810008D01*
X10308158Y-13810008D02*
X10317682Y-13819531D01*
X10317682Y-13819531D02*
X10327205Y-13838579D01*
X10327205Y-13838579D02*
X10336729Y-13876674D01*
X10336729Y-13876674D02*
X10336729Y-13924293D01*
X10336729Y-13924293D02*
X10327205Y-13962388D01*
X10327205Y-13962388D02*
X10317682Y-13981436D01*
X10317682Y-13981436D02*
X10308158Y-13990960D01*
X10308158Y-13990960D02*
X10289110Y-14000484D01*
X10289110Y-14000484D02*
X10270063Y-14000484D01*
X10270063Y-14000484D02*
X10251015Y-13990960D01*
X10251015Y-13990960D02*
X10241491Y-13981436D01*
X10241491Y-13981436D02*
X10231967Y-13962388D01*
X10231967Y-13962388D02*
X10222444Y-13924293D01*
X10222444Y-13924293D02*
X10222444Y-13876674D01*
X10222444Y-13876674D02*
X10231967Y-13838579D01*
X10231967Y-13838579D02*
X10241491Y-13819531D01*
X10241491Y-13819531D02*
X10251015Y-13810008D01*
X10251015Y-13810008D02*
X10270063Y-13800484D01*
X10460539Y-13800484D02*
X10479586Y-13800484D01*
X10479586Y-13800484D02*
X10498634Y-13810008D01*
X10498634Y-13810008D02*
X10508158Y-13819531D01*
X10508158Y-13819531D02*
X10517682Y-13838579D01*
X10517682Y-13838579D02*
X10527205Y-13876674D01*
X10527205Y-13876674D02*
X10527205Y-13924293D01*
X10527205Y-13924293D02*
X10517682Y-13962388D01*
X10517682Y-13962388D02*
X10508158Y-13981436D01*
X10508158Y-13981436D02*
X10498634Y-13990960D01*
X10498634Y-13990960D02*
X10479586Y-14000484D01*
X10479586Y-14000484D02*
X10460539Y-14000484D01*
X10460539Y-14000484D02*
X10441491Y-13990960D01*
X10441491Y-13990960D02*
X10431967Y-13981436D01*
X10431967Y-13981436D02*
X10422444Y-13962388D01*
X10422444Y-13962388D02*
X10412920Y-13924293D01*
X10412920Y-13924293D02*
X10412920Y-13876674D01*
X10412920Y-13876674D02*
X10422444Y-13838579D01*
X10422444Y-13838579D02*
X10431967Y-13819531D01*
X10431967Y-13819531D02*
X10441491Y-13810008D01*
X10441491Y-13810008D02*
X10460539Y-13800484D01*
X10612920Y-14000484D02*
X10612920Y-13867150D01*
X10612920Y-13886198D02*
X10622444Y-13876674D01*
X10622444Y-13876674D02*
X10641491Y-13867150D01*
X10641491Y-13867150D02*
X10670063Y-13867150D01*
X10670063Y-13867150D02*
X10689110Y-13876674D01*
X10689110Y-13876674D02*
X10698634Y-13895722D01*
X10698634Y-13895722D02*
X10698634Y-14000484D01*
X10698634Y-13895722D02*
X10708158Y-13876674D01*
X10708158Y-13876674D02*
X10727205Y-13867150D01*
X10727205Y-13867150D02*
X10755777Y-13867150D01*
X10755777Y-13867150D02*
X10774825Y-13876674D01*
X10774825Y-13876674D02*
X10784348Y-13895722D01*
X10784348Y-13895722D02*
X10784348Y-14000484D01*
X10879586Y-14000484D02*
X10879586Y-13867150D01*
X10879586Y-13886198D02*
X10889110Y-13876674D01*
X10889110Y-13876674D02*
X10908158Y-13867150D01*
X10908158Y-13867150D02*
X10936729Y-13867150D01*
X10936729Y-13867150D02*
X10955777Y-13876674D01*
X10955777Y-13876674D02*
X10965301Y-13895722D01*
X10965301Y-13895722D02*
X10965301Y-14000484D01*
X10965301Y-13895722D02*
X10974825Y-13876674D01*
X10974825Y-13876674D02*
X10993872Y-13867150D01*
X10993872Y-13867150D02*
X11022444Y-13867150D01*
X11022444Y-13867150D02*
X11041491Y-13876674D01*
X11041491Y-13876674D02*
X11051015Y-13895722D01*
X11051015Y-13895722D02*
X11051015Y-14000484D01*
X11441491Y-13790960D02*
X11270063Y-14048103D01*
X11698634Y-13800484D02*
X11717682Y-13800484D01*
X11717682Y-13800484D02*
X11736729Y-13810008D01*
X11736729Y-13810008D02*
X11746253Y-13819531D01*
X11746253Y-13819531D02*
X11755777Y-13838579D01*
X11755777Y-13838579D02*
X11765301Y-13876674D01*
X11765301Y-13876674D02*
X11765301Y-13924293D01*
X11765301Y-13924293D02*
X11755777Y-13962388D01*
X11755777Y-13962388D02*
X11746253Y-13981436D01*
X11746253Y-13981436D02*
X11736729Y-13990960D01*
X11736729Y-13990960D02*
X11717682Y-14000484D01*
X11717682Y-14000484D02*
X11698634Y-14000484D01*
X11698634Y-14000484D02*
X11679586Y-13990960D01*
X11679586Y-13990960D02*
X11670063Y-13981436D01*
X11670063Y-13981436D02*
X11660539Y-13962388D01*
X11660539Y-13962388D02*
X11651015Y-13924293D01*
X11651015Y-13924293D02*
X11651015Y-13876674D01*
X11651015Y-13876674D02*
X11660539Y-13838579D01*
X11660539Y-13838579D02*
X11670063Y-13819531D01*
X11670063Y-13819531D02*
X11679586Y-13810008D01*
X11679586Y-13810008D02*
X11698634Y-13800484D01*
X11851015Y-13981436D02*
X11860539Y-13990960D01*
X11860539Y-13990960D02*
X11851015Y-14000484D01*
X11851015Y-14000484D02*
X11841491Y-13990960D01*
X11841491Y-13990960D02*
X11851015Y-13981436D01*
X11851015Y-13981436D02*
X11851015Y-14000484D01*
X11984348Y-13800484D02*
X12003396Y-13800484D01*
X12003396Y-13800484D02*
X12022444Y-13810008D01*
X12022444Y-13810008D02*
X12031967Y-13819531D01*
X12031967Y-13819531D02*
X12041491Y-13838579D01*
X12041491Y-13838579D02*
X12051015Y-13876674D01*
X12051015Y-13876674D02*
X12051015Y-13924293D01*
X12051015Y-13924293D02*
X12041491Y-13962388D01*
X12041491Y-13962388D02*
X12031967Y-13981436D01*
X12031967Y-13981436D02*
X12022444Y-13990960D01*
X12022444Y-13990960D02*
X12003396Y-14000484D01*
X12003396Y-14000484D02*
X11984348Y-14000484D01*
X11984348Y-14000484D02*
X11965301Y-13990960D01*
X11965301Y-13990960D02*
X11955777Y-13981436D01*
X11955777Y-13981436D02*
X11946253Y-13962388D01*
X11946253Y-13962388D02*
X11936729Y-13924293D01*
X11936729Y-13924293D02*
X11936729Y-13876674D01*
X11936729Y-13876674D02*
X11946253Y-13838579D01*
X11946253Y-13838579D02*
X11955777Y-13819531D01*
X11955777Y-13819531D02*
X11965301Y-13810008D01*
X11965301Y-13810008D02*
X11984348Y-13800484D01*
X12127206Y-13819531D02*
X12136729Y-13810008D01*
X12136729Y-13810008D02*
X12155777Y-13800484D01*
X12155777Y-13800484D02*
X12203396Y-13800484D01*
X12203396Y-13800484D02*
X12222444Y-13810008D01*
X12222444Y-13810008D02*
X12231967Y-13819531D01*
X12231967Y-13819531D02*
X12241491Y-13838579D01*
X12241491Y-13838579D02*
X12241491Y-13857627D01*
X12241491Y-13857627D02*
X12231967Y-13886198D01*
X12231967Y-13886198D02*
X12117682Y-14000484D01*
X12117682Y-14000484D02*
X12241491Y-14000484D01*
X12308158Y-13800484D02*
X12431967Y-13800484D01*
X12431967Y-13800484D02*
X12365301Y-13876674D01*
X12365301Y-13876674D02*
X12393872Y-13876674D01*
X12393872Y-13876674D02*
X12412920Y-13886198D01*
X12412920Y-13886198D02*
X12422444Y-13895722D01*
X12422444Y-13895722D02*
X12431967Y-13914769D01*
X12431967Y-13914769D02*
X12431967Y-13962388D01*
X12431967Y-13962388D02*
X12422444Y-13981436D01*
X12422444Y-13981436D02*
X12412920Y-13990960D01*
X12412920Y-13990960D02*
X12393872Y-14000484D01*
X12393872Y-14000484D02*
X12336729Y-14000484D01*
X12336729Y-14000484D02*
X12317682Y-13990960D01*
X12317682Y-13990960D02*
X12308158Y-13981436D01*
X12603396Y-13800484D02*
X12565301Y-13800484D01*
X12565301Y-13800484D02*
X12546253Y-13810008D01*
X12546253Y-13810008D02*
X12536729Y-13819531D01*
X12536729Y-13819531D02*
X12517682Y-13848103D01*
X12517682Y-13848103D02*
X12508158Y-13886198D01*
X12508158Y-13886198D02*
X12508158Y-13962388D01*
X12508158Y-13962388D02*
X12517682Y-13981436D01*
X12517682Y-13981436D02*
X12527206Y-13990960D01*
X12527206Y-13990960D02*
X12546253Y-14000484D01*
X12546253Y-14000484D02*
X12584348Y-14000484D01*
X12584348Y-14000484D02*
X12603396Y-13990960D01*
X12603396Y-13990960D02*
X12612920Y-13981436D01*
X12612920Y-13981436D02*
X12622444Y-13962388D01*
X12622444Y-13962388D02*
X12622444Y-13914769D01*
X12622444Y-13914769D02*
X12612920Y-13895722D01*
X12612920Y-13895722D02*
X12603396Y-13886198D01*
X12603396Y-13886198D02*
X12584348Y-13876674D01*
X12584348Y-13876674D02*
X12546253Y-13876674D01*
X12546253Y-13876674D02*
X12527206Y-13886198D01*
X12527206Y-13886198D02*
X12517682Y-13895722D01*
X12517682Y-13895722D02*
X12508158Y-13914769D01*
X12698634Y-13800484D02*
X12698634Y-13838579D01*
X12774825Y-13800484D02*
X12774825Y-13838579D01*
X13070063Y-14076674D02*
X13060539Y-14067150D01*
X13060539Y-14067150D02*
X13041491Y-14038579D01*
X13041491Y-14038579D02*
X13031968Y-14019531D01*
X13031968Y-14019531D02*
X13022444Y-13990960D01*
X13022444Y-13990960D02*
X13012920Y-13943341D01*
X13012920Y-13943341D02*
X13012920Y-13905246D01*
X13012920Y-13905246D02*
X13022444Y-13857627D01*
X13022444Y-13857627D02*
X13031968Y-13829055D01*
X13031968Y-13829055D02*
X13041491Y-13810008D01*
X13041491Y-13810008D02*
X13060539Y-13781436D01*
X13060539Y-13781436D02*
X13070063Y-13771912D01*
X13184348Y-13800484D02*
X13203396Y-13800484D01*
X13203396Y-13800484D02*
X13222444Y-13810008D01*
X13222444Y-13810008D02*
X13231968Y-13819531D01*
X13231968Y-13819531D02*
X13241491Y-13838579D01*
X13241491Y-13838579D02*
X13251015Y-13876674D01*
X13251015Y-13876674D02*
X13251015Y-13924293D01*
X13251015Y-13924293D02*
X13241491Y-13962388D01*
X13241491Y-13962388D02*
X13231968Y-13981436D01*
X13231968Y-13981436D02*
X13222444Y-13990960D01*
X13222444Y-13990960D02*
X13203396Y-14000484D01*
X13203396Y-14000484D02*
X13184348Y-14000484D01*
X13184348Y-14000484D02*
X13165301Y-13990960D01*
X13165301Y-13990960D02*
X13155777Y-13981436D01*
X13155777Y-13981436D02*
X13146253Y-13962388D01*
X13146253Y-13962388D02*
X13136729Y-13924293D01*
X13136729Y-13924293D02*
X13136729Y-13876674D01*
X13136729Y-13876674D02*
X13146253Y-13838579D01*
X13146253Y-13838579D02*
X13155777Y-13819531D01*
X13155777Y-13819531D02*
X13165301Y-13810008D01*
X13165301Y-13810008D02*
X13184348Y-13800484D01*
X13489110Y-14000484D02*
X13489110Y-13800484D01*
X13574825Y-14000484D02*
X13574825Y-13895722D01*
X13574825Y-13895722D02*
X13565301Y-13876674D01*
X13565301Y-13876674D02*
X13546253Y-13867150D01*
X13546253Y-13867150D02*
X13517682Y-13867150D01*
X13517682Y-13867150D02*
X13498634Y-13876674D01*
X13498634Y-13876674D02*
X13489110Y-13886198D01*
X13698634Y-14000484D02*
X13679587Y-13990960D01*
X13679587Y-13990960D02*
X13670063Y-13981436D01*
X13670063Y-13981436D02*
X13660539Y-13962388D01*
X13660539Y-13962388D02*
X13660539Y-13905246D01*
X13660539Y-13905246D02*
X13670063Y-13886198D01*
X13670063Y-13886198D02*
X13679587Y-13876674D01*
X13679587Y-13876674D02*
X13698634Y-13867150D01*
X13698634Y-13867150D02*
X13727206Y-13867150D01*
X13727206Y-13867150D02*
X13746253Y-13876674D01*
X13746253Y-13876674D02*
X13755777Y-13886198D01*
X13755777Y-13886198D02*
X13765301Y-13905246D01*
X13765301Y-13905246D02*
X13765301Y-13962388D01*
X13765301Y-13962388D02*
X13755777Y-13981436D01*
X13755777Y-13981436D02*
X13746253Y-13990960D01*
X13746253Y-13990960D02*
X13727206Y-14000484D01*
X13727206Y-14000484D02*
X13698634Y-14000484D01*
X13879587Y-14000484D02*
X13860539Y-13990960D01*
X13860539Y-13990960D02*
X13851015Y-13971912D01*
X13851015Y-13971912D02*
X13851015Y-13800484D01*
X14031968Y-13990960D02*
X14012920Y-14000484D01*
X14012920Y-14000484D02*
X13974825Y-14000484D01*
X13974825Y-14000484D02*
X13955777Y-13990960D01*
X13955777Y-13990960D02*
X13946253Y-13971912D01*
X13946253Y-13971912D02*
X13946253Y-13895722D01*
X13946253Y-13895722D02*
X13955777Y-13876674D01*
X13955777Y-13876674D02*
X13974825Y-13867150D01*
X13974825Y-13867150D02*
X14012920Y-13867150D01*
X14012920Y-13867150D02*
X14031968Y-13876674D01*
X14031968Y-13876674D02*
X14041491Y-13895722D01*
X14041491Y-13895722D02*
X14041491Y-13914769D01*
X14041491Y-13914769D02*
X13946253Y-13933817D01*
X14117682Y-13990960D02*
X14136730Y-14000484D01*
X14136730Y-14000484D02*
X14174825Y-14000484D01*
X14174825Y-14000484D02*
X14193872Y-13990960D01*
X14193872Y-13990960D02*
X14203396Y-13971912D01*
X14203396Y-13971912D02*
X14203396Y-13962388D01*
X14203396Y-13962388D02*
X14193872Y-13943341D01*
X14193872Y-13943341D02*
X14174825Y-13933817D01*
X14174825Y-13933817D02*
X14146253Y-13933817D01*
X14146253Y-13933817D02*
X14127206Y-13924293D01*
X14127206Y-13924293D02*
X14117682Y-13905246D01*
X14117682Y-13905246D02*
X14117682Y-13895722D01*
X14117682Y-13895722D02*
X14127206Y-13876674D01*
X14127206Y-13876674D02*
X14146253Y-13867150D01*
X14146253Y-13867150D02*
X14174825Y-13867150D01*
X14174825Y-13867150D02*
X14193872Y-13876674D01*
X14441492Y-13924293D02*
X14593873Y-13924293D01*
X14517682Y-14000484D02*
X14517682Y-13848103D01*
X14927206Y-13867150D02*
X14927206Y-14000484D01*
X14879587Y-13790960D02*
X14831968Y-13933817D01*
X14831968Y-13933817D02*
X14955777Y-13933817D01*
X15174825Y-13990960D02*
X15193873Y-14000484D01*
X15193873Y-14000484D02*
X15231968Y-14000484D01*
X15231968Y-14000484D02*
X15251015Y-13990960D01*
X15251015Y-13990960D02*
X15260539Y-13971912D01*
X15260539Y-13971912D02*
X15260539Y-13962388D01*
X15260539Y-13962388D02*
X15251015Y-13943341D01*
X15251015Y-13943341D02*
X15231968Y-13933817D01*
X15231968Y-13933817D02*
X15203396Y-13933817D01*
X15203396Y-13933817D02*
X15184349Y-13924293D01*
X15184349Y-13924293D02*
X15174825Y-13905246D01*
X15174825Y-13905246D02*
X15174825Y-13895722D01*
X15174825Y-13895722D02*
X15184349Y-13876674D01*
X15184349Y-13876674D02*
X15203396Y-13867150D01*
X15203396Y-13867150D02*
X15231968Y-13867150D01*
X15231968Y-13867150D02*
X15251015Y-13876674D01*
X15374825Y-14000484D02*
X15355777Y-13990960D01*
X15355777Y-13990960D02*
X15346254Y-13971912D01*
X15346254Y-13971912D02*
X15346254Y-13800484D01*
X15479587Y-14000484D02*
X15460539Y-13990960D01*
X15460539Y-13990960D02*
X15451015Y-13981436D01*
X15451015Y-13981436D02*
X15441492Y-13962388D01*
X15441492Y-13962388D02*
X15441492Y-13905246D01*
X15441492Y-13905246D02*
X15451015Y-13886198D01*
X15451015Y-13886198D02*
X15460539Y-13876674D01*
X15460539Y-13876674D02*
X15479587Y-13867150D01*
X15479587Y-13867150D02*
X15508158Y-13867150D01*
X15508158Y-13867150D02*
X15527206Y-13876674D01*
X15527206Y-13876674D02*
X15536730Y-13886198D01*
X15536730Y-13886198D02*
X15546254Y-13905246D01*
X15546254Y-13905246D02*
X15546254Y-13962388D01*
X15546254Y-13962388D02*
X15536730Y-13981436D01*
X15536730Y-13981436D02*
X15527206Y-13990960D01*
X15527206Y-13990960D02*
X15508158Y-14000484D01*
X15508158Y-14000484D02*
X15479587Y-14000484D01*
X15603396Y-13867150D02*
X15679587Y-13867150D01*
X15631968Y-13800484D02*
X15631968Y-13971912D01*
X15631968Y-13971912D02*
X15641492Y-13990960D01*
X15641492Y-13990960D02*
X15660539Y-14000484D01*
X15660539Y-14000484D02*
X15679587Y-14000484D01*
X15736730Y-13990960D02*
X15755777Y-14000484D01*
X15755777Y-14000484D02*
X15793873Y-14000484D01*
X15793873Y-14000484D02*
X15812920Y-13990960D01*
X15812920Y-13990960D02*
X15822444Y-13971912D01*
X15822444Y-13971912D02*
X15822444Y-13962388D01*
X15822444Y-13962388D02*
X15812920Y-13943341D01*
X15812920Y-13943341D02*
X15793873Y-13933817D01*
X15793873Y-13933817D02*
X15765301Y-13933817D01*
X15765301Y-13933817D02*
X15746254Y-13924293D01*
X15746254Y-13924293D02*
X15736730Y-13905246D01*
X15736730Y-13905246D02*
X15736730Y-13895722D01*
X15736730Y-13895722D02*
X15746254Y-13876674D01*
X15746254Y-13876674D02*
X15765301Y-13867150D01*
X15765301Y-13867150D02*
X15793873Y-13867150D01*
X15793873Y-13867150D02*
X15812920Y-13876674D01*
X15889111Y-14076674D02*
X15898635Y-14067150D01*
X15898635Y-14067150D02*
X15917682Y-14038579D01*
X15917682Y-14038579D02*
X15927206Y-14019531D01*
X15927206Y-14019531D02*
X15936730Y-13990960D01*
X15936730Y-13990960D02*
X15946254Y-13943341D01*
X15946254Y-13943341D02*
X15946254Y-13905246D01*
X15946254Y-13905246D02*
X15936730Y-13857627D01*
X15936730Y-13857627D02*
X15927206Y-13829055D01*
X15927206Y-13829055D02*
X15917682Y-13810008D01*
X15917682Y-13810008D02*
X15898635Y-13781436D01*
X15898635Y-13781436D02*
X15889111Y-13771912D01*
D10*
X9445000Y-14123000D02*
X9445000Y-14223000D01*
X9395000Y-14173000D02*
X9495000Y-14173000D01*
D11*
X9860539Y-14264484D02*
X9746253Y-14264484D01*
X9803396Y-14264484D02*
X9803396Y-14064484D01*
X9803396Y-14064484D02*
X9784348Y-14093055D01*
X9784348Y-14093055D02*
X9765301Y-14112103D01*
X9765301Y-14112103D02*
X9746253Y-14121627D01*
X9946253Y-14245436D02*
X9955777Y-14254960D01*
X9955777Y-14254960D02*
X9946253Y-14264484D01*
X9946253Y-14264484D02*
X9936729Y-14254960D01*
X9936729Y-14254960D02*
X9946253Y-14245436D01*
X9946253Y-14245436D02*
X9946253Y-14264484D01*
X10079586Y-14064484D02*
X10098634Y-14064484D01*
X10098634Y-14064484D02*
X10117682Y-14074008D01*
X10117682Y-14074008D02*
X10127205Y-14083531D01*
X10127205Y-14083531D02*
X10136729Y-14102579D01*
X10136729Y-14102579D02*
X10146253Y-14140674D01*
X10146253Y-14140674D02*
X10146253Y-14188293D01*
X10146253Y-14188293D02*
X10136729Y-14226388D01*
X10136729Y-14226388D02*
X10127205Y-14245436D01*
X10127205Y-14245436D02*
X10117682Y-14254960D01*
X10117682Y-14254960D02*
X10098634Y-14264484D01*
X10098634Y-14264484D02*
X10079586Y-14264484D01*
X10079586Y-14264484D02*
X10060539Y-14254960D01*
X10060539Y-14254960D02*
X10051015Y-14245436D01*
X10051015Y-14245436D02*
X10041491Y-14226388D01*
X10041491Y-14226388D02*
X10031967Y-14188293D01*
X10031967Y-14188293D02*
X10031967Y-14140674D01*
X10031967Y-14140674D02*
X10041491Y-14102579D01*
X10041491Y-14102579D02*
X10051015Y-14083531D01*
X10051015Y-14083531D02*
X10060539Y-14074008D01*
X10060539Y-14074008D02*
X10079586Y-14064484D01*
X10270063Y-14064484D02*
X10289110Y-14064484D01*
X10289110Y-14064484D02*
X10308158Y-14074008D01*
X10308158Y-14074008D02*
X10317682Y-14083531D01*
X10317682Y-14083531D02*
X10327205Y-14102579D01*
X10327205Y-14102579D02*
X10336729Y-14140674D01*
X10336729Y-14140674D02*
X10336729Y-14188293D01*
X10336729Y-14188293D02*
X10327205Y-14226388D01*
X10327205Y-14226388D02*
X10317682Y-14245436D01*
X10317682Y-14245436D02*
X10308158Y-14254960D01*
X10308158Y-14254960D02*
X10289110Y-14264484D01*
X10289110Y-14264484D02*
X10270063Y-14264484D01*
X10270063Y-14264484D02*
X10251015Y-14254960D01*
X10251015Y-14254960D02*
X10241491Y-14245436D01*
X10241491Y-14245436D02*
X10231967Y-14226388D01*
X10231967Y-14226388D02*
X10222444Y-14188293D01*
X10222444Y-14188293D02*
X10222444Y-14140674D01*
X10222444Y-14140674D02*
X10231967Y-14102579D01*
X10231967Y-14102579D02*
X10241491Y-14083531D01*
X10241491Y-14083531D02*
X10251015Y-14074008D01*
X10251015Y-14074008D02*
X10270063Y-14064484D01*
X10460539Y-14064484D02*
X10479586Y-14064484D01*
X10479586Y-14064484D02*
X10498634Y-14074008D01*
X10498634Y-14074008D02*
X10508158Y-14083531D01*
X10508158Y-14083531D02*
X10517682Y-14102579D01*
X10517682Y-14102579D02*
X10527205Y-14140674D01*
X10527205Y-14140674D02*
X10527205Y-14188293D01*
X10527205Y-14188293D02*
X10517682Y-14226388D01*
X10517682Y-14226388D02*
X10508158Y-14245436D01*
X10508158Y-14245436D02*
X10498634Y-14254960D01*
X10498634Y-14254960D02*
X10479586Y-14264484D01*
X10479586Y-14264484D02*
X10460539Y-14264484D01*
X10460539Y-14264484D02*
X10441491Y-14254960D01*
X10441491Y-14254960D02*
X10431967Y-14245436D01*
X10431967Y-14245436D02*
X10422444Y-14226388D01*
X10422444Y-14226388D02*
X10412920Y-14188293D01*
X10412920Y-14188293D02*
X10412920Y-14140674D01*
X10412920Y-14140674D02*
X10422444Y-14102579D01*
X10422444Y-14102579D02*
X10431967Y-14083531D01*
X10431967Y-14083531D02*
X10441491Y-14074008D01*
X10441491Y-14074008D02*
X10460539Y-14064484D01*
X10612920Y-14264484D02*
X10612920Y-14131150D01*
X10612920Y-14150198D02*
X10622444Y-14140674D01*
X10622444Y-14140674D02*
X10641491Y-14131150D01*
X10641491Y-14131150D02*
X10670063Y-14131150D01*
X10670063Y-14131150D02*
X10689110Y-14140674D01*
X10689110Y-14140674D02*
X10698634Y-14159722D01*
X10698634Y-14159722D02*
X10698634Y-14264484D01*
X10698634Y-14159722D02*
X10708158Y-14140674D01*
X10708158Y-14140674D02*
X10727205Y-14131150D01*
X10727205Y-14131150D02*
X10755777Y-14131150D01*
X10755777Y-14131150D02*
X10774825Y-14140674D01*
X10774825Y-14140674D02*
X10784348Y-14159722D01*
X10784348Y-14159722D02*
X10784348Y-14264484D01*
X10879586Y-14264484D02*
X10879586Y-14131150D01*
X10879586Y-14150198D02*
X10889110Y-14140674D01*
X10889110Y-14140674D02*
X10908158Y-14131150D01*
X10908158Y-14131150D02*
X10936729Y-14131150D01*
X10936729Y-14131150D02*
X10955777Y-14140674D01*
X10955777Y-14140674D02*
X10965301Y-14159722D01*
X10965301Y-14159722D02*
X10965301Y-14264484D01*
X10965301Y-14159722D02*
X10974825Y-14140674D01*
X10974825Y-14140674D02*
X10993872Y-14131150D01*
X10993872Y-14131150D02*
X11022444Y-14131150D01*
X11022444Y-14131150D02*
X11041491Y-14140674D01*
X11041491Y-14140674D02*
X11051015Y-14159722D01*
X11051015Y-14159722D02*
X11051015Y-14264484D01*
X11441491Y-14054960D02*
X11270063Y-14312103D01*
X11698634Y-14064484D02*
X11717682Y-14064484D01*
X11717682Y-14064484D02*
X11736729Y-14074008D01*
X11736729Y-14074008D02*
X11746253Y-14083531D01*
X11746253Y-14083531D02*
X11755777Y-14102579D01*
X11755777Y-14102579D02*
X11765301Y-14140674D01*
X11765301Y-14140674D02*
X11765301Y-14188293D01*
X11765301Y-14188293D02*
X11755777Y-14226388D01*
X11755777Y-14226388D02*
X11746253Y-14245436D01*
X11746253Y-14245436D02*
X11736729Y-14254960D01*
X11736729Y-14254960D02*
X11717682Y-14264484D01*
X11717682Y-14264484D02*
X11698634Y-14264484D01*
X11698634Y-14264484D02*
X11679586Y-14254960D01*
X11679586Y-14254960D02*
X11670063Y-14245436D01*
X11670063Y-14245436D02*
X11660539Y-14226388D01*
X11660539Y-14226388D02*
X11651015Y-14188293D01*
X11651015Y-14188293D02*
X11651015Y-14140674D01*
X11651015Y-14140674D02*
X11660539Y-14102579D01*
X11660539Y-14102579D02*
X11670063Y-14083531D01*
X11670063Y-14083531D02*
X11679586Y-14074008D01*
X11679586Y-14074008D02*
X11698634Y-14064484D01*
X11851015Y-14245436D02*
X11860539Y-14254960D01*
X11860539Y-14254960D02*
X11851015Y-14264484D01*
X11851015Y-14264484D02*
X11841491Y-14254960D01*
X11841491Y-14254960D02*
X11851015Y-14245436D01*
X11851015Y-14245436D02*
X11851015Y-14264484D01*
X11984348Y-14064484D02*
X12003396Y-14064484D01*
X12003396Y-14064484D02*
X12022444Y-14074008D01*
X12022444Y-14074008D02*
X12031967Y-14083531D01*
X12031967Y-14083531D02*
X12041491Y-14102579D01*
X12041491Y-14102579D02*
X12051015Y-14140674D01*
X12051015Y-14140674D02*
X12051015Y-14188293D01*
X12051015Y-14188293D02*
X12041491Y-14226388D01*
X12041491Y-14226388D02*
X12031967Y-14245436D01*
X12031967Y-14245436D02*
X12022444Y-14254960D01*
X12022444Y-14254960D02*
X12003396Y-14264484D01*
X12003396Y-14264484D02*
X11984348Y-14264484D01*
X11984348Y-14264484D02*
X11965301Y-14254960D01*
X11965301Y-14254960D02*
X11955777Y-14245436D01*
X11955777Y-14245436D02*
X11946253Y-14226388D01*
X11946253Y-14226388D02*
X11936729Y-14188293D01*
X11936729Y-14188293D02*
X11936729Y-14140674D01*
X11936729Y-14140674D02*
X11946253Y-14102579D01*
X11946253Y-14102579D02*
X11955777Y-14083531D01*
X11955777Y-14083531D02*
X11965301Y-14074008D01*
X11965301Y-14074008D02*
X11984348Y-14064484D01*
X12117682Y-14064484D02*
X12241491Y-14064484D01*
X12241491Y-14064484D02*
X12174825Y-14140674D01*
X12174825Y-14140674D02*
X12203396Y-14140674D01*
X12203396Y-14140674D02*
X12222444Y-14150198D01*
X12222444Y-14150198D02*
X12231967Y-14159722D01*
X12231967Y-14159722D02*
X12241491Y-14178769D01*
X12241491Y-14178769D02*
X12241491Y-14226388D01*
X12241491Y-14226388D02*
X12231967Y-14245436D01*
X12231967Y-14245436D02*
X12222444Y-14254960D01*
X12222444Y-14254960D02*
X12203396Y-14264484D01*
X12203396Y-14264484D02*
X12146253Y-14264484D01*
X12146253Y-14264484D02*
X12127206Y-14254960D01*
X12127206Y-14254960D02*
X12117682Y-14245436D01*
X12336729Y-14264484D02*
X12374825Y-14264484D01*
X12374825Y-14264484D02*
X12393872Y-14254960D01*
X12393872Y-14254960D02*
X12403396Y-14245436D01*
X12403396Y-14245436D02*
X12422444Y-14216865D01*
X12422444Y-14216865D02*
X12431967Y-14178769D01*
X12431967Y-14178769D02*
X12431967Y-14102579D01*
X12431967Y-14102579D02*
X12422444Y-14083531D01*
X12422444Y-14083531D02*
X12412920Y-14074008D01*
X12412920Y-14074008D02*
X12393872Y-14064484D01*
X12393872Y-14064484D02*
X12355777Y-14064484D01*
X12355777Y-14064484D02*
X12336729Y-14074008D01*
X12336729Y-14074008D02*
X12327206Y-14083531D01*
X12327206Y-14083531D02*
X12317682Y-14102579D01*
X12317682Y-14102579D02*
X12317682Y-14150198D01*
X12317682Y-14150198D02*
X12327206Y-14169246D01*
X12327206Y-14169246D02*
X12336729Y-14178769D01*
X12336729Y-14178769D02*
X12355777Y-14188293D01*
X12355777Y-14188293D02*
X12393872Y-14188293D01*
X12393872Y-14188293D02*
X12412920Y-14178769D01*
X12412920Y-14178769D02*
X12422444Y-14169246D01*
X12422444Y-14169246D02*
X12431967Y-14150198D01*
X12603396Y-14131150D02*
X12603396Y-14264484D01*
X12555777Y-14054960D02*
X12508158Y-14197817D01*
X12508158Y-14197817D02*
X12631967Y-14197817D01*
X12698634Y-14064484D02*
X12698634Y-14102579D01*
X12774825Y-14064484D02*
X12774825Y-14102579D01*
X13070063Y-14340674D02*
X13060539Y-14331150D01*
X13060539Y-14331150D02*
X13041491Y-14302579D01*
X13041491Y-14302579D02*
X13031968Y-14283531D01*
X13031968Y-14283531D02*
X13022444Y-14254960D01*
X13022444Y-14254960D02*
X13012920Y-14207341D01*
X13012920Y-14207341D02*
X13012920Y-14169246D01*
X13012920Y-14169246D02*
X13022444Y-14121627D01*
X13022444Y-14121627D02*
X13031968Y-14093055D01*
X13031968Y-14093055D02*
X13041491Y-14074008D01*
X13041491Y-14074008D02*
X13060539Y-14045436D01*
X13060539Y-14045436D02*
X13070063Y-14035912D01*
X13251015Y-14264484D02*
X13136729Y-14264484D01*
X13193872Y-14264484D02*
X13193872Y-14064484D01*
X13193872Y-14064484D02*
X13174825Y-14093055D01*
X13174825Y-14093055D02*
X13155777Y-14112103D01*
X13155777Y-14112103D02*
X13136729Y-14121627D01*
X13327206Y-14083531D02*
X13336729Y-14074008D01*
X13336729Y-14074008D02*
X13355777Y-14064484D01*
X13355777Y-14064484D02*
X13403396Y-14064484D01*
X13403396Y-14064484D02*
X13422444Y-14074008D01*
X13422444Y-14074008D02*
X13431968Y-14083531D01*
X13431968Y-14083531D02*
X13441491Y-14102579D01*
X13441491Y-14102579D02*
X13441491Y-14121627D01*
X13441491Y-14121627D02*
X13431968Y-14150198D01*
X13431968Y-14150198D02*
X13317682Y-14264484D01*
X13317682Y-14264484D02*
X13441491Y-14264484D01*
X13679587Y-14264484D02*
X13679587Y-14064484D01*
X13765301Y-14264484D02*
X13765301Y-14159722D01*
X13765301Y-14159722D02*
X13755777Y-14140674D01*
X13755777Y-14140674D02*
X13736730Y-14131150D01*
X13736730Y-14131150D02*
X13708158Y-14131150D01*
X13708158Y-14131150D02*
X13689110Y-14140674D01*
X13689110Y-14140674D02*
X13679587Y-14150198D01*
X13889110Y-14264484D02*
X13870063Y-14254960D01*
X13870063Y-14254960D02*
X13860539Y-14245436D01*
X13860539Y-14245436D02*
X13851015Y-14226388D01*
X13851015Y-14226388D02*
X13851015Y-14169246D01*
X13851015Y-14169246D02*
X13860539Y-14150198D01*
X13860539Y-14150198D02*
X13870063Y-14140674D01*
X13870063Y-14140674D02*
X13889110Y-14131150D01*
X13889110Y-14131150D02*
X13917682Y-14131150D01*
X13917682Y-14131150D02*
X13936730Y-14140674D01*
X13936730Y-14140674D02*
X13946253Y-14150198D01*
X13946253Y-14150198D02*
X13955777Y-14169246D01*
X13955777Y-14169246D02*
X13955777Y-14226388D01*
X13955777Y-14226388D02*
X13946253Y-14245436D01*
X13946253Y-14245436D02*
X13936730Y-14254960D01*
X13936730Y-14254960D02*
X13917682Y-14264484D01*
X13917682Y-14264484D02*
X13889110Y-14264484D01*
X14070063Y-14264484D02*
X14051015Y-14254960D01*
X14051015Y-14254960D02*
X14041491Y-14235912D01*
X14041491Y-14235912D02*
X14041491Y-14064484D01*
X14222444Y-14254960D02*
X14203396Y-14264484D01*
X14203396Y-14264484D02*
X14165301Y-14264484D01*
X14165301Y-14264484D02*
X14146253Y-14254960D01*
X14146253Y-14254960D02*
X14136730Y-14235912D01*
X14136730Y-14235912D02*
X14136730Y-14159722D01*
X14136730Y-14159722D02*
X14146253Y-14140674D01*
X14146253Y-14140674D02*
X14165301Y-14131150D01*
X14165301Y-14131150D02*
X14203396Y-14131150D01*
X14203396Y-14131150D02*
X14222444Y-14140674D01*
X14222444Y-14140674D02*
X14231968Y-14159722D01*
X14231968Y-14159722D02*
X14231968Y-14178769D01*
X14231968Y-14178769D02*
X14136730Y-14197817D01*
X14308158Y-14254960D02*
X14327206Y-14264484D01*
X14327206Y-14264484D02*
X14365301Y-14264484D01*
X14365301Y-14264484D02*
X14384349Y-14254960D01*
X14384349Y-14254960D02*
X14393872Y-14235912D01*
X14393872Y-14235912D02*
X14393872Y-14226388D01*
X14393872Y-14226388D02*
X14384349Y-14207341D01*
X14384349Y-14207341D02*
X14365301Y-14197817D01*
X14365301Y-14197817D02*
X14336730Y-14197817D01*
X14336730Y-14197817D02*
X14317682Y-14188293D01*
X14317682Y-14188293D02*
X14308158Y-14169246D01*
X14308158Y-14169246D02*
X14308158Y-14159722D01*
X14308158Y-14159722D02*
X14317682Y-14140674D01*
X14317682Y-14140674D02*
X14336730Y-14131150D01*
X14336730Y-14131150D02*
X14365301Y-14131150D01*
X14365301Y-14131150D02*
X14384349Y-14140674D01*
X14460539Y-14340674D02*
X14470063Y-14331150D01*
X14470063Y-14331150D02*
X14489111Y-14302579D01*
X14489111Y-14302579D02*
X14498634Y-14283531D01*
X14498634Y-14283531D02*
X14508158Y-14254960D01*
X14508158Y-14254960D02*
X14517682Y-14207341D01*
X14517682Y-14207341D02*
X14517682Y-14169246D01*
X14517682Y-14169246D02*
X14508158Y-14121627D01*
X14508158Y-14121627D02*
X14498634Y-14093055D01*
X14498634Y-14093055D02*
X14489111Y-14074008D01*
X14489111Y-14074008D02*
X14470063Y-14045436D01*
X14470063Y-14045436D02*
X14460539Y-14035912D01*
D12*
X9472301Y-14491801D02*
X9472301Y-14382199D01*
X9362699Y-14382199D01*
X9362699Y-14491801D01*
X9472301Y-14491801D01*
D11*
X9860539Y-14528484D02*
X9746253Y-14528484D01*
X9803396Y-14528484D02*
X9803396Y-14328484D01*
X9803396Y-14328484D02*
X9784348Y-14357055D01*
X9784348Y-14357055D02*
X9765301Y-14376103D01*
X9765301Y-14376103D02*
X9746253Y-14385627D01*
X9946253Y-14509436D02*
X9955777Y-14518960D01*
X9955777Y-14518960D02*
X9946253Y-14528484D01*
X9946253Y-14528484D02*
X9936729Y-14518960D01*
X9936729Y-14518960D02*
X9946253Y-14509436D01*
X9946253Y-14509436D02*
X9946253Y-14528484D01*
X10136729Y-14328484D02*
X10041491Y-14328484D01*
X10041491Y-14328484D02*
X10031967Y-14423722D01*
X10031967Y-14423722D02*
X10041491Y-14414198D01*
X10041491Y-14414198D02*
X10060539Y-14404674D01*
X10060539Y-14404674D02*
X10108158Y-14404674D01*
X10108158Y-14404674D02*
X10127205Y-14414198D01*
X10127205Y-14414198D02*
X10136729Y-14423722D01*
X10136729Y-14423722D02*
X10146253Y-14442769D01*
X10146253Y-14442769D02*
X10146253Y-14490388D01*
X10146253Y-14490388D02*
X10136729Y-14509436D01*
X10136729Y-14509436D02*
X10127205Y-14518960D01*
X10127205Y-14518960D02*
X10108158Y-14528484D01*
X10108158Y-14528484D02*
X10060539Y-14528484D01*
X10060539Y-14528484D02*
X10041491Y-14518960D01*
X10041491Y-14518960D02*
X10031967Y-14509436D01*
X10327205Y-14328484D02*
X10231967Y-14328484D01*
X10231967Y-14328484D02*
X10222444Y-14423722D01*
X10222444Y-14423722D02*
X10231967Y-14414198D01*
X10231967Y-14414198D02*
X10251015Y-14404674D01*
X10251015Y-14404674D02*
X10298634Y-14404674D01*
X10298634Y-14404674D02*
X10317682Y-14414198D01*
X10317682Y-14414198D02*
X10327205Y-14423722D01*
X10327205Y-14423722D02*
X10336729Y-14442769D01*
X10336729Y-14442769D02*
X10336729Y-14490388D01*
X10336729Y-14490388D02*
X10327205Y-14509436D01*
X10327205Y-14509436D02*
X10317682Y-14518960D01*
X10317682Y-14518960D02*
X10298634Y-14528484D01*
X10298634Y-14528484D02*
X10251015Y-14528484D01*
X10251015Y-14528484D02*
X10231967Y-14518960D01*
X10231967Y-14518960D02*
X10222444Y-14509436D01*
X10460539Y-14328484D02*
X10479586Y-14328484D01*
X10479586Y-14328484D02*
X10498634Y-14338008D01*
X10498634Y-14338008D02*
X10508158Y-14347531D01*
X10508158Y-14347531D02*
X10517682Y-14366579D01*
X10517682Y-14366579D02*
X10527205Y-14404674D01*
X10527205Y-14404674D02*
X10527205Y-14452293D01*
X10527205Y-14452293D02*
X10517682Y-14490388D01*
X10517682Y-14490388D02*
X10508158Y-14509436D01*
X10508158Y-14509436D02*
X10498634Y-14518960D01*
X10498634Y-14518960D02*
X10479586Y-14528484D01*
X10479586Y-14528484D02*
X10460539Y-14528484D01*
X10460539Y-14528484D02*
X10441491Y-14518960D01*
X10441491Y-14518960D02*
X10431967Y-14509436D01*
X10431967Y-14509436D02*
X10422444Y-14490388D01*
X10422444Y-14490388D02*
X10412920Y-14452293D01*
X10412920Y-14452293D02*
X10412920Y-14404674D01*
X10412920Y-14404674D02*
X10422444Y-14366579D01*
X10422444Y-14366579D02*
X10431967Y-14347531D01*
X10431967Y-14347531D02*
X10441491Y-14338008D01*
X10441491Y-14338008D02*
X10460539Y-14328484D01*
X10612920Y-14528484D02*
X10612920Y-14395150D01*
X10612920Y-14414198D02*
X10622444Y-14404674D01*
X10622444Y-14404674D02*
X10641491Y-14395150D01*
X10641491Y-14395150D02*
X10670063Y-14395150D01*
X10670063Y-14395150D02*
X10689110Y-14404674D01*
X10689110Y-14404674D02*
X10698634Y-14423722D01*
X10698634Y-14423722D02*
X10698634Y-14528484D01*
X10698634Y-14423722D02*
X10708158Y-14404674D01*
X10708158Y-14404674D02*
X10727205Y-14395150D01*
X10727205Y-14395150D02*
X10755777Y-14395150D01*
X10755777Y-14395150D02*
X10774825Y-14404674D01*
X10774825Y-14404674D02*
X10784348Y-14423722D01*
X10784348Y-14423722D02*
X10784348Y-14528484D01*
X10879586Y-14528484D02*
X10879586Y-14395150D01*
X10879586Y-14414198D02*
X10889110Y-14404674D01*
X10889110Y-14404674D02*
X10908158Y-14395150D01*
X10908158Y-14395150D02*
X10936729Y-14395150D01*
X10936729Y-14395150D02*
X10955777Y-14404674D01*
X10955777Y-14404674D02*
X10965301Y-14423722D01*
X10965301Y-14423722D02*
X10965301Y-14528484D01*
X10965301Y-14423722D02*
X10974825Y-14404674D01*
X10974825Y-14404674D02*
X10993872Y-14395150D01*
X10993872Y-14395150D02*
X11022444Y-14395150D01*
X11022444Y-14395150D02*
X11041491Y-14404674D01*
X11041491Y-14404674D02*
X11051015Y-14423722D01*
X11051015Y-14423722D02*
X11051015Y-14528484D01*
X11441491Y-14318960D02*
X11270063Y-14576103D01*
X11698634Y-14328484D02*
X11717682Y-14328484D01*
X11717682Y-14328484D02*
X11736729Y-14338008D01*
X11736729Y-14338008D02*
X11746253Y-14347531D01*
X11746253Y-14347531D02*
X11755777Y-14366579D01*
X11755777Y-14366579D02*
X11765301Y-14404674D01*
X11765301Y-14404674D02*
X11765301Y-14452293D01*
X11765301Y-14452293D02*
X11755777Y-14490388D01*
X11755777Y-14490388D02*
X11746253Y-14509436D01*
X11746253Y-14509436D02*
X11736729Y-14518960D01*
X11736729Y-14518960D02*
X11717682Y-14528484D01*
X11717682Y-14528484D02*
X11698634Y-14528484D01*
X11698634Y-14528484D02*
X11679586Y-14518960D01*
X11679586Y-14518960D02*
X11670063Y-14509436D01*
X11670063Y-14509436D02*
X11660539Y-14490388D01*
X11660539Y-14490388D02*
X11651015Y-14452293D01*
X11651015Y-14452293D02*
X11651015Y-14404674D01*
X11651015Y-14404674D02*
X11660539Y-14366579D01*
X11660539Y-14366579D02*
X11670063Y-14347531D01*
X11670063Y-14347531D02*
X11679586Y-14338008D01*
X11679586Y-14338008D02*
X11698634Y-14328484D01*
X11851015Y-14509436D02*
X11860539Y-14518960D01*
X11860539Y-14518960D02*
X11851015Y-14528484D01*
X11851015Y-14528484D02*
X11841491Y-14518960D01*
X11841491Y-14518960D02*
X11851015Y-14509436D01*
X11851015Y-14509436D02*
X11851015Y-14528484D01*
X11984348Y-14328484D02*
X12003396Y-14328484D01*
X12003396Y-14328484D02*
X12022444Y-14338008D01*
X12022444Y-14338008D02*
X12031967Y-14347531D01*
X12031967Y-14347531D02*
X12041491Y-14366579D01*
X12041491Y-14366579D02*
X12051015Y-14404674D01*
X12051015Y-14404674D02*
X12051015Y-14452293D01*
X12051015Y-14452293D02*
X12041491Y-14490388D01*
X12041491Y-14490388D02*
X12031967Y-14509436D01*
X12031967Y-14509436D02*
X12022444Y-14518960D01*
X12022444Y-14518960D02*
X12003396Y-14528484D01*
X12003396Y-14528484D02*
X11984348Y-14528484D01*
X11984348Y-14528484D02*
X11965301Y-14518960D01*
X11965301Y-14518960D02*
X11955777Y-14509436D01*
X11955777Y-14509436D02*
X11946253Y-14490388D01*
X11946253Y-14490388D02*
X11936729Y-14452293D01*
X11936729Y-14452293D02*
X11936729Y-14404674D01*
X11936729Y-14404674D02*
X11946253Y-14366579D01*
X11946253Y-14366579D02*
X11955777Y-14347531D01*
X11955777Y-14347531D02*
X11965301Y-14338008D01*
X11965301Y-14338008D02*
X11984348Y-14328484D01*
X12222444Y-14328484D02*
X12184348Y-14328484D01*
X12184348Y-14328484D02*
X12165301Y-14338008D01*
X12165301Y-14338008D02*
X12155777Y-14347531D01*
X12155777Y-14347531D02*
X12136729Y-14376103D01*
X12136729Y-14376103D02*
X12127206Y-14414198D01*
X12127206Y-14414198D02*
X12127206Y-14490388D01*
X12127206Y-14490388D02*
X12136729Y-14509436D01*
X12136729Y-14509436D02*
X12146253Y-14518960D01*
X12146253Y-14518960D02*
X12165301Y-14528484D01*
X12165301Y-14528484D02*
X12203396Y-14528484D01*
X12203396Y-14528484D02*
X12222444Y-14518960D01*
X12222444Y-14518960D02*
X12231967Y-14509436D01*
X12231967Y-14509436D02*
X12241491Y-14490388D01*
X12241491Y-14490388D02*
X12241491Y-14442769D01*
X12241491Y-14442769D02*
X12231967Y-14423722D01*
X12231967Y-14423722D02*
X12222444Y-14414198D01*
X12222444Y-14414198D02*
X12203396Y-14404674D01*
X12203396Y-14404674D02*
X12165301Y-14404674D01*
X12165301Y-14404674D02*
X12146253Y-14414198D01*
X12146253Y-14414198D02*
X12136729Y-14423722D01*
X12136729Y-14423722D02*
X12127206Y-14442769D01*
X12431967Y-14528484D02*
X12317682Y-14528484D01*
X12374825Y-14528484D02*
X12374825Y-14328484D01*
X12374825Y-14328484D02*
X12355777Y-14357055D01*
X12355777Y-14357055D02*
X12336729Y-14376103D01*
X12336729Y-14376103D02*
X12317682Y-14385627D01*
X12555777Y-14328484D02*
X12574825Y-14328484D01*
X12574825Y-14328484D02*
X12593872Y-14338008D01*
X12593872Y-14338008D02*
X12603396Y-14347531D01*
X12603396Y-14347531D02*
X12612920Y-14366579D01*
X12612920Y-14366579D02*
X12622444Y-14404674D01*
X12622444Y-14404674D02*
X12622444Y-14452293D01*
X12622444Y-14452293D02*
X12612920Y-14490388D01*
X12612920Y-14490388D02*
X12603396Y-14509436D01*
X12603396Y-14509436D02*
X12593872Y-14518960D01*
X12593872Y-14518960D02*
X12574825Y-14528484D01*
X12574825Y-14528484D02*
X12555777Y-14528484D01*
X12555777Y-14528484D02*
X12536729Y-14518960D01*
X12536729Y-14518960D02*
X12527206Y-14509436D01*
X12527206Y-14509436D02*
X12517682Y-14490388D01*
X12517682Y-14490388D02*
X12508158Y-14452293D01*
X12508158Y-14452293D02*
X12508158Y-14404674D01*
X12508158Y-14404674D02*
X12517682Y-14366579D01*
X12517682Y-14366579D02*
X12527206Y-14347531D01*
X12527206Y-14347531D02*
X12536729Y-14338008D01*
X12536729Y-14338008D02*
X12555777Y-14328484D01*
X12698634Y-14328484D02*
X12698634Y-14366579D01*
X12774825Y-14328484D02*
X12774825Y-14366579D01*
X13070063Y-14604674D02*
X13060539Y-14595150D01*
X13060539Y-14595150D02*
X13041491Y-14566579D01*
X13041491Y-14566579D02*
X13031968Y-14547531D01*
X13031968Y-14547531D02*
X13022444Y-14518960D01*
X13022444Y-14518960D02*
X13012920Y-14471341D01*
X13012920Y-14471341D02*
X13012920Y-14433246D01*
X13012920Y-14433246D02*
X13022444Y-14385627D01*
X13022444Y-14385627D02*
X13031968Y-14357055D01*
X13031968Y-14357055D02*
X13041491Y-14338008D01*
X13041491Y-14338008D02*
X13060539Y-14309436D01*
X13060539Y-14309436D02*
X13070063Y-14299912D01*
X13136729Y-14347531D02*
X13146253Y-14338008D01*
X13146253Y-14338008D02*
X13165301Y-14328484D01*
X13165301Y-14328484D02*
X13212920Y-14328484D01*
X13212920Y-14328484D02*
X13231968Y-14338008D01*
X13231968Y-14338008D02*
X13241491Y-14347531D01*
X13241491Y-14347531D02*
X13251015Y-14366579D01*
X13251015Y-14366579D02*
X13251015Y-14385627D01*
X13251015Y-14385627D02*
X13241491Y-14414198D01*
X13241491Y-14414198D02*
X13127206Y-14528484D01*
X13127206Y-14528484D02*
X13251015Y-14528484D01*
X13489110Y-14528484D02*
X13489110Y-14328484D01*
X13574825Y-14528484D02*
X13574825Y-14423722D01*
X13574825Y-14423722D02*
X13565301Y-14404674D01*
X13565301Y-14404674D02*
X13546253Y-14395150D01*
X13546253Y-14395150D02*
X13517682Y-14395150D01*
X13517682Y-14395150D02*
X13498634Y-14404674D01*
X13498634Y-14404674D02*
X13489110Y-14414198D01*
X13698634Y-14528484D02*
X13679587Y-14518960D01*
X13679587Y-14518960D02*
X13670063Y-14509436D01*
X13670063Y-14509436D02*
X13660539Y-14490388D01*
X13660539Y-14490388D02*
X13660539Y-14433246D01*
X13660539Y-14433246D02*
X13670063Y-14414198D01*
X13670063Y-14414198D02*
X13679587Y-14404674D01*
X13679587Y-14404674D02*
X13698634Y-14395150D01*
X13698634Y-14395150D02*
X13727206Y-14395150D01*
X13727206Y-14395150D02*
X13746253Y-14404674D01*
X13746253Y-14404674D02*
X13755777Y-14414198D01*
X13755777Y-14414198D02*
X13765301Y-14433246D01*
X13765301Y-14433246D02*
X13765301Y-14490388D01*
X13765301Y-14490388D02*
X13755777Y-14509436D01*
X13755777Y-14509436D02*
X13746253Y-14518960D01*
X13746253Y-14518960D02*
X13727206Y-14528484D01*
X13727206Y-14528484D02*
X13698634Y-14528484D01*
X13879587Y-14528484D02*
X13860539Y-14518960D01*
X13860539Y-14518960D02*
X13851015Y-14499912D01*
X13851015Y-14499912D02*
X13851015Y-14328484D01*
X14031968Y-14518960D02*
X14012920Y-14528484D01*
X14012920Y-14528484D02*
X13974825Y-14528484D01*
X13974825Y-14528484D02*
X13955777Y-14518960D01*
X13955777Y-14518960D02*
X13946253Y-14499912D01*
X13946253Y-14499912D02*
X13946253Y-14423722D01*
X13946253Y-14423722D02*
X13955777Y-14404674D01*
X13955777Y-14404674D02*
X13974825Y-14395150D01*
X13974825Y-14395150D02*
X14012920Y-14395150D01*
X14012920Y-14395150D02*
X14031968Y-14404674D01*
X14031968Y-14404674D02*
X14041491Y-14423722D01*
X14041491Y-14423722D02*
X14041491Y-14442769D01*
X14041491Y-14442769D02*
X13946253Y-14461817D01*
X14117682Y-14518960D02*
X14136730Y-14528484D01*
X14136730Y-14528484D02*
X14174825Y-14528484D01*
X14174825Y-14528484D02*
X14193872Y-14518960D01*
X14193872Y-14518960D02*
X14203396Y-14499912D01*
X14203396Y-14499912D02*
X14203396Y-14490388D01*
X14203396Y-14490388D02*
X14193872Y-14471341D01*
X14193872Y-14471341D02*
X14174825Y-14461817D01*
X14174825Y-14461817D02*
X14146253Y-14461817D01*
X14146253Y-14461817D02*
X14127206Y-14452293D01*
X14127206Y-14452293D02*
X14117682Y-14433246D01*
X14117682Y-14433246D02*
X14117682Y-14423722D01*
X14117682Y-14423722D02*
X14127206Y-14404674D01*
X14127206Y-14404674D02*
X14146253Y-14395150D01*
X14146253Y-14395150D02*
X14174825Y-14395150D01*
X14174825Y-14395150D02*
X14193872Y-14404674D01*
X14270063Y-14604674D02*
X14279587Y-14595150D01*
X14279587Y-14595150D02*
X14298634Y-14566579D01*
X14298634Y-14566579D02*
X14308158Y-14547531D01*
X14308158Y-14547531D02*
X14317682Y-14518960D01*
X14317682Y-14518960D02*
X14327206Y-14471341D01*
X14327206Y-14471341D02*
X14327206Y-14433246D01*
X14327206Y-14433246D02*
X14317682Y-14385627D01*
X14317682Y-14385627D02*
X14308158Y-14357055D01*
X14308158Y-14357055D02*
X14298634Y-14338008D01*
X14298634Y-14338008D02*
X14279587Y-14309436D01*
X14279587Y-14309436D02*
X14270063Y-14299912D01*
X9395000Y-14812000D02*
X9495000Y-14712000D01*
X9395000Y-14612000D01*
X9295000Y-14712000D01*
X9395000Y-14812000D01*
X9746253Y-14622531D02*
X9755777Y-14613008D01*
X9755777Y-14613008D02*
X9774824Y-14603484D01*
X9774824Y-14603484D02*
X9822444Y-14603484D01*
X9822444Y-14603484D02*
X9841491Y-14613008D01*
X9841491Y-14613008D02*
X9851015Y-14622531D01*
X9851015Y-14622531D02*
X9860539Y-14641579D01*
X9860539Y-14641579D02*
X9860539Y-14660627D01*
X9860539Y-14660627D02*
X9851015Y-14689198D01*
X9851015Y-14689198D02*
X9736729Y-14803484D01*
X9736729Y-14803484D02*
X9860539Y-14803484D01*
X9946253Y-14784436D02*
X9955777Y-14793960D01*
X9955777Y-14793960D02*
X9946253Y-14803484D01*
X9946253Y-14803484D02*
X9936729Y-14793960D01*
X9936729Y-14793960D02*
X9946253Y-14784436D01*
X9946253Y-14784436D02*
X9946253Y-14803484D01*
X10136729Y-14603484D02*
X10041491Y-14603484D01*
X10041491Y-14603484D02*
X10031967Y-14698722D01*
X10031967Y-14698722D02*
X10041491Y-14689198D01*
X10041491Y-14689198D02*
X10060539Y-14679674D01*
X10060539Y-14679674D02*
X10108158Y-14679674D01*
X10108158Y-14679674D02*
X10127205Y-14689198D01*
X10127205Y-14689198D02*
X10136729Y-14698722D01*
X10136729Y-14698722D02*
X10146253Y-14717769D01*
X10146253Y-14717769D02*
X10146253Y-14765388D01*
X10146253Y-14765388D02*
X10136729Y-14784436D01*
X10136729Y-14784436D02*
X10127205Y-14793960D01*
X10127205Y-14793960D02*
X10108158Y-14803484D01*
X10108158Y-14803484D02*
X10060539Y-14803484D01*
X10060539Y-14803484D02*
X10041491Y-14793960D01*
X10041491Y-14793960D02*
X10031967Y-14784436D01*
X10270063Y-14603484D02*
X10289110Y-14603484D01*
X10289110Y-14603484D02*
X10308158Y-14613008D01*
X10308158Y-14613008D02*
X10317682Y-14622531D01*
X10317682Y-14622531D02*
X10327205Y-14641579D01*
X10327205Y-14641579D02*
X10336729Y-14679674D01*
X10336729Y-14679674D02*
X10336729Y-14727293D01*
X10336729Y-14727293D02*
X10327205Y-14765388D01*
X10327205Y-14765388D02*
X10317682Y-14784436D01*
X10317682Y-14784436D02*
X10308158Y-14793960D01*
X10308158Y-14793960D02*
X10289110Y-14803484D01*
X10289110Y-14803484D02*
X10270063Y-14803484D01*
X10270063Y-14803484D02*
X10251015Y-14793960D01*
X10251015Y-14793960D02*
X10241491Y-14784436D01*
X10241491Y-14784436D02*
X10231967Y-14765388D01*
X10231967Y-14765388D02*
X10222444Y-14727293D01*
X10222444Y-14727293D02*
X10222444Y-14679674D01*
X10222444Y-14679674D02*
X10231967Y-14641579D01*
X10231967Y-14641579D02*
X10241491Y-14622531D01*
X10241491Y-14622531D02*
X10251015Y-14613008D01*
X10251015Y-14613008D02*
X10270063Y-14603484D01*
X10460539Y-14603484D02*
X10479586Y-14603484D01*
X10479586Y-14603484D02*
X10498634Y-14613008D01*
X10498634Y-14613008D02*
X10508158Y-14622531D01*
X10508158Y-14622531D02*
X10517682Y-14641579D01*
X10517682Y-14641579D02*
X10527205Y-14679674D01*
X10527205Y-14679674D02*
X10527205Y-14727293D01*
X10527205Y-14727293D02*
X10517682Y-14765388D01*
X10517682Y-14765388D02*
X10508158Y-14784436D01*
X10508158Y-14784436D02*
X10498634Y-14793960D01*
X10498634Y-14793960D02*
X10479586Y-14803484D01*
X10479586Y-14803484D02*
X10460539Y-14803484D01*
X10460539Y-14803484D02*
X10441491Y-14793960D01*
X10441491Y-14793960D02*
X10431967Y-14784436D01*
X10431967Y-14784436D02*
X10422444Y-14765388D01*
X10422444Y-14765388D02*
X10412920Y-14727293D01*
X10412920Y-14727293D02*
X10412920Y-14679674D01*
X10412920Y-14679674D02*
X10422444Y-14641579D01*
X10422444Y-14641579D02*
X10431967Y-14622531D01*
X10431967Y-14622531D02*
X10441491Y-14613008D01*
X10441491Y-14613008D02*
X10460539Y-14603484D01*
X10612920Y-14803484D02*
X10612920Y-14670150D01*
X10612920Y-14689198D02*
X10622444Y-14679674D01*
X10622444Y-14679674D02*
X10641491Y-14670150D01*
X10641491Y-14670150D02*
X10670063Y-14670150D01*
X10670063Y-14670150D02*
X10689110Y-14679674D01*
X10689110Y-14679674D02*
X10698634Y-14698722D01*
X10698634Y-14698722D02*
X10698634Y-14803484D01*
X10698634Y-14698722D02*
X10708158Y-14679674D01*
X10708158Y-14679674D02*
X10727205Y-14670150D01*
X10727205Y-14670150D02*
X10755777Y-14670150D01*
X10755777Y-14670150D02*
X10774825Y-14679674D01*
X10774825Y-14679674D02*
X10784348Y-14698722D01*
X10784348Y-14698722D02*
X10784348Y-14803484D01*
X10879586Y-14803484D02*
X10879586Y-14670150D01*
X10879586Y-14689198D02*
X10889110Y-14679674D01*
X10889110Y-14679674D02*
X10908158Y-14670150D01*
X10908158Y-14670150D02*
X10936729Y-14670150D01*
X10936729Y-14670150D02*
X10955777Y-14679674D01*
X10955777Y-14679674D02*
X10965301Y-14698722D01*
X10965301Y-14698722D02*
X10965301Y-14803484D01*
X10965301Y-14698722D02*
X10974825Y-14679674D01*
X10974825Y-14679674D02*
X10993872Y-14670150D01*
X10993872Y-14670150D02*
X11022444Y-14670150D01*
X11022444Y-14670150D02*
X11041491Y-14679674D01*
X11041491Y-14679674D02*
X11051015Y-14698722D01*
X11051015Y-14698722D02*
X11051015Y-14803484D01*
X11441491Y-14593960D02*
X11270063Y-14851103D01*
X11698634Y-14603484D02*
X11717682Y-14603484D01*
X11717682Y-14603484D02*
X11736729Y-14613008D01*
X11736729Y-14613008D02*
X11746253Y-14622531D01*
X11746253Y-14622531D02*
X11755777Y-14641579D01*
X11755777Y-14641579D02*
X11765301Y-14679674D01*
X11765301Y-14679674D02*
X11765301Y-14727293D01*
X11765301Y-14727293D02*
X11755777Y-14765388D01*
X11755777Y-14765388D02*
X11746253Y-14784436D01*
X11746253Y-14784436D02*
X11736729Y-14793960D01*
X11736729Y-14793960D02*
X11717682Y-14803484D01*
X11717682Y-14803484D02*
X11698634Y-14803484D01*
X11698634Y-14803484D02*
X11679586Y-14793960D01*
X11679586Y-14793960D02*
X11670063Y-14784436D01*
X11670063Y-14784436D02*
X11660539Y-14765388D01*
X11660539Y-14765388D02*
X11651015Y-14727293D01*
X11651015Y-14727293D02*
X11651015Y-14679674D01*
X11651015Y-14679674D02*
X11660539Y-14641579D01*
X11660539Y-14641579D02*
X11670063Y-14622531D01*
X11670063Y-14622531D02*
X11679586Y-14613008D01*
X11679586Y-14613008D02*
X11698634Y-14603484D01*
X11851015Y-14784436D02*
X11860539Y-14793960D01*
X11860539Y-14793960D02*
X11851015Y-14803484D01*
X11851015Y-14803484D02*
X11841491Y-14793960D01*
X11841491Y-14793960D02*
X11851015Y-14784436D01*
X11851015Y-14784436D02*
X11851015Y-14803484D01*
X11984348Y-14603484D02*
X12003396Y-14603484D01*
X12003396Y-14603484D02*
X12022444Y-14613008D01*
X12022444Y-14613008D02*
X12031967Y-14622531D01*
X12031967Y-14622531D02*
X12041491Y-14641579D01*
X12041491Y-14641579D02*
X12051015Y-14679674D01*
X12051015Y-14679674D02*
X12051015Y-14727293D01*
X12051015Y-14727293D02*
X12041491Y-14765388D01*
X12041491Y-14765388D02*
X12031967Y-14784436D01*
X12031967Y-14784436D02*
X12022444Y-14793960D01*
X12022444Y-14793960D02*
X12003396Y-14803484D01*
X12003396Y-14803484D02*
X11984348Y-14803484D01*
X11984348Y-14803484D02*
X11965301Y-14793960D01*
X11965301Y-14793960D02*
X11955777Y-14784436D01*
X11955777Y-14784436D02*
X11946253Y-14765388D01*
X11946253Y-14765388D02*
X11936729Y-14727293D01*
X11936729Y-14727293D02*
X11936729Y-14679674D01*
X11936729Y-14679674D02*
X11946253Y-14641579D01*
X11946253Y-14641579D02*
X11955777Y-14622531D01*
X11955777Y-14622531D02*
X11965301Y-14613008D01*
X11965301Y-14613008D02*
X11984348Y-14603484D01*
X12146253Y-14803484D02*
X12184348Y-14803484D01*
X12184348Y-14803484D02*
X12203396Y-14793960D01*
X12203396Y-14793960D02*
X12212920Y-14784436D01*
X12212920Y-14784436D02*
X12231967Y-14755865D01*
X12231967Y-14755865D02*
X12241491Y-14717769D01*
X12241491Y-14717769D02*
X12241491Y-14641579D01*
X12241491Y-14641579D02*
X12231967Y-14622531D01*
X12231967Y-14622531D02*
X12222444Y-14613008D01*
X12222444Y-14613008D02*
X12203396Y-14603484D01*
X12203396Y-14603484D02*
X12165301Y-14603484D01*
X12165301Y-14603484D02*
X12146253Y-14613008D01*
X12146253Y-14613008D02*
X12136729Y-14622531D01*
X12136729Y-14622531D02*
X12127206Y-14641579D01*
X12127206Y-14641579D02*
X12127206Y-14689198D01*
X12127206Y-14689198D02*
X12136729Y-14708246D01*
X12136729Y-14708246D02*
X12146253Y-14717769D01*
X12146253Y-14717769D02*
X12165301Y-14727293D01*
X12165301Y-14727293D02*
X12203396Y-14727293D01*
X12203396Y-14727293D02*
X12222444Y-14717769D01*
X12222444Y-14717769D02*
X12231967Y-14708246D01*
X12231967Y-14708246D02*
X12241491Y-14689198D01*
X12355777Y-14689198D02*
X12336729Y-14679674D01*
X12336729Y-14679674D02*
X12327206Y-14670150D01*
X12327206Y-14670150D02*
X12317682Y-14651103D01*
X12317682Y-14651103D02*
X12317682Y-14641579D01*
X12317682Y-14641579D02*
X12327206Y-14622531D01*
X12327206Y-14622531D02*
X12336729Y-14613008D01*
X12336729Y-14613008D02*
X12355777Y-14603484D01*
X12355777Y-14603484D02*
X12393872Y-14603484D01*
X12393872Y-14603484D02*
X12412920Y-14613008D01*
X12412920Y-14613008D02*
X12422444Y-14622531D01*
X12422444Y-14622531D02*
X12431967Y-14641579D01*
X12431967Y-14641579D02*
X12431967Y-14651103D01*
X12431967Y-14651103D02*
X12422444Y-14670150D01*
X12422444Y-14670150D02*
X12412920Y-14679674D01*
X12412920Y-14679674D02*
X12393872Y-14689198D01*
X12393872Y-14689198D02*
X12355777Y-14689198D01*
X12355777Y-14689198D02*
X12336729Y-14698722D01*
X12336729Y-14698722D02*
X12327206Y-14708246D01*
X12327206Y-14708246D02*
X12317682Y-14727293D01*
X12317682Y-14727293D02*
X12317682Y-14765388D01*
X12317682Y-14765388D02*
X12327206Y-14784436D01*
X12327206Y-14784436D02*
X12336729Y-14793960D01*
X12336729Y-14793960D02*
X12355777Y-14803484D01*
X12355777Y-14803484D02*
X12393872Y-14803484D01*
X12393872Y-14803484D02*
X12412920Y-14793960D01*
X12412920Y-14793960D02*
X12422444Y-14784436D01*
X12422444Y-14784436D02*
X12431967Y-14765388D01*
X12431967Y-14765388D02*
X12431967Y-14727293D01*
X12431967Y-14727293D02*
X12422444Y-14708246D01*
X12422444Y-14708246D02*
X12412920Y-14698722D01*
X12412920Y-14698722D02*
X12393872Y-14689198D01*
X12603396Y-14670150D02*
X12603396Y-14803484D01*
X12555777Y-14593960D02*
X12508158Y-14736817D01*
X12508158Y-14736817D02*
X12631967Y-14736817D01*
X12698634Y-14603484D02*
X12698634Y-14641579D01*
X12774825Y-14603484D02*
X12774825Y-14641579D01*
X13070063Y-14879674D02*
X13060539Y-14870150D01*
X13060539Y-14870150D02*
X13041491Y-14841579D01*
X13041491Y-14841579D02*
X13031968Y-14822531D01*
X13031968Y-14822531D02*
X13022444Y-14793960D01*
X13022444Y-14793960D02*
X13012920Y-14746341D01*
X13012920Y-14746341D02*
X13012920Y-14708246D01*
X13012920Y-14708246D02*
X13022444Y-14660627D01*
X13022444Y-14660627D02*
X13031968Y-14632055D01*
X13031968Y-14632055D02*
X13041491Y-14613008D01*
X13041491Y-14613008D02*
X13060539Y-14584436D01*
X13060539Y-14584436D02*
X13070063Y-14574912D01*
X13231968Y-14670150D02*
X13231968Y-14803484D01*
X13184348Y-14593960D02*
X13136729Y-14736817D01*
X13136729Y-14736817D02*
X13260539Y-14736817D01*
X13489110Y-14803484D02*
X13489110Y-14603484D01*
X13574825Y-14803484D02*
X13574825Y-14698722D01*
X13574825Y-14698722D02*
X13565301Y-14679674D01*
X13565301Y-14679674D02*
X13546253Y-14670150D01*
X13546253Y-14670150D02*
X13517682Y-14670150D01*
X13517682Y-14670150D02*
X13498634Y-14679674D01*
X13498634Y-14679674D02*
X13489110Y-14689198D01*
X13698634Y-14803484D02*
X13679587Y-14793960D01*
X13679587Y-14793960D02*
X13670063Y-14784436D01*
X13670063Y-14784436D02*
X13660539Y-14765388D01*
X13660539Y-14765388D02*
X13660539Y-14708246D01*
X13660539Y-14708246D02*
X13670063Y-14689198D01*
X13670063Y-14689198D02*
X13679587Y-14679674D01*
X13679587Y-14679674D02*
X13698634Y-14670150D01*
X13698634Y-14670150D02*
X13727206Y-14670150D01*
X13727206Y-14670150D02*
X13746253Y-14679674D01*
X13746253Y-14679674D02*
X13755777Y-14689198D01*
X13755777Y-14689198D02*
X13765301Y-14708246D01*
X13765301Y-14708246D02*
X13765301Y-14765388D01*
X13765301Y-14765388D02*
X13755777Y-14784436D01*
X13755777Y-14784436D02*
X13746253Y-14793960D01*
X13746253Y-14793960D02*
X13727206Y-14803484D01*
X13727206Y-14803484D02*
X13698634Y-14803484D01*
X13879587Y-14803484D02*
X13860539Y-14793960D01*
X13860539Y-14793960D02*
X13851015Y-14774912D01*
X13851015Y-14774912D02*
X13851015Y-14603484D01*
X14031968Y-14793960D02*
X14012920Y-14803484D01*
X14012920Y-14803484D02*
X13974825Y-14803484D01*
X13974825Y-14803484D02*
X13955777Y-14793960D01*
X13955777Y-14793960D02*
X13946253Y-14774912D01*
X13946253Y-14774912D02*
X13946253Y-14698722D01*
X13946253Y-14698722D02*
X13955777Y-14679674D01*
X13955777Y-14679674D02*
X13974825Y-14670150D01*
X13974825Y-14670150D02*
X14012920Y-14670150D01*
X14012920Y-14670150D02*
X14031968Y-14679674D01*
X14031968Y-14679674D02*
X14041491Y-14698722D01*
X14041491Y-14698722D02*
X14041491Y-14717769D01*
X14041491Y-14717769D02*
X13946253Y-14736817D01*
X14117682Y-14793960D02*
X14136730Y-14803484D01*
X14136730Y-14803484D02*
X14174825Y-14803484D01*
X14174825Y-14803484D02*
X14193872Y-14793960D01*
X14193872Y-14793960D02*
X14203396Y-14774912D01*
X14203396Y-14774912D02*
X14203396Y-14765388D01*
X14203396Y-14765388D02*
X14193872Y-14746341D01*
X14193872Y-14746341D02*
X14174825Y-14736817D01*
X14174825Y-14736817D02*
X14146253Y-14736817D01*
X14146253Y-14736817D02*
X14127206Y-14727293D01*
X14127206Y-14727293D02*
X14117682Y-14708246D01*
X14117682Y-14708246D02*
X14117682Y-14698722D01*
X14117682Y-14698722D02*
X14127206Y-14679674D01*
X14127206Y-14679674D02*
X14146253Y-14670150D01*
X14146253Y-14670150D02*
X14174825Y-14670150D01*
X14174825Y-14670150D02*
X14193872Y-14679674D01*
X14270063Y-14879674D02*
X14279587Y-14870150D01*
X14279587Y-14870150D02*
X14298634Y-14841579D01*
X14298634Y-14841579D02*
X14308158Y-14822531D01*
X14308158Y-14822531D02*
X14317682Y-14793960D01*
X14317682Y-14793960D02*
X14327206Y-14746341D01*
X14327206Y-14746341D02*
X14327206Y-14708246D01*
X14327206Y-14708246D02*
X14317682Y-14660627D01*
X14317682Y-14660627D02*
X14308158Y-14632055D01*
X14308158Y-14632055D02*
X14298634Y-14613008D01*
X14298634Y-14613008D02*
X14279587Y-14584436D01*
X14279587Y-14584436D02*
X14270063Y-14574912D01*
M02*
