G04 #@! TF.GenerationSoftware,KiCad,Pcbnew,7.0.9*
G04 #@! TF.CreationDate,2024-01-11T22:43:50+01:00*
G04 #@! TF.ProjectId,CameraV1,43616d65-7261-4563-912e-6b696361645f,rev?*
G04 #@! TF.SameCoordinates,Original*
G04 #@! TF.FileFunction,Legend,Bot*
G04 #@! TF.FilePolarity,Positive*
%FSLAX46Y46*%
G04 Gerber Fmt 4.6, Leading zero omitted, Abs format (unit mm)*
G04 Created by KiCad (PCBNEW 7.0.9) date 2024-01-11 22:43:50*
%MOMM*%
%LPD*%
G01*
G04 APERTURE LIST*
G04 Aperture macros list*
%AMRoundRect*
0 Rectangle with rounded corners*
0 $1 Rounding radius*
0 $2 $3 $4 $5 $6 $7 $8 $9 X,Y pos of 4 corners*
0 Add a 4 corners polygon primitive as box body*
4,1,4,$2,$3,$4,$5,$6,$7,$8,$9,$2,$3,0*
0 Add four circle primitives for the rounded corners*
1,1,$1+$1,$2,$3*
1,1,$1+$1,$4,$5*
1,1,$1+$1,$6,$7*
1,1,$1+$1,$8,$9*
0 Add four rect primitives between the rounded corners*
20,1,$1+$1,$2,$3,$4,$5,0*
20,1,$1+$1,$4,$5,$6,$7,0*
20,1,$1+$1,$6,$7,$8,$9,0*
20,1,$1+$1,$8,$9,$2,$3,0*%
G04 Aperture macros list end*
%ADD10C,0.150000*%
%ADD11C,0.120000*%
%ADD12R,1.700000X1.700000*%
%ADD13O,1.700000X1.700000*%
%ADD14C,2.900000*%
%ADD15C,5.000000*%
%ADD16O,1.000000X2.100000*%
%ADD17O,1.000000X1.800000*%
%ADD18RoundRect,0.249999X-1.025001X-1.025001X1.025001X-1.025001X1.025001X1.025001X-1.025001X1.025001X0*%
%ADD19C,2.000000*%
G04 APERTURE END LIST*
D10*
X134463220Y-69469819D02*
X134463220Y-68469819D01*
X134463220Y-68469819D02*
X134129887Y-69184104D01*
X134129887Y-69184104D02*
X133796554Y-68469819D01*
X133796554Y-68469819D02*
X133796554Y-69469819D01*
X133177506Y-69469819D02*
X133272744Y-69422200D01*
X133272744Y-69422200D02*
X133320363Y-69374580D01*
X133320363Y-69374580D02*
X133367982Y-69279342D01*
X133367982Y-69279342D02*
X133367982Y-68993628D01*
X133367982Y-68993628D02*
X133320363Y-68898390D01*
X133320363Y-68898390D02*
X133272744Y-68850771D01*
X133272744Y-68850771D02*
X133177506Y-68803152D01*
X133177506Y-68803152D02*
X133034649Y-68803152D01*
X133034649Y-68803152D02*
X132939411Y-68850771D01*
X132939411Y-68850771D02*
X132891792Y-68898390D01*
X132891792Y-68898390D02*
X132844173Y-68993628D01*
X132844173Y-68993628D02*
X132844173Y-69279342D01*
X132844173Y-69279342D02*
X132891792Y-69374580D01*
X132891792Y-69374580D02*
X132939411Y-69422200D01*
X132939411Y-69422200D02*
X133034649Y-69469819D01*
X133034649Y-69469819D02*
X133177506Y-69469819D01*
X132415601Y-69469819D02*
X132415601Y-68469819D01*
X132415601Y-68850771D02*
X132320363Y-68803152D01*
X132320363Y-68803152D02*
X132129887Y-68803152D01*
X132129887Y-68803152D02*
X132034649Y-68850771D01*
X132034649Y-68850771D02*
X131987030Y-68898390D01*
X131987030Y-68898390D02*
X131939411Y-68993628D01*
X131939411Y-68993628D02*
X131939411Y-69279342D01*
X131939411Y-69279342D02*
X131987030Y-69374580D01*
X131987030Y-69374580D02*
X132034649Y-69422200D01*
X132034649Y-69422200D02*
X132129887Y-69469819D01*
X132129887Y-69469819D02*
X132320363Y-69469819D01*
X132320363Y-69469819D02*
X132415601Y-69422200D01*
X131510839Y-69469819D02*
X131510839Y-68803152D01*
X131510839Y-68469819D02*
X131558458Y-68517438D01*
X131558458Y-68517438D02*
X131510839Y-68565057D01*
X131510839Y-68565057D02*
X131463220Y-68517438D01*
X131463220Y-68517438D02*
X131510839Y-68469819D01*
X131510839Y-68469819D02*
X131510839Y-68565057D01*
X130891792Y-69469819D02*
X130987030Y-69422200D01*
X130987030Y-69422200D02*
X131034649Y-69326961D01*
X131034649Y-69326961D02*
X131034649Y-68469819D01*
X130129887Y-69422200D02*
X130225125Y-69469819D01*
X130225125Y-69469819D02*
X130415601Y-69469819D01*
X130415601Y-69469819D02*
X130510839Y-69422200D01*
X130510839Y-69422200D02*
X130558458Y-69326961D01*
X130558458Y-69326961D02*
X130558458Y-68946009D01*
X130558458Y-68946009D02*
X130510839Y-68850771D01*
X130510839Y-68850771D02*
X130415601Y-68803152D01*
X130415601Y-68803152D02*
X130225125Y-68803152D01*
X130225125Y-68803152D02*
X130129887Y-68850771D01*
X130129887Y-68850771D02*
X130082268Y-68946009D01*
X130082268Y-68946009D02*
X130082268Y-69041247D01*
X130082268Y-69041247D02*
X130558458Y-69136485D01*
X129653696Y-69088866D02*
X128891792Y-69088866D01*
X128510839Y-68469819D02*
X128272744Y-69469819D01*
X128272744Y-69469819D02*
X128082268Y-68755533D01*
X128082268Y-68755533D02*
X127891792Y-69469819D01*
X127891792Y-69469819D02*
X127653697Y-68469819D01*
X127272744Y-69469819D02*
X127272744Y-68803152D01*
X127272744Y-68469819D02*
X127320363Y-68517438D01*
X127320363Y-68517438D02*
X127272744Y-68565057D01*
X127272744Y-68565057D02*
X127225125Y-68517438D01*
X127225125Y-68517438D02*
X127272744Y-68469819D01*
X127272744Y-68469819D02*
X127272744Y-68565057D01*
X126939411Y-68803152D02*
X126558459Y-68803152D01*
X126796554Y-69469819D02*
X126796554Y-68612676D01*
X126796554Y-68612676D02*
X126748935Y-68517438D01*
X126748935Y-68517438D02*
X126653697Y-68469819D01*
X126653697Y-68469819D02*
X126558459Y-68469819D01*
X126225125Y-69469819D02*
X126225125Y-68803152D01*
X126225125Y-68469819D02*
X126272744Y-68517438D01*
X126272744Y-68517438D02*
X126225125Y-68565057D01*
X126225125Y-68565057D02*
X126177506Y-68517438D01*
X126177506Y-68517438D02*
X126225125Y-68469819D01*
X126225125Y-68469819D02*
X126225125Y-68565057D01*
X125748935Y-69088866D02*
X124987031Y-69088866D01*
X123939412Y-69374580D02*
X123987031Y-69422200D01*
X123987031Y-69422200D02*
X124129888Y-69469819D01*
X124129888Y-69469819D02*
X124225126Y-69469819D01*
X124225126Y-69469819D02*
X124367983Y-69422200D01*
X124367983Y-69422200D02*
X124463221Y-69326961D01*
X124463221Y-69326961D02*
X124510840Y-69231723D01*
X124510840Y-69231723D02*
X124558459Y-69041247D01*
X124558459Y-69041247D02*
X124558459Y-68898390D01*
X124558459Y-68898390D02*
X124510840Y-68707914D01*
X124510840Y-68707914D02*
X124463221Y-68612676D01*
X124463221Y-68612676D02*
X124367983Y-68517438D01*
X124367983Y-68517438D02*
X124225126Y-68469819D01*
X124225126Y-68469819D02*
X124129888Y-68469819D01*
X124129888Y-68469819D02*
X123987031Y-68517438D01*
X123987031Y-68517438D02*
X123939412Y-68565057D01*
X123082269Y-69469819D02*
X123082269Y-68946009D01*
X123082269Y-68946009D02*
X123129888Y-68850771D01*
X123129888Y-68850771D02*
X123225126Y-68803152D01*
X123225126Y-68803152D02*
X123415602Y-68803152D01*
X123415602Y-68803152D02*
X123510840Y-68850771D01*
X123082269Y-69422200D02*
X123177507Y-69469819D01*
X123177507Y-69469819D02*
X123415602Y-69469819D01*
X123415602Y-69469819D02*
X123510840Y-69422200D01*
X123510840Y-69422200D02*
X123558459Y-69326961D01*
X123558459Y-69326961D02*
X123558459Y-69231723D01*
X123558459Y-69231723D02*
X123510840Y-69136485D01*
X123510840Y-69136485D02*
X123415602Y-69088866D01*
X123415602Y-69088866D02*
X123177507Y-69088866D01*
X123177507Y-69088866D02*
X123082269Y-69041247D01*
X122606078Y-69469819D02*
X122606078Y-68803152D01*
X122606078Y-68898390D02*
X122558459Y-68850771D01*
X122558459Y-68850771D02*
X122463221Y-68803152D01*
X122463221Y-68803152D02*
X122320364Y-68803152D01*
X122320364Y-68803152D02*
X122225126Y-68850771D01*
X122225126Y-68850771D02*
X122177507Y-68946009D01*
X122177507Y-68946009D02*
X122177507Y-69469819D01*
X122177507Y-68946009D02*
X122129888Y-68850771D01*
X122129888Y-68850771D02*
X122034650Y-68803152D01*
X122034650Y-68803152D02*
X121891793Y-68803152D01*
X121891793Y-68803152D02*
X121796554Y-68850771D01*
X121796554Y-68850771D02*
X121748935Y-68946009D01*
X121748935Y-68946009D02*
X121748935Y-69469819D01*
X120891793Y-69422200D02*
X120987031Y-69469819D01*
X120987031Y-69469819D02*
X121177507Y-69469819D01*
X121177507Y-69469819D02*
X121272745Y-69422200D01*
X121272745Y-69422200D02*
X121320364Y-69326961D01*
X121320364Y-69326961D02*
X121320364Y-68946009D01*
X121320364Y-68946009D02*
X121272745Y-68850771D01*
X121272745Y-68850771D02*
X121177507Y-68803152D01*
X121177507Y-68803152D02*
X120987031Y-68803152D01*
X120987031Y-68803152D02*
X120891793Y-68850771D01*
X120891793Y-68850771D02*
X120844174Y-68946009D01*
X120844174Y-68946009D02*
X120844174Y-69041247D01*
X120844174Y-69041247D02*
X121320364Y-69136485D01*
X120415602Y-69469819D02*
X120415602Y-68803152D01*
X120415602Y-68993628D02*
X120367983Y-68898390D01*
X120367983Y-68898390D02*
X120320364Y-68850771D01*
X120320364Y-68850771D02*
X120225126Y-68803152D01*
X120225126Y-68803152D02*
X120129888Y-68803152D01*
X119367983Y-69469819D02*
X119367983Y-68946009D01*
X119367983Y-68946009D02*
X119415602Y-68850771D01*
X119415602Y-68850771D02*
X119510840Y-68803152D01*
X119510840Y-68803152D02*
X119701316Y-68803152D01*
X119701316Y-68803152D02*
X119796554Y-68850771D01*
X119367983Y-69422200D02*
X119463221Y-69469819D01*
X119463221Y-69469819D02*
X119701316Y-69469819D01*
X119701316Y-69469819D02*
X119796554Y-69422200D01*
X119796554Y-69422200D02*
X119844173Y-69326961D01*
X119844173Y-69326961D02*
X119844173Y-69231723D01*
X119844173Y-69231723D02*
X119796554Y-69136485D01*
X119796554Y-69136485D02*
X119701316Y-69088866D01*
X119701316Y-69088866D02*
X119463221Y-69088866D01*
X119463221Y-69088866D02*
X119367983Y-69041247D01*
X134563220Y-67769819D02*
X134563220Y-66769819D01*
X134563220Y-66769819D02*
X134229887Y-67484104D01*
X134229887Y-67484104D02*
X133896554Y-66769819D01*
X133896554Y-66769819D02*
X133896554Y-67769819D01*
X132991792Y-67769819D02*
X132991792Y-67246009D01*
X132991792Y-67246009D02*
X133039411Y-67150771D01*
X133039411Y-67150771D02*
X133134649Y-67103152D01*
X133134649Y-67103152D02*
X133325125Y-67103152D01*
X133325125Y-67103152D02*
X133420363Y-67150771D01*
X132991792Y-67722200D02*
X133087030Y-67769819D01*
X133087030Y-67769819D02*
X133325125Y-67769819D01*
X133325125Y-67769819D02*
X133420363Y-67722200D01*
X133420363Y-67722200D02*
X133467982Y-67626961D01*
X133467982Y-67626961D02*
X133467982Y-67531723D01*
X133467982Y-67531723D02*
X133420363Y-67436485D01*
X133420363Y-67436485D02*
X133325125Y-67388866D01*
X133325125Y-67388866D02*
X133087030Y-67388866D01*
X133087030Y-67388866D02*
X132991792Y-67341247D01*
X132515601Y-67769819D02*
X132515601Y-67103152D01*
X132515601Y-67293628D02*
X132467982Y-67198390D01*
X132467982Y-67198390D02*
X132420363Y-67150771D01*
X132420363Y-67150771D02*
X132325125Y-67103152D01*
X132325125Y-67103152D02*
X132229887Y-67103152D01*
X131991791Y-67103152D02*
X131753696Y-67769819D01*
X131753696Y-67769819D02*
X131515601Y-67103152D01*
X131134648Y-67769819D02*
X131134648Y-67103152D01*
X131134648Y-66769819D02*
X131182267Y-66817438D01*
X131182267Y-66817438D02*
X131134648Y-66865057D01*
X131134648Y-66865057D02*
X131087029Y-66817438D01*
X131087029Y-66817438D02*
X131134648Y-66769819D01*
X131134648Y-66769819D02*
X131134648Y-66865057D01*
X130658458Y-67103152D02*
X130658458Y-67769819D01*
X130658458Y-67198390D02*
X130610839Y-67150771D01*
X130610839Y-67150771D02*
X130515601Y-67103152D01*
X130515601Y-67103152D02*
X130372744Y-67103152D01*
X130372744Y-67103152D02*
X130277506Y-67150771D01*
X130277506Y-67150771D02*
X130229887Y-67246009D01*
X130229887Y-67246009D02*
X130229887Y-67769819D01*
X128658458Y-67246009D02*
X128515601Y-67293628D01*
X128515601Y-67293628D02*
X128467982Y-67341247D01*
X128467982Y-67341247D02*
X128420363Y-67436485D01*
X128420363Y-67436485D02*
X128420363Y-67579342D01*
X128420363Y-67579342D02*
X128467982Y-67674580D01*
X128467982Y-67674580D02*
X128515601Y-67722200D01*
X128515601Y-67722200D02*
X128610839Y-67769819D01*
X128610839Y-67769819D02*
X128991791Y-67769819D01*
X128991791Y-67769819D02*
X128991791Y-66769819D01*
X128991791Y-66769819D02*
X128658458Y-66769819D01*
X128658458Y-66769819D02*
X128563220Y-66817438D01*
X128563220Y-66817438D02*
X128515601Y-66865057D01*
X128515601Y-66865057D02*
X128467982Y-66960295D01*
X128467982Y-66960295D02*
X128467982Y-67055533D01*
X128467982Y-67055533D02*
X128515601Y-67150771D01*
X128515601Y-67150771D02*
X128563220Y-67198390D01*
X128563220Y-67198390D02*
X128658458Y-67246009D01*
X128658458Y-67246009D02*
X128991791Y-67246009D01*
X127563220Y-67769819D02*
X127563220Y-67246009D01*
X127563220Y-67246009D02*
X127610839Y-67150771D01*
X127610839Y-67150771D02*
X127706077Y-67103152D01*
X127706077Y-67103152D02*
X127896553Y-67103152D01*
X127896553Y-67103152D02*
X127991791Y-67150771D01*
X127563220Y-67722200D02*
X127658458Y-67769819D01*
X127658458Y-67769819D02*
X127896553Y-67769819D01*
X127896553Y-67769819D02*
X127991791Y-67722200D01*
X127991791Y-67722200D02*
X128039410Y-67626961D01*
X128039410Y-67626961D02*
X128039410Y-67531723D01*
X128039410Y-67531723D02*
X127991791Y-67436485D01*
X127991791Y-67436485D02*
X127896553Y-67388866D01*
X127896553Y-67388866D02*
X127658458Y-67388866D01*
X127658458Y-67388866D02*
X127563220Y-67341247D01*
X127087029Y-67769819D02*
X127087029Y-67103152D01*
X127087029Y-67293628D02*
X127039410Y-67198390D01*
X127039410Y-67198390D02*
X126991791Y-67150771D01*
X126991791Y-67150771D02*
X126896553Y-67103152D01*
X126896553Y-67103152D02*
X126801315Y-67103152D01*
X126610838Y-67103152D02*
X126229886Y-67103152D01*
X126467981Y-66769819D02*
X126467981Y-67626961D01*
X126467981Y-67626961D02*
X126420362Y-67722200D01*
X126420362Y-67722200D02*
X126325124Y-67769819D01*
X126325124Y-67769819D02*
X126229886Y-67769819D01*
X125896552Y-67769819D02*
X125896552Y-66769819D01*
X125467981Y-67769819D02*
X125467981Y-67246009D01*
X125467981Y-67246009D02*
X125515600Y-67150771D01*
X125515600Y-67150771D02*
X125610838Y-67103152D01*
X125610838Y-67103152D02*
X125753695Y-67103152D01*
X125753695Y-67103152D02*
X125848933Y-67150771D01*
X125848933Y-67150771D02*
X125896552Y-67198390D01*
X118561904Y-60954819D02*
X117990476Y-60954819D01*
X118276190Y-61954819D02*
X118276190Y-60954819D01*
X117657142Y-61954819D02*
X117657142Y-60954819D01*
X117657142Y-60954819D02*
X117276190Y-60954819D01*
X117276190Y-60954819D02*
X117180952Y-61002438D01*
X117180952Y-61002438D02*
X117133333Y-61050057D01*
X117133333Y-61050057D02*
X117085714Y-61145295D01*
X117085714Y-61145295D02*
X117085714Y-61288152D01*
X117085714Y-61288152D02*
X117133333Y-61383390D01*
X117133333Y-61383390D02*
X117180952Y-61431009D01*
X117180952Y-61431009D02*
X117276190Y-61478628D01*
X117276190Y-61478628D02*
X117657142Y-61478628D01*
X116752380Y-60954819D02*
X116133333Y-60954819D01*
X116133333Y-60954819D02*
X116466666Y-61335771D01*
X116466666Y-61335771D02*
X116323809Y-61335771D01*
X116323809Y-61335771D02*
X116228571Y-61383390D01*
X116228571Y-61383390D02*
X116180952Y-61431009D01*
X116180952Y-61431009D02*
X116133333Y-61526247D01*
X116133333Y-61526247D02*
X116133333Y-61764342D01*
X116133333Y-61764342D02*
X116180952Y-61859580D01*
X116180952Y-61859580D02*
X116228571Y-61907200D01*
X116228571Y-61907200D02*
X116323809Y-61954819D01*
X116323809Y-61954819D02*
X116609523Y-61954819D01*
X116609523Y-61954819D02*
X116704761Y-61907200D01*
X116704761Y-61907200D02*
X116752380Y-61859580D01*
X109261904Y-120256819D02*
X108690476Y-120256819D01*
X108976190Y-121256819D02*
X108976190Y-120256819D01*
X108357142Y-121256819D02*
X108357142Y-120256819D01*
X108357142Y-120256819D02*
X107976190Y-120256819D01*
X107976190Y-120256819D02*
X107880952Y-120304438D01*
X107880952Y-120304438D02*
X107833333Y-120352057D01*
X107833333Y-120352057D02*
X107785714Y-120447295D01*
X107785714Y-120447295D02*
X107785714Y-120590152D01*
X107785714Y-120590152D02*
X107833333Y-120685390D01*
X107833333Y-120685390D02*
X107880952Y-120733009D01*
X107880952Y-120733009D02*
X107976190Y-120780628D01*
X107976190Y-120780628D02*
X108357142Y-120780628D01*
X106928571Y-120590152D02*
X106928571Y-121256819D01*
X107166666Y-120209200D02*
X107404761Y-120923485D01*
X107404761Y-120923485D02*
X106785714Y-120923485D01*
X118561904Y-64354819D02*
X117990476Y-64354819D01*
X118276190Y-65354819D02*
X118276190Y-64354819D01*
X117657142Y-65354819D02*
X117657142Y-64354819D01*
X117657142Y-64354819D02*
X117276190Y-64354819D01*
X117276190Y-64354819D02*
X117180952Y-64402438D01*
X117180952Y-64402438D02*
X117133333Y-64450057D01*
X117133333Y-64450057D02*
X117085714Y-64545295D01*
X117085714Y-64545295D02*
X117085714Y-64688152D01*
X117085714Y-64688152D02*
X117133333Y-64783390D01*
X117133333Y-64783390D02*
X117180952Y-64831009D01*
X117180952Y-64831009D02*
X117276190Y-64878628D01*
X117276190Y-64878628D02*
X117657142Y-64878628D01*
X116704761Y-64450057D02*
X116657142Y-64402438D01*
X116657142Y-64402438D02*
X116561904Y-64354819D01*
X116561904Y-64354819D02*
X116323809Y-64354819D01*
X116323809Y-64354819D02*
X116228571Y-64402438D01*
X116228571Y-64402438D02*
X116180952Y-64450057D01*
X116180952Y-64450057D02*
X116133333Y-64545295D01*
X116133333Y-64545295D02*
X116133333Y-64640533D01*
X116133333Y-64640533D02*
X116180952Y-64783390D01*
X116180952Y-64783390D02*
X116752380Y-65354819D01*
X116752380Y-65354819D02*
X116133333Y-65354819D01*
X121461904Y-106656819D02*
X120890476Y-106656819D01*
X121176190Y-107656819D02*
X121176190Y-106656819D01*
X120557142Y-107656819D02*
X120557142Y-106656819D01*
X120557142Y-106656819D02*
X120176190Y-106656819D01*
X120176190Y-106656819D02*
X120080952Y-106704438D01*
X120080952Y-106704438D02*
X120033333Y-106752057D01*
X120033333Y-106752057D02*
X119985714Y-106847295D01*
X119985714Y-106847295D02*
X119985714Y-106990152D01*
X119985714Y-106990152D02*
X120033333Y-107085390D01*
X120033333Y-107085390D02*
X120080952Y-107133009D01*
X120080952Y-107133009D02*
X120176190Y-107180628D01*
X120176190Y-107180628D02*
X120557142Y-107180628D01*
X119033333Y-107656819D02*
X119604761Y-107656819D01*
X119319047Y-107656819D02*
X119319047Y-106656819D01*
X119319047Y-106656819D02*
X119414285Y-106799676D01*
X119414285Y-106799676D02*
X119509523Y-106894914D01*
X119509523Y-106894914D02*
X119604761Y-106942533D01*
D11*
X121600000Y-61500000D02*
G75*
G03*
X121600000Y-61500000I-1200000J0D01*
G01*
X109200000Y-122800000D02*
G75*
G03*
X109200000Y-122800000I-1200000J0D01*
G01*
X121600000Y-64900000D02*
G75*
G03*
X121600000Y-64900000I-1200000J0D01*
G01*
G36*
X106451121Y-67475797D02*
G01*
X106459166Y-67500292D01*
X106469258Y-67535301D01*
X106480184Y-67576814D01*
X106508461Y-67682128D01*
X106549069Y-67811103D01*
X106591662Y-67921689D01*
X106636236Y-68013878D01*
X106682787Y-68087661D01*
X106692843Y-68101193D01*
X106712296Y-68125000D01*
X106729224Y-68139084D01*
X106749279Y-68147365D01*
X106778111Y-68153762D01*
X106805595Y-68158503D01*
X106851529Y-68165036D01*
X106894890Y-68169883D01*
X106924973Y-68173399D01*
X106953644Y-68179946D01*
X106964239Y-68188110D01*
X106956562Y-68197804D01*
X106949423Y-68200403D01*
X106926446Y-68206108D01*
X106892581Y-68213172D01*
X106852237Y-68220631D01*
X106849633Y-68221081D01*
X106785633Y-68230503D01*
X106728114Y-68235890D01*
X106679956Y-68237160D01*
X106644039Y-68234233D01*
X106623242Y-68227030D01*
X106619196Y-68223667D01*
X106608040Y-68210775D01*
X106596998Y-68191379D01*
X106585178Y-68163180D01*
X106571685Y-68123879D01*
X106555626Y-68071176D01*
X106536108Y-68002771D01*
X106523580Y-67957759D01*
X106502584Y-67880740D01*
X106485952Y-67816927D01*
X106472979Y-67763335D01*
X106462958Y-67716978D01*
X106455184Y-67674868D01*
X106448950Y-67634018D01*
X106444290Y-67594891D01*
X106440818Y-67552429D01*
X106439281Y-67514978D01*
X106439725Y-67485884D01*
X106442193Y-67468495D01*
X106446731Y-67466158D01*
X106451121Y-67475797D01*
G37*
G36*
X107807034Y-67396398D02*
G01*
X107822021Y-67413841D01*
X107827926Y-67423225D01*
X107827192Y-67426152D01*
X107816465Y-67441162D01*
X107796071Y-67461978D01*
X107770034Y-67484729D01*
X107742375Y-67505545D01*
X107732552Y-67512185D01*
X107682200Y-67542698D01*
X107633688Y-67564601D01*
X107577907Y-67582135D01*
X107575973Y-67582643D01*
X107544920Y-67588878D01*
X107507233Y-67593883D01*
X107467077Y-67597447D01*
X107428616Y-67599354D01*
X107396012Y-67599394D01*
X107373431Y-67597353D01*
X107365035Y-67593019D01*
X107366089Y-67590855D01*
X107378391Y-67581225D01*
X107400048Y-67569365D01*
X107423393Y-67555344D01*
X107522348Y-67555344D01*
X107523049Y-67559437D01*
X107528192Y-67561738D01*
X107540909Y-67558472D01*
X107564198Y-67548736D01*
X107601057Y-67531627D01*
X107615431Y-67524635D01*
X107665193Y-67496990D01*
X107706456Y-67468676D01*
X107737542Y-67441346D01*
X107756773Y-67416655D01*
X107762473Y-67396258D01*
X107752963Y-67381809D01*
X107744655Y-67380035D01*
X107725072Y-67385534D01*
X107705385Y-67398223D01*
X107693329Y-67413933D01*
X107693020Y-67414699D01*
X107681782Y-67429450D01*
X107659908Y-67451007D01*
X107631604Y-67475831D01*
X107601071Y-67500383D01*
X107572514Y-67521122D01*
X107550137Y-67534509D01*
X107548078Y-67535512D01*
X107529838Y-67546608D01*
X107522348Y-67555344D01*
X107423393Y-67555344D01*
X107436506Y-67547468D01*
X107487866Y-67501180D01*
X107536506Y-67438917D01*
X107581116Y-67362176D01*
X107592087Y-67341526D01*
X107605290Y-67319580D01*
X107613819Y-67308973D01*
X107621552Y-67307531D01*
X107644476Y-67311482D01*
X107676055Y-67321657D01*
X107711708Y-67336131D01*
X107746855Y-67352978D01*
X107776914Y-67370273D01*
X107797303Y-67386091D01*
X107806902Y-67396258D01*
X107807034Y-67396398D01*
G37*
G36*
X104153050Y-68869949D02*
G01*
X104177981Y-68887679D01*
X104209606Y-68912976D01*
X104270687Y-68962178D01*
X104332020Y-69007277D01*
X104396248Y-69049720D01*
X104466991Y-69091772D01*
X104547871Y-69135698D01*
X104642508Y-69183763D01*
X104721345Y-69222000D01*
X104827319Y-69270711D01*
X104936333Y-69317592D01*
X105050896Y-69363611D01*
X105173516Y-69409732D01*
X105306702Y-69456923D01*
X105452961Y-69506150D01*
X105614801Y-69558379D01*
X105619076Y-69559719D01*
X105649109Y-69568742D01*
X105691815Y-69581165D01*
X105744148Y-69596139D01*
X105803058Y-69612813D01*
X105865499Y-69630338D01*
X105928423Y-69647865D01*
X105988781Y-69664544D01*
X106043525Y-69679525D01*
X106089609Y-69691959D01*
X106123983Y-69700996D01*
X106143600Y-69705787D01*
X106143743Y-69705817D01*
X106155733Y-69711522D01*
X106170252Y-69725080D01*
X106188948Y-69748560D01*
X106213468Y-69784026D01*
X106245460Y-69833545D01*
X106261186Y-69858404D01*
X106286166Y-69898102D01*
X106306522Y-69930724D01*
X106320483Y-69953420D01*
X106326273Y-69963342D01*
X106324856Y-69968075D01*
X106312604Y-69969139D01*
X106288195Y-69965430D01*
X106250743Y-69956717D01*
X106199362Y-69942775D01*
X106133167Y-69923374D01*
X106051271Y-69898288D01*
X105952789Y-69867289D01*
X105753976Y-69801794D01*
X105508386Y-69713667D01*
X105280718Y-69623203D01*
X105070702Y-69530272D01*
X104878068Y-69434747D01*
X104702545Y-69336499D01*
X104543863Y-69235400D01*
X104401750Y-69131321D01*
X104376071Y-69110253D01*
X104338253Y-69077135D01*
X104297888Y-69039946D01*
X104257316Y-69001029D01*
X104218875Y-68962725D01*
X104184906Y-68927376D01*
X104157746Y-68897323D01*
X104139735Y-68874907D01*
X104133212Y-68862472D01*
X104137371Y-68861477D01*
X104153050Y-68869949D01*
G37*
G36*
X103278765Y-67444114D02*
G01*
X103275264Y-67475070D01*
X103267680Y-67523025D01*
X103259548Y-67574105D01*
X103244500Y-67695343D01*
X103233597Y-67824208D01*
X103227045Y-67955620D01*
X103225050Y-68084496D01*
X103227819Y-68205754D01*
X103235558Y-68314312D01*
X103238999Y-68345687D01*
X103268345Y-68530192D01*
X103312520Y-68712292D01*
X103370563Y-68889354D01*
X103441514Y-69058745D01*
X103524414Y-69217832D01*
X103618301Y-69363981D01*
X103659892Y-69419694D01*
X103735284Y-69511388D01*
X103817726Y-69602217D01*
X103902299Y-69686857D01*
X103984085Y-69759981D01*
X103989122Y-69764176D01*
X104030528Y-69798893D01*
X104060451Y-69825467D01*
X104081319Y-69847340D01*
X104095555Y-69867952D01*
X104105586Y-69890742D01*
X104113838Y-69919150D01*
X104122737Y-69956617D01*
X104129951Y-69987396D01*
X104143356Y-70043797D01*
X104157782Y-70103785D01*
X104171148Y-70158663D01*
X104171367Y-70159556D01*
X104181729Y-70202441D01*
X104190206Y-70238808D01*
X104195930Y-70264843D01*
X104198031Y-70276727D01*
X104197931Y-70278741D01*
X104192497Y-70284945D01*
X104177910Y-70279676D01*
X104152974Y-70262280D01*
X104116491Y-70232100D01*
X104093952Y-70212120D01*
X104051779Y-70173048D01*
X104003804Y-70127127D01*
X103953935Y-70078209D01*
X103906085Y-70030146D01*
X103864162Y-69986788D01*
X103832077Y-69951987D01*
X103799949Y-69915137D01*
X103661145Y-69741732D01*
X103540007Y-69564767D01*
X103435922Y-69382954D01*
X103348275Y-69195008D01*
X103276453Y-68999644D01*
X103219842Y-68795576D01*
X103177827Y-68581517D01*
X103174507Y-68560177D01*
X103167943Y-68513067D01*
X103163150Y-68468336D01*
X103159878Y-68421806D01*
X103157876Y-68369299D01*
X103156892Y-68306636D01*
X103156676Y-68229639D01*
X103156681Y-68225749D01*
X103158083Y-68118509D01*
X103162327Y-68022570D01*
X103170028Y-67932163D01*
X103181803Y-67841518D01*
X103198269Y-67744865D01*
X103220041Y-67636435D01*
X103223119Y-67622034D01*
X103236808Y-67561117D01*
X103249262Y-67510418D01*
X103260074Y-67470908D01*
X103268837Y-67443554D01*
X103275145Y-67429324D01*
X103278589Y-67429188D01*
X103278765Y-67444114D01*
G37*
G36*
X106602980Y-67311420D02*
G01*
X106652974Y-67323581D01*
X106711654Y-67341485D01*
X106736657Y-67350299D01*
X106822613Y-67389234D01*
X106905684Y-67441093D01*
X106987085Y-67506940D01*
X107068029Y-67587840D01*
X107149728Y-67684856D01*
X107233396Y-67799052D01*
X107235983Y-67802796D01*
X107262340Y-67840874D01*
X107288983Y-67879258D01*
X107310514Y-67910171D01*
X107312463Y-67912963D01*
X107334828Y-67945046D01*
X107361750Y-67983741D01*
X107387829Y-68021291D01*
X107465141Y-68129376D01*
X107558965Y-68250558D01*
X107649386Y-68355433D01*
X107737315Y-68444845D01*
X107823666Y-68519641D01*
X107909350Y-68580666D01*
X107995279Y-68628764D01*
X108082366Y-68664780D01*
X108091133Y-68667621D01*
X108126486Y-68677445D01*
X108170105Y-68687959D01*
X108214528Y-68697325D01*
X108236038Y-68701686D01*
X108269018Y-68709323D01*
X108291727Y-68715874D01*
X108300182Y-68720270D01*
X108297357Y-68722397D01*
X108280274Y-68727903D01*
X108251159Y-68734794D01*
X108213995Y-68742061D01*
X108211495Y-68742502D01*
X108151643Y-68750502D01*
X108084932Y-68755408D01*
X108016383Y-68757197D01*
X107951015Y-68755848D01*
X107893847Y-68751339D01*
X107849901Y-68743649D01*
X107826059Y-68737891D01*
X107803500Y-68733591D01*
X107793447Y-68733288D01*
X107796855Y-68740986D01*
X107812874Y-68756581D01*
X107838684Y-68777664D01*
X107871328Y-68801945D01*
X107907852Y-68827133D01*
X107945298Y-68850937D01*
X107951173Y-68854474D01*
X108049092Y-68907892D01*
X108144322Y-68949651D01*
X108234081Y-68978679D01*
X108315592Y-68993901D01*
X108354084Y-68998634D01*
X108379522Y-69003725D01*
X108386817Y-69008573D01*
X108375844Y-69013085D01*
X108346482Y-69017168D01*
X108340978Y-69017711D01*
X108316964Y-69019745D01*
X108295932Y-69020377D01*
X108273634Y-69019271D01*
X108245821Y-69016092D01*
X108208244Y-69010504D01*
X108156653Y-69002171D01*
X108131845Y-68997784D01*
X108051945Y-68979891D01*
X107971110Y-68956808D01*
X107895820Y-68930517D01*
X107832556Y-68903001D01*
X107778958Y-68874282D01*
X107727494Y-68841714D01*
X107679434Y-68805027D01*
X107633655Y-68762760D01*
X107589035Y-68713453D01*
X107544450Y-68655645D01*
X107498777Y-68587875D01*
X107450894Y-68508683D01*
X107399677Y-68416608D01*
X107344002Y-68310191D01*
X107282748Y-68187969D01*
X107276890Y-68176103D01*
X107221079Y-68064332D01*
X107171415Y-67967635D01*
X107126833Y-67884247D01*
X107086267Y-67812400D01*
X107048652Y-67750332D01*
X107012921Y-67696274D01*
X106978009Y-67648464D01*
X106942850Y-67605134D01*
X106906378Y-67564519D01*
X106829340Y-67491144D01*
X106740716Y-67423844D01*
X106648732Y-67370000D01*
X106556914Y-67331958D01*
X106549800Y-67329424D01*
X106531955Y-67319739D01*
X106528072Y-67311018D01*
X106537905Y-67305800D01*
X106563886Y-67305371D01*
X106602980Y-67311420D01*
G37*
G36*
X105212341Y-67565413D02*
G01*
X105292790Y-67569555D01*
X105360153Y-67576309D01*
X105384291Y-67579643D01*
X105462579Y-67590964D01*
X105538414Y-67602656D01*
X105609143Y-67614259D01*
X105672114Y-67625311D01*
X105724677Y-67635354D01*
X105764178Y-67643926D01*
X105787967Y-67650567D01*
X105791378Y-67651826D01*
X105807590Y-67658316D01*
X105813094Y-67662127D01*
X105806365Y-67663259D01*
X105785880Y-67661713D01*
X105750117Y-67657489D01*
X105697552Y-67650586D01*
X105656319Y-67646304D01*
X105595117Y-67642284D01*
X105522289Y-67639202D01*
X105441494Y-67637083D01*
X105356392Y-67635951D01*
X105270644Y-67635831D01*
X105187909Y-67636745D01*
X105111848Y-67638719D01*
X105046120Y-67641777D01*
X104994386Y-67645942D01*
X104842573Y-67667768D01*
X104688969Y-67702281D01*
X104548252Y-67747736D01*
X104421118Y-67803867D01*
X104308261Y-67870407D01*
X104210377Y-67947088D01*
X104135303Y-68022550D01*
X104066605Y-68111131D01*
X104012089Y-68207000D01*
X103970818Y-68312159D01*
X103941853Y-68428613D01*
X103924256Y-68558367D01*
X103923480Y-68568726D01*
X103925085Y-68645902D01*
X103937892Y-68731526D01*
X103960770Y-68821049D01*
X103992590Y-68909918D01*
X104032225Y-68993584D01*
X104056651Y-69035504D01*
X104124482Y-69131185D01*
X104208724Y-69227187D01*
X104308003Y-69322249D01*
X104420942Y-69415111D01*
X104546166Y-69504513D01*
X104682301Y-69589194D01*
X104830546Y-69669785D01*
X104998653Y-69750804D01*
X105180826Y-69829400D01*
X105374821Y-69904788D01*
X105578393Y-69976180D01*
X105789298Y-70042791D01*
X106005291Y-70103835D01*
X106224129Y-70158525D01*
X106443565Y-70206076D01*
X106450842Y-70207529D01*
X106496909Y-70216767D01*
X106537139Y-70224891D01*
X106567420Y-70231069D01*
X106583647Y-70234469D01*
X106586545Y-70235558D01*
X106603950Y-70249110D01*
X106631000Y-70276999D01*
X106667057Y-70318470D01*
X106711481Y-70372770D01*
X106763633Y-70439146D01*
X106822876Y-70516843D01*
X106823933Y-70518246D01*
X106854472Y-70558319D01*
X106883864Y-70596093D01*
X106908814Y-70627376D01*
X106926024Y-70647978D01*
X106934844Y-70658273D01*
X106953949Y-70682621D01*
X106966313Y-70701222D01*
X106969528Y-70707599D01*
X106970917Y-70718167D01*
X106958764Y-70720561D01*
X106952686Y-70719893D01*
X106928002Y-70714517D01*
X106888455Y-70704215D01*
X106835888Y-70689538D01*
X106772148Y-70671040D01*
X106699079Y-70649274D01*
X106618525Y-70624792D01*
X106532332Y-70598146D01*
X106442345Y-70569889D01*
X106350408Y-70540575D01*
X106258367Y-70510755D01*
X106224028Y-70499476D01*
X106102795Y-70458777D01*
X105979306Y-70416062D01*
X105856417Y-70372385D01*
X105736982Y-70328796D01*
X105623857Y-70286348D01*
X105519897Y-70246093D01*
X105427958Y-70209084D01*
X105350893Y-70176371D01*
X105242059Y-70128107D01*
X105102645Y-70064864D01*
X104977317Y-70006078D01*
X104864108Y-69950733D01*
X104761051Y-69897809D01*
X104666180Y-69846290D01*
X104577527Y-69795158D01*
X104493126Y-69743395D01*
X104411010Y-69689982D01*
X104292456Y-69607062D01*
X104177377Y-69517074D01*
X104078346Y-69427628D01*
X103994230Y-69337210D01*
X103923899Y-69244310D01*
X103866218Y-69147416D01*
X103820057Y-69045014D01*
X103784283Y-68935595D01*
X103757763Y-68817645D01*
X103752240Y-68778674D01*
X103747147Y-68713024D01*
X103745148Y-68640247D01*
X103746244Y-68566689D01*
X103750435Y-68498697D01*
X103757721Y-68442618D01*
X103772158Y-68376168D01*
X103813541Y-68248394D01*
X103871103Y-68129481D01*
X103944637Y-68019717D01*
X104033934Y-67919390D01*
X104138787Y-67828786D01*
X104258989Y-67748195D01*
X104276262Y-67738201D01*
X104371481Y-67690253D01*
X104474883Y-67650148D01*
X104589733Y-67616758D01*
X104719294Y-67588952D01*
X104774423Y-67580738D01*
X104851468Y-67573171D01*
X104938372Y-67567764D01*
X105030544Y-67564608D01*
X105123397Y-67563794D01*
X105212341Y-67565413D01*
G37*
G36*
X105433193Y-65940932D02*
G01*
X105523549Y-65943258D01*
X105610460Y-65946911D01*
X105690726Y-65951853D01*
X105761146Y-65958046D01*
X105818520Y-65965453D01*
X105827212Y-65966850D01*
X105881921Y-65975655D01*
X105941083Y-65985191D01*
X105993329Y-65993626D01*
X106070921Y-66007744D01*
X106161749Y-66027445D01*
X106256729Y-66050855D01*
X106353063Y-66077104D01*
X106447954Y-66105321D01*
X106538603Y-66134636D01*
X106622212Y-66164178D01*
X106695984Y-66193077D01*
X106757120Y-66220462D01*
X106802822Y-66245464D01*
X106807227Y-66248522D01*
X106828952Y-66266620D01*
X106859875Y-66295195D01*
X106897468Y-66331801D01*
X106939202Y-66373992D01*
X106982549Y-66419322D01*
X107055512Y-66495771D01*
X107135822Y-66576384D01*
X107208105Y-66644421D01*
X107273919Y-66701213D01*
X107334819Y-66748092D01*
X107392364Y-66786390D01*
X107448110Y-66817438D01*
X107459144Y-66822962D01*
X107481117Y-66833715D01*
X107504129Y-66844521D01*
X107530480Y-66856373D01*
X107562474Y-66870262D01*
X107602410Y-66887180D01*
X107652590Y-66908119D01*
X107715315Y-66934071D01*
X107792886Y-66966027D01*
X107799156Y-66968620D01*
X107860966Y-66995376D01*
X107926964Y-67025766D01*
X107992878Y-67057677D01*
X108054436Y-67088995D01*
X108107365Y-67117608D01*
X108147393Y-67141401D01*
X108163567Y-67152199D01*
X108210920Y-67188168D01*
X108253919Y-67226858D01*
X108288566Y-67264462D01*
X108310863Y-67297170D01*
X108324778Y-67339571D01*
X108327512Y-67395388D01*
X108316882Y-67456155D01*
X108293194Y-67518042D01*
X108266149Y-67563126D01*
X108224186Y-67616788D01*
X108173417Y-67670084D01*
X108117876Y-67718406D01*
X108093698Y-67736319D01*
X108053843Y-67762882D01*
X108010389Y-67789201D01*
X107966083Y-67813892D01*
X107923672Y-67835571D01*
X107885904Y-67852853D01*
X107855525Y-67864356D01*
X107835283Y-67868695D01*
X107827926Y-67864485D01*
X107828420Y-67863291D01*
X107836740Y-67851212D01*
X107853205Y-67829550D01*
X107875045Y-67801980D01*
X107877421Y-67799018D01*
X107903391Y-67765277D01*
X107927224Y-67732164D01*
X107944028Y-67706453D01*
X107956928Y-67687539D01*
X107979511Y-67667780D01*
X108012951Y-67652723D01*
X108017588Y-67650998D01*
X108060453Y-67625899D01*
X108097971Y-67585470D01*
X108131582Y-67528199D01*
X108132037Y-67527267D01*
X108145519Y-67504707D01*
X108154575Y-67499905D01*
X108158532Y-67512489D01*
X108156719Y-67542089D01*
X108154947Y-67563385D01*
X108157106Y-67573465D01*
X108163275Y-67567331D01*
X108172731Y-67545814D01*
X108184756Y-67509746D01*
X108195871Y-67462163D01*
X108196712Y-67414660D01*
X108183355Y-67372464D01*
X108154600Y-67332092D01*
X108109252Y-67290059D01*
X108086490Y-67273374D01*
X108040989Y-67245112D01*
X107983561Y-67213500D01*
X107917472Y-67180230D01*
X107845985Y-67146993D01*
X107772366Y-67115482D01*
X107743533Y-67103696D01*
X107693622Y-67083293D01*
X107639478Y-67061161D01*
X107588643Y-67040381D01*
X107570973Y-67033110D01*
X107507927Y-67006143D01*
X107449406Y-66979092D01*
X107392143Y-66950182D01*
X107332867Y-66917636D01*
X107268310Y-66879677D01*
X107195204Y-66834529D01*
X107110281Y-66780416D01*
X107102921Y-66775709D01*
X107069640Y-66754832D01*
X107029599Y-66730147D01*
X106989902Y-66706042D01*
X106987099Y-66704349D01*
X106954642Y-66684178D01*
X106911012Y-66656360D01*
X106859968Y-66623325D01*
X106805268Y-66587503D01*
X106750670Y-66551324D01*
X106694950Y-66514452D01*
X106627062Y-66470956D01*
X106566813Y-66434915D01*
X106510965Y-66405007D01*
X106456283Y-66379910D01*
X106399528Y-66358304D01*
X106337465Y-66338865D01*
X106266857Y-66320274D01*
X106184467Y-66301207D01*
X106087058Y-66280343D01*
X106085514Y-66280020D01*
X105946354Y-66252653D01*
X105818659Y-66231574D01*
X105696764Y-66216185D01*
X105575003Y-66205888D01*
X105447711Y-66200084D01*
X105309223Y-66198175D01*
X105289867Y-66198193D01*
X105148716Y-66201122D01*
X105021380Y-66209378D01*
X104904235Y-66223497D01*
X104793655Y-66244016D01*
X104686015Y-66271471D01*
X104577689Y-66306399D01*
X104558696Y-66313358D01*
X104507331Y-66333932D01*
X104450627Y-66358583D01*
X104392345Y-66385497D01*
X104336245Y-66412862D01*
X104286088Y-66438863D01*
X104245635Y-66461689D01*
X104218646Y-66479524D01*
X104216585Y-66481116D01*
X104195173Y-66497387D01*
X104165458Y-66519688D01*
X104133212Y-66543682D01*
X104084980Y-66581810D01*
X103996745Y-66663274D01*
X103910711Y-66756948D01*
X103830118Y-66858901D01*
X103758203Y-66965199D01*
X103698206Y-67071910D01*
X103691250Y-67085978D01*
X103643202Y-67193919D01*
X103598432Y-67312538D01*
X103558987Y-67435531D01*
X103526913Y-67556591D01*
X103504258Y-67669413D01*
X103502051Y-67683090D01*
X103488945Y-67767366D01*
X103478955Y-67838862D01*
X103471593Y-67902262D01*
X103466371Y-67962251D01*
X103462802Y-68023515D01*
X103460397Y-68090740D01*
X103458985Y-68134824D01*
X103456920Y-68183974D01*
X103454664Y-68224541D01*
X103452408Y-68253212D01*
X103450341Y-68266679D01*
X103449364Y-68267299D01*
X103446032Y-68257050D01*
X103441736Y-68232345D01*
X103436922Y-68196025D01*
X103432042Y-68150930D01*
X103425811Y-68063704D01*
X103422875Y-67955826D01*
X103423896Y-67840505D01*
X103428631Y-67722041D01*
X103436837Y-67604731D01*
X103448273Y-67492876D01*
X103462695Y-67390772D01*
X103479863Y-67302720D01*
X103496846Y-67234892D01*
X103552092Y-67062559D01*
X103622117Y-66900519D01*
X103706543Y-66749333D01*
X103804993Y-66609562D01*
X103917088Y-66481764D01*
X104042450Y-66366502D01*
X104180700Y-66264334D01*
X104187310Y-66259989D01*
X104304182Y-66189219D01*
X104424954Y-66127894D01*
X104552456Y-66074955D01*
X104689519Y-66029339D01*
X104838972Y-65989986D01*
X105003646Y-65955834D01*
X105041740Y-65950524D01*
X105101319Y-65945650D01*
X105173454Y-65942292D01*
X105254945Y-65940411D01*
X105342591Y-65939970D01*
X105433193Y-65940932D01*
G37*
G36*
X107472198Y-67070438D02*
G01*
X107566602Y-67110160D01*
X107647357Y-67142791D01*
X107729148Y-67175836D01*
X107810738Y-67211522D01*
X107877683Y-67244555D01*
X107931769Y-67275989D01*
X107974782Y-67306876D01*
X108008505Y-67338270D01*
X108034726Y-67371222D01*
X108049781Y-67396344D01*
X108057463Y-67421599D01*
X108057179Y-67451949D01*
X108056372Y-67457985D01*
X108048817Y-67485461D01*
X108036210Y-67515732D01*
X108021209Y-67543685D01*
X108006474Y-67564207D01*
X107994664Y-67572184D01*
X107991925Y-67569209D01*
X107986840Y-67552685D01*
X107982515Y-67526508D01*
X107971073Y-67480871D01*
X107942821Y-67428320D01*
X107901546Y-67383390D01*
X107867941Y-67359309D01*
X107819383Y-67332999D01*
X107757889Y-67306623D01*
X107682673Y-67279942D01*
X107592948Y-67252721D01*
X107487929Y-67224722D01*
X107366828Y-67195708D01*
X107228861Y-67165443D01*
X107073241Y-67133689D01*
X107024920Y-67125147D01*
X106948233Y-67114874D01*
X106867472Y-67107333D01*
X106785829Y-67102583D01*
X106706490Y-67100681D01*
X106632646Y-67101686D01*
X106567486Y-67105658D01*
X106514200Y-67112653D01*
X106475975Y-67122732D01*
X106425213Y-67151954D01*
X106386012Y-67194782D01*
X106360816Y-67248987D01*
X106360055Y-67251611D01*
X106349564Y-67308871D01*
X106345710Y-67380535D01*
X106348046Y-67464047D01*
X106356124Y-67556848D01*
X106369498Y-67656380D01*
X106387721Y-67760083D01*
X106410346Y-67865400D01*
X106436927Y-67969772D01*
X106467016Y-68070641D01*
X106500167Y-68165449D01*
X106535932Y-68251636D01*
X106551262Y-68285176D01*
X106565783Y-68313546D01*
X106580443Y-68333569D01*
X106598305Y-68346695D01*
X106622432Y-68354378D01*
X106655888Y-68358068D01*
X106701734Y-68359218D01*
X106763033Y-68359278D01*
X106804372Y-68359557D01*
X106850647Y-68360627D01*
X106887423Y-68362358D01*
X106911694Y-68364598D01*
X106920452Y-68367196D01*
X106913910Y-68378504D01*
X106893387Y-68396053D01*
X106862206Y-68417040D01*
X106823779Y-68439586D01*
X106781515Y-68461807D01*
X106738824Y-68481822D01*
X106699117Y-68497750D01*
X106665804Y-68507709D01*
X106641825Y-68510996D01*
X106604205Y-68512820D01*
X106565056Y-68512068D01*
X106550087Y-68510975D01*
X106519259Y-68506597D01*
X106488916Y-68498202D01*
X106453547Y-68484052D01*
X106407637Y-68462408D01*
X106402574Y-68459928D01*
X106359404Y-68438327D01*
X106326429Y-68419492D01*
X106301667Y-68400433D01*
X106283134Y-68378165D01*
X106268848Y-68349698D01*
X106256825Y-68312045D01*
X106245083Y-68262218D01*
X106231638Y-68197229D01*
X106221967Y-68149701D01*
X106207804Y-68080411D01*
X106196081Y-68023760D01*
X106186030Y-67976261D01*
X106176883Y-67934425D01*
X106167871Y-67894766D01*
X106158226Y-67853796D01*
X106147179Y-67808028D01*
X106133961Y-67753976D01*
X106132778Y-67749158D01*
X106097084Y-67608752D01*
X106061728Y-67479032D01*
X106027755Y-67363835D01*
X106012729Y-67327033D01*
X105979263Y-67282385D01*
X105931574Y-67249206D01*
X105924624Y-67245902D01*
X105892663Y-67232933D01*
X105848800Y-67217131D01*
X105797585Y-67199950D01*
X105743566Y-67182844D01*
X105691292Y-67167266D01*
X105645311Y-67154669D01*
X105610171Y-67146507D01*
X105585389Y-67141442D01*
X105551419Y-67133729D01*
X105526832Y-67127244D01*
X105513421Y-67123366D01*
X105453922Y-67109671D01*
X105380582Y-67097021D01*
X105297069Y-67085861D01*
X105207050Y-67076639D01*
X105114193Y-67069800D01*
X105022165Y-67065791D01*
X104931110Y-67064475D01*
X104762057Y-67069072D01*
X104607216Y-67083481D01*
X104465424Y-67107986D01*
X104335514Y-67142869D01*
X104216324Y-67188413D01*
X104106689Y-67244901D01*
X104005444Y-67312615D01*
X103967839Y-67342058D01*
X103922078Y-67382592D01*
X103881270Y-67425955D01*
X103841156Y-67476798D01*
X103797475Y-67539774D01*
X103793507Y-67545728D01*
X103771351Y-67577749D01*
X103756779Y-67595905D01*
X103749792Y-67599692D01*
X103750393Y-67588607D01*
X103758584Y-67562143D01*
X103774365Y-67519797D01*
X103797738Y-67461065D01*
X103859010Y-67320147D01*
X103947360Y-67147819D01*
X103996413Y-67068620D01*
X104263205Y-67068620D01*
X104276139Y-67069086D01*
X104304898Y-67063140D01*
X104349001Y-67050575D01*
X104363094Y-67046244D01*
X104434445Y-67025220D01*
X104499386Y-67008112D01*
X104561030Y-66994537D01*
X104622493Y-66984109D01*
X104686887Y-66976444D01*
X104757326Y-66971158D01*
X104836925Y-66967866D01*
X104928797Y-66966183D01*
X105036055Y-66965725D01*
X105067338Y-66965751D01*
X105151346Y-66966098D01*
X105220281Y-66966930D01*
X105276735Y-66968355D01*
X105323302Y-66970482D01*
X105362574Y-66973419D01*
X105397143Y-66977275D01*
X105429603Y-66982157D01*
X105522562Y-66998462D01*
X105658208Y-67025193D01*
X105781544Y-67053585D01*
X105896389Y-67084542D01*
X106006560Y-67118971D01*
X106026071Y-67125457D01*
X106058684Y-67136125D01*
X106081910Y-67143484D01*
X106091668Y-67146227D01*
X106091752Y-67146226D01*
X106098121Y-67140742D01*
X106103742Y-67122583D01*
X106109522Y-67088842D01*
X106115826Y-67045347D01*
X106080607Y-67035977D01*
X106076944Y-67035003D01*
X105927698Y-66996584D01*
X105792635Y-66964509D01*
X105668849Y-66938161D01*
X105553437Y-66916920D01*
X105443492Y-66900166D01*
X105422142Y-66897645D01*
X105364753Y-66893173D01*
X105295420Y-66890085D01*
X105217524Y-66888338D01*
X105134447Y-66887885D01*
X105049571Y-66888683D01*
X104966279Y-66890685D01*
X104887953Y-66893848D01*
X104817974Y-66898125D01*
X104759725Y-66903472D01*
X104716588Y-66909844D01*
X104653435Y-66923369D01*
X104528598Y-66955908D01*
X104414152Y-66993713D01*
X104314054Y-67035549D01*
X104286742Y-67049280D01*
X104266579Y-67061949D01*
X104263205Y-67068620D01*
X103996413Y-67068620D01*
X104043774Y-66992152D01*
X104148263Y-66853134D01*
X104260835Y-66730757D01*
X104381499Y-66625008D01*
X104510263Y-66535878D01*
X104647138Y-66463355D01*
X104698274Y-66441675D01*
X104760326Y-66419738D01*
X104827208Y-66400976D01*
X104901199Y-66384968D01*
X104984579Y-66371292D01*
X105079628Y-66359527D01*
X105188626Y-66349250D01*
X105313853Y-66340041D01*
X105426372Y-66335569D01*
X105552409Y-66336693D01*
X105679985Y-66343626D01*
X105806267Y-66355963D01*
X105928426Y-66373296D01*
X106043628Y-66395219D01*
X106149044Y-66421326D01*
X106241841Y-66451209D01*
X106319188Y-66484462D01*
X106337598Y-66494713D01*
X106357233Y-66508589D01*
X106364856Y-66518414D01*
X106365478Y-66522589D01*
X106371699Y-66541608D01*
X106382441Y-66566872D01*
X106393440Y-66591009D01*
X106409594Y-66627479D01*
X106425707Y-66664710D01*
X106426707Y-66667049D01*
X106447613Y-66713495D01*
X106467378Y-66748960D01*
X106488801Y-66774808D01*
X106514684Y-66792405D01*
X106547828Y-66803115D01*
X106591034Y-66808305D01*
X106647103Y-66809338D01*
X106718836Y-66807582D01*
X106878782Y-66802223D01*
X107031571Y-66873256D01*
X107135908Y-66921347D01*
X107253970Y-66974771D01*
X107367027Y-67024888D01*
X107414265Y-67045347D01*
X107472198Y-67070438D01*
G37*
G36*
X109381949Y-68256224D02*
G01*
X109379309Y-68337378D01*
X109375385Y-68407753D01*
X109370179Y-68463501D01*
X109342514Y-68655714D01*
X109299669Y-68877951D01*
X109246047Y-69089349D01*
X109180811Y-69292769D01*
X109103125Y-69491070D01*
X109012153Y-69687112D01*
X108995275Y-69720771D01*
X108961654Y-69786803D01*
X108932486Y-69842111D01*
X108905404Y-69890888D01*
X108878042Y-69937326D01*
X108848035Y-69985618D01*
X108813016Y-70039956D01*
X108805691Y-70051155D01*
X108777076Y-70094347D01*
X108747029Y-70138982D01*
X108717494Y-70182247D01*
X108690417Y-70221328D01*
X108667741Y-70253413D01*
X108651411Y-70275690D01*
X108643372Y-70285345D01*
X108637031Y-70292124D01*
X108622264Y-70310232D01*
X108603308Y-70334788D01*
X108579517Y-70364917D01*
X108536536Y-70415642D01*
X108484741Y-70473771D01*
X108426961Y-70536341D01*
X108366029Y-70600388D01*
X108304775Y-70662949D01*
X108246031Y-70721060D01*
X108192626Y-70771757D01*
X108147393Y-70812076D01*
X107979430Y-70946171D01*
X107788977Y-71080551D01*
X107590424Y-71203848D01*
X107387606Y-71313687D01*
X107184360Y-71407697D01*
X107176372Y-71411052D01*
X107000989Y-71477801D01*
X106813251Y-71537166D01*
X106618027Y-71588002D01*
X106420185Y-71629163D01*
X106224596Y-71659503D01*
X106036128Y-71677877D01*
X106001135Y-71679363D01*
X105945741Y-71680150D01*
X105878676Y-71679981D01*
X105803631Y-71678954D01*
X105724300Y-71677171D01*
X105644373Y-71674731D01*
X105567544Y-71671735D01*
X105497505Y-71668283D01*
X105437947Y-71664475D01*
X105392563Y-71660411D01*
X105323389Y-71651767D01*
X105198939Y-71632330D01*
X105071060Y-71607928D01*
X104943410Y-71579460D01*
X104819645Y-71547827D01*
X104703424Y-71513926D01*
X104598403Y-71478659D01*
X104508239Y-71442924D01*
X104481276Y-71431505D01*
X104444439Y-71416416D01*
X104406380Y-71401216D01*
X104369223Y-71385700D01*
X104308142Y-71357836D01*
X104238305Y-71323950D01*
X104163775Y-71286117D01*
X104088614Y-71246407D01*
X104016882Y-71206895D01*
X103952643Y-71169652D01*
X103880719Y-71125333D01*
X103675952Y-70984968D01*
X103480108Y-70829370D01*
X103294722Y-70660007D01*
X103121328Y-70478345D01*
X102961462Y-70285850D01*
X102816658Y-70083990D01*
X102721528Y-69933561D01*
X102601378Y-69717720D01*
X102498181Y-69497761D01*
X102411337Y-69272069D01*
X102340245Y-69039033D01*
X102284304Y-68797040D01*
X102242912Y-68544477D01*
X102236865Y-68490417D01*
X102231021Y-68419106D01*
X102226091Y-68338617D01*
X102222161Y-68252404D01*
X102219318Y-68163920D01*
X102217649Y-68076619D01*
X102217369Y-68019880D01*
X102670456Y-68019880D01*
X102670603Y-68119685D01*
X102672538Y-68220717D01*
X102676198Y-68319039D01*
X102681521Y-68410714D01*
X102688442Y-68491802D01*
X102696900Y-68558367D01*
X102707123Y-68619336D01*
X102723435Y-68706558D01*
X102741374Y-68792963D01*
X102760127Y-68875042D01*
X102778881Y-68949287D01*
X102796823Y-69012189D01*
X102813142Y-69060241D01*
X102814160Y-69062898D01*
X102823258Y-69087353D01*
X102836628Y-69123991D01*
X102852635Y-69168313D01*
X102869646Y-69215822D01*
X102882962Y-69251186D01*
X102910790Y-69318219D01*
X102944483Y-69393436D01*
X102981960Y-69472591D01*
X103021142Y-69551435D01*
X103059949Y-69625723D01*
X103096302Y-69691206D01*
X103128120Y-69743638D01*
X103135630Y-69755222D01*
X103162292Y-69796422D01*
X103188271Y-69836658D01*
X103208863Y-69868648D01*
X103233059Y-69904392D01*
X103273329Y-69959391D01*
X103321413Y-70021464D01*
X103374498Y-70087077D01*
X103429772Y-70152698D01*
X103484423Y-70214794D01*
X103612843Y-70348511D01*
X103784869Y-70504702D01*
X103967709Y-70647098D01*
X104159239Y-70773937D01*
X104308461Y-70859606D01*
X104522263Y-70965477D01*
X104740061Y-71053626D01*
X104963014Y-71124458D01*
X105192282Y-71178375D01*
X105429023Y-71215780D01*
X105479799Y-71220768D01*
X105544960Y-71225325D01*
X105619247Y-71229221D01*
X105698061Y-71232303D01*
X105776808Y-71234420D01*
X105850891Y-71235422D01*
X105915713Y-71235156D01*
X105966679Y-71233472D01*
X106051835Y-71227200D01*
X106217521Y-71208181D01*
X106387535Y-71180588D01*
X106554766Y-71145650D01*
X106712103Y-71104597D01*
X106718998Y-71102561D01*
X106785277Y-71080909D01*
X106861879Y-71052828D01*
X106945318Y-71019851D01*
X107032104Y-70983510D01*
X107118751Y-70945336D01*
X107201770Y-70906863D01*
X107277674Y-70869622D01*
X107342975Y-70835145D01*
X107394185Y-70804965D01*
X107495527Y-70739056D01*
X107604484Y-70664973D01*
X107702240Y-70594169D01*
X107791839Y-70524149D01*
X107876325Y-70452418D01*
X107958739Y-70376480D01*
X108042126Y-70293841D01*
X108129528Y-70202005D01*
X108132913Y-70198355D01*
X108249874Y-70061953D01*
X108362697Y-69910788D01*
X108469188Y-69748422D01*
X108567154Y-69578413D01*
X108654399Y-69404324D01*
X108728730Y-69229712D01*
X108783587Y-69076214D01*
X108846019Y-68858906D01*
X108891674Y-68638016D01*
X108920785Y-68412039D01*
X108933588Y-68179471D01*
X108930318Y-67938809D01*
X108927876Y-67888035D01*
X108923557Y-67812754D01*
X108918653Y-67748848D01*
X108912658Y-67691799D01*
X108905068Y-67637091D01*
X108895376Y-67580205D01*
X108883077Y-67516624D01*
X108880547Y-67504070D01*
X108866183Y-67433871D01*
X108854043Y-67377105D01*
X108843141Y-67329642D01*
X108832494Y-67287354D01*
X108821118Y-67246112D01*
X108808028Y-67201786D01*
X108801601Y-67180651D01*
X108785358Y-67128823D01*
X108769348Y-67080727D01*
X108752272Y-67032925D01*
X108732834Y-66981974D01*
X108709735Y-66924435D01*
X108681679Y-66856867D01*
X108647366Y-66775829D01*
X108624311Y-66725894D01*
X108590259Y-66659594D01*
X108549401Y-66585448D01*
X108503912Y-66507188D01*
X108455967Y-66428547D01*
X108407741Y-66353258D01*
X108361408Y-66285053D01*
X108237657Y-66121813D01*
X108084281Y-65947283D01*
X107916934Y-65783105D01*
X107737110Y-65630632D01*
X107546306Y-65491218D01*
X107346017Y-65366216D01*
X107319660Y-65351325D01*
X107179060Y-65278522D01*
X107028680Y-65210587D01*
X106874071Y-65149736D01*
X106720785Y-65098186D01*
X106574372Y-65058151D01*
X106491408Y-65038919D01*
X106386783Y-65016632D01*
X106291342Y-64999248D01*
X106200480Y-64986232D01*
X106109594Y-64977050D01*
X106014077Y-64971167D01*
X105909328Y-64968049D01*
X105790740Y-64967161D01*
X105665566Y-64968622D01*
X105536242Y-64974102D01*
X105415859Y-64984290D01*
X105299497Y-64999861D01*
X105182233Y-65021488D01*
X105059145Y-65049845D01*
X104925312Y-65085606D01*
X104716658Y-65153501D01*
X104509089Y-65239103D01*
X104306096Y-65340732D01*
X104109621Y-65457142D01*
X103921605Y-65587088D01*
X103743990Y-65729326D01*
X103578717Y-65882612D01*
X103427728Y-66045700D01*
X103291359Y-66215621D01*
X103155345Y-66410994D01*
X103036252Y-66612915D01*
X102933772Y-66822085D01*
X102847599Y-67039204D01*
X102777428Y-67264970D01*
X102722952Y-67500084D01*
X102683865Y-67745246D01*
X102681378Y-67767207D01*
X102675781Y-67839703D01*
X102672161Y-67925240D01*
X102670456Y-68019880D01*
X102217369Y-68019880D01*
X102217241Y-67993955D01*
X102218180Y-67919379D01*
X102220552Y-67856348D01*
X102224445Y-67808312D01*
X102224903Y-67804458D01*
X102231151Y-67751663D01*
X102238010Y-67693415D01*
X102244075Y-67641633D01*
X102248683Y-67605351D01*
X102265264Y-67501218D01*
X102287411Y-67388276D01*
X102314103Y-67270419D01*
X102344315Y-67151541D01*
X102377026Y-67035538D01*
X102411212Y-66926302D01*
X102445851Y-66827729D01*
X102479919Y-66743712D01*
X102487197Y-66727046D01*
X102501683Y-66692684D01*
X102512866Y-66664710D01*
X102527360Y-66629956D01*
X102552560Y-66576131D01*
X102585259Y-66510957D01*
X102624228Y-66436817D01*
X102668236Y-66356091D01*
X102716054Y-66271163D01*
X102716114Y-66271057D01*
X102730020Y-66248207D01*
X102752039Y-66213680D01*
X102779808Y-66171037D01*
X102810963Y-66123837D01*
X102843140Y-66075642D01*
X102873977Y-66030010D01*
X102901109Y-65990503D01*
X102922174Y-65960680D01*
X102960486Y-65909457D01*
X103049787Y-65799498D01*
X103150205Y-65686436D01*
X103258164Y-65573930D01*
X103370085Y-65465638D01*
X103482392Y-65365218D01*
X103591506Y-65276328D01*
X103647693Y-65233809D01*
X103864624Y-65083503D01*
X104087248Y-64950804D01*
X104315506Y-64835731D01*
X104549336Y-64738305D01*
X104788680Y-64658547D01*
X105033478Y-64596478D01*
X105283670Y-64552117D01*
X105539198Y-64525485D01*
X105800000Y-64516604D01*
X105840155Y-64516787D01*
X106044197Y-64523928D01*
X106241599Y-64542005D01*
X106438905Y-64571774D01*
X106642654Y-64613992D01*
X106798906Y-64654728D01*
X107019887Y-64726842D01*
X107238593Y-64814771D01*
X107452242Y-64917148D01*
X107658049Y-65032606D01*
X107853229Y-65159779D01*
X108034997Y-65297301D01*
X108043341Y-65304117D01*
X108080815Y-65334716D01*
X108117810Y-65364912D01*
X108147393Y-65389046D01*
X108160711Y-65400470D01*
X108190969Y-65428234D01*
X108229626Y-65465103D01*
X108274003Y-65508393D01*
X108321419Y-65555419D01*
X108369194Y-65603495D01*
X108414649Y-65649937D01*
X108455103Y-65692060D01*
X108487876Y-65727178D01*
X108510288Y-65752607D01*
X108541967Y-65790872D01*
X108587695Y-65846597D01*
X108625017Y-65892893D01*
X108656236Y-65932672D01*
X108683660Y-65968846D01*
X108709594Y-66004327D01*
X108765677Y-66084448D01*
X108902566Y-66301010D01*
X109022256Y-66523707D01*
X109124952Y-66753079D01*
X109210859Y-66989666D01*
X109280181Y-67234009D01*
X109333123Y-67486648D01*
X109369890Y-67748123D01*
X109370956Y-67758470D01*
X109375975Y-67823477D01*
X109379722Y-67900796D01*
X109382195Y-67986578D01*
X109383391Y-68076976D01*
X109383310Y-68168141D01*
X109383135Y-68179471D01*
X109381949Y-68256224D01*
G37*
X121400000Y-109200000D02*
G75*
G03*
X121400000Y-109200000I-1200000J0D01*
G01*
%LPC*%
D12*
X136900000Y-97775000D03*
D13*
X136900000Y-95235000D03*
D12*
X136900000Y-117700000D03*
D13*
X136900000Y-115160000D03*
X136900000Y-112620000D03*
X136900000Y-110080000D03*
D14*
X99000000Y-61000000D03*
D15*
X99000000Y-61000000D03*
D16*
X112880000Y-122675000D03*
D17*
X112880000Y-126855000D03*
D16*
X121520000Y-122675000D03*
D17*
X121520000Y-126855000D03*
D12*
X136900000Y-83000000D03*
D13*
X136900000Y-80460000D03*
X136900000Y-77920000D03*
X136900000Y-75380000D03*
X136900000Y-72840000D03*
X136900000Y-70300000D03*
D18*
X136900000Y-66400000D03*
D14*
X135000000Y-126000000D03*
D15*
X135000000Y-126000000D03*
D14*
X135000000Y-61000000D03*
D15*
X135000000Y-61000000D03*
D18*
X97000000Y-66200000D03*
D14*
X99000000Y-126000000D03*
D15*
X99000000Y-126000000D03*
D19*
X120400000Y-61500000D03*
X108000000Y-122800000D03*
X120400000Y-64900000D03*
X120200000Y-109200000D03*
%LPD*%
M02*
