M48
; DRILL file {KiCad 7.0.9} date Thu Jan 11 22:44:23 2024
; FORMAT={-:-/ absolute / metric / decimal}
; #@! TF.CreationDate,2024-01-11T22:44:23+01:00
; #@! TF.GenerationSoftware,Kicad,Pcbnew,7.0.9
; #@! TF.FileFunction,Plated,1,4,PTH
FMAT,2
METRIC
; #@! TA.AperFunction,Plated,PTH,ViaDrill
T1C0.300
; #@! TA.AperFunction,Plated,PTH,ComponentDrill
T2C0.600
; #@! TA.AperFunction,Plated,PTH,ComponentDrill
T3C1.000
; #@! TA.AperFunction,Plated,PTH,ComponentDrill
T4C1.550
; #@! TA.AperFunction,Plated,PTH,ComponentDrill
T5C2.500
%
G90
G05
T1
X96.1Y-73.2
X96.6Y-80.0
X97.3Y-85.6
X97.6Y-68.2
X97.6Y-86.8
X98.2Y-102.9
X98.3Y-114.3
X100.0Y-88.2
X100.1Y-67.9
X100.6Y-99.4
X100.6Y-102.8
X100.6Y-114.3
X100.7Y-110.8
X101.1Y-72.2
X101.1Y-74.1
X101.1Y-91.8
X102.0Y-91.8
X102.4Y-72.2
X102.4Y-74.1
X102.8Y-61.7
X103.6Y-74.1
X103.7Y-78.5
X103.8Y-59.0
X103.8Y-60.0
X103.9Y-61.7
X104.7Y-120.5
X104.9Y-116.8
X105.7Y-70.5
X106.4Y-102.0
X106.4Y-106.4
X106.8Y-68.7
X109.2Y-119.1
X109.3Y-126.7
X110.0Y-73.8
X110.0Y-76.2
X110.0Y-77.6
X110.1Y-116.7
X111.3Y-95.6
X111.5Y-93.9
X112.0Y-95.6
X112.4Y-85.4
X112.4Y-101.4
X112.9Y-83.9
X112.9Y-87.5
X113.0Y-120.0
X113.5Y-101.4
X113.6Y-66.3
X113.6Y-121.1
X114.3Y-64.2
X114.3Y-68.5
X114.6Y-101.6
X114.8Y-123.4
X114.8Y-126.0
X115.1Y-80.6
X115.1Y-81.9
X115.1Y-93.5
X115.7Y-64.1
X115.7Y-68.5
X116.0Y-92.4
X116.0Y-111.0
X116.3Y-87.1
X116.5Y-117.65
X117.0Y-93.5
X117.1Y-68.5
X117.5Y-107.1
X117.5Y-117.7
X117.6Y-110.8
X117.7Y-64.9
X117.7Y-66.3
X117.8Y-99.3
X117.8Y-100.2
X118.1Y-103.4
X118.1Y-108.9
X118.3Y-83.5
X118.3Y-92.4
X118.4Y-78.9
X118.7Y-98.3
X119.3Y-78.9
X119.9Y-101.2
X120.0Y-91.3
X120.0Y-115.0
X120.3Y-83.8
X120.3Y-86.1
X120.3Y-88.5
X120.6Y-103.4
X120.9Y-91.3
X121.3Y-82.0
X121.4Y-79.6
X122.1Y-118.6
X122.5Y-92.1
X123.0Y-110.0
X123.375Y-92.1
X123.6Y-62.2
X123.6Y-63.5
X123.6Y-83.3
X123.8Y-93.7
X123.9Y-79.0
X123.9Y-80.2
X127.3Y-93.2
X127.4Y-58.5
X127.7Y-72.8
X128.7Y-89.5
X128.7Y-92.2
X130.0Y-89.5
X131.5Y-91.3
X132.0Y-106.4
X132.0Y-109.2
X134.7Y-91.3
X135.6Y-70.3
X135.6Y-75.38
X135.6Y-90.1
X135.7Y-72.84
X135.7Y-77.9
X135.7Y-80.46
T3
X136.9Y-70.3
X136.9Y-72.84
X136.9Y-75.38
X136.9Y-77.92
X136.9Y-80.46
X136.9Y-83.0
X136.9Y-95.235
X136.9Y-97.775
X136.9Y-110.08
X136.9Y-112.62
X136.9Y-115.16
X136.9Y-117.7
T4
X97.0Y-66.2
X136.9Y-66.4
T5
X99.0Y-61.0
X99.0Y-126.0
X135.0Y-61.0
X135.0Y-126.0
T2
X112.88Y-122.125G85X112.88Y-123.225
G05
X112.88Y-126.455G85X112.88Y-127.255
G05
X121.52Y-122.125G85X121.52Y-123.225
G05
X121.52Y-126.455G85X121.52Y-127.255
G05
T0
M30
